<?xml version="1.0" encoding="UTF-8" standalone="no"?>
<!DOCTYPE svg PUBLIC "-//W3C//DTD SVG 1.1//EN" "http://www.w3.org/Graphics/SVG/1.1/DTD/svg11.dtd">
<svg width="100%" height="100%" viewBox="0 0 3794 5195" version="1.1" xmlns="http://www.w3.org/2000/svg" xmlns:xlink="http://www.w3.org/1999/xlink" xml:space="preserve" xmlns:serif="http://www.serif.com/" style="fill-rule:evenodd;clip-rule:evenodd;stroke-linejoin:round;stroke-miterlimit:2;">
    <g transform="matrix(1,0,0,1,-7266.164583,-4978.940833)">
        <g transform="matrix(4.166667,0,0,4.166667,0,0)">
            <g opacity="0.3">
                <g transform="matrix(1,0,0,1,2623.75,2361.7129)">
                    <path d="M0,80L-785.485,80C-802.347,80 -816.016,62.092 -816.016,40C-816.016,17.908 -802.347,0 -785.485,0L0,0C16.861,0 30.531,17.908 30.531,40C30.531,62.092 16.861,80 0,80" style="fill:rgb(206,110,77);fill-rule:nonzero;"/>
                </g>
            </g>
        </g>
        <g transform="matrix(4.166667,0,0,4.166667,0,0)">
            <g opacity="0.3">
                <g transform="matrix(1,0,0,1,2523.1641,1717.1575)">
                    <path d="M0,116.032L-113.991,116.032C-93.564,99.175 -73.657,78.501 -56.576,53.245C30.086,-74.876 41.755,-206.038 34.469,-260.716C-17.521,-245.312 -63.451,-224.706 -108.129,-189.214C-110.905,-252.271 -124.366,-301.907 -136.648,-328.855C-159.879,-313.53 -181.179,-297.355 -200.799,-278.897C-228.08,-386.405 -275.227,-464.575 -306.66,-499.895C-364.671,-429.323 -404.943,-356.717 -423.154,-250.21C-453.497,-277.461 -486.405,-297.876 -523.229,-315.941C-531.271,-289.986 -537.875,-244.959 -534.861,-189.126C-571.165,-213.068 -608.883,-228.724 -650.481,-241.05C-657.769,-186.372 -646.098,-55.21 -559.435,72.913C-548.484,89.102 -536.368,103.403 -523.703,116.032L-635.927,116.032C-787.868,116.032 -697.833,372.88 -649.987,452.975C-596.527,544.128 -523.37,615.927 -453.021,615.927L-182.91,615.927C-109.739,615.927 -39.401,544.128 14.069,452.975C61.904,372.88 154.758,116.032 0,116.032" style="fill:rgb(206,110,77);fill-rule:nonzero;"/>
                </g>
            </g>
        </g>
        <g transform="matrix(4.166667,0,0,4.166667,0,0)">
            <g transform="matrix(1,0,0,1,2346.1699,1879.4474)">
                <path d="M0,-512.422C-84.49,-456.678 -143.676,-389.83 -188.954,-243.233C-227.117,-119.672 -169.923,-7.961 -169.923,-7.961L-157.036,-3.979L-144.158,0C-144.158,0 -33.919,-60 4.244,-183.561C50.168,-332.252 23.018,-461.921 0,-512.422" style="fill:rgb(52,168,83);fill-rule:nonzero;"/>
            </g>
        </g>
        <g transform="matrix(4.166667,0,0,4.166667,0,0)">
            <g transform="matrix(0.962632,0.270814,0.270814,-0.962632,2136.016373,1845.303797)">
                <path d="M72.776,-14.995C72.776,-14.995 162.646,72.617 165.921,201.896C169.862,357.467 108.61,474.938 72.776,517.319L59.301,-14.652L72.776,-14.995Z" style="fill:rgb(29,135,53);fill-rule:nonzero;"/>
            </g>
        </g>
        <g transform="matrix(4.166667,0,0,4.166667,0,0)">
            <g transform="matrix(1,0,0,1,2518.3291,1883.9121)">
                <path d="M0,-448.332C-97.053,-419.576 -173.122,-372.836 -259.087,-245.746C-331.539,-138.631 -309.314,-15.111 -309.314,-15.111L-298.141,-7.553L-286.979,0C-286.979,0 -164.053,-25.342 -91.599,-132.459C-4.41,-261.359 7.332,-393.32 0,-448.332" style="fill:rgb(52,168,83);fill-rule:nonzero;"/>
            </g>
        </g>
        <g transform="matrix(4.166667,0,0,4.166667,0,0)">
            <g transform="matrix(0.842232,0.539116,0.539116,-0.842232,2132.834315,1772.220242)">
                <path d="M143.188,-40.959C143.188,-40.959 233.058,46.656 236.333,175.935C240.273,331.503 179.021,448.976 143.188,491.355L129.715,-40.615L143.188,-40.959Z" style="fill:rgb(29,135,53);fill-rule:nonzero;"/>
            </g>
        </g>
        <g transform="matrix(4.166667,0,0,4.166667,0,0)">
            <g transform="matrix(1,0,0,1,1994.7275,1543.2897)">
                <path d="M0,163.472C53.521,281.199 170.478,326.74 170.478,326.74L182.743,321.159L195.026,315.576C195.026,315.576 237.594,197.513 184.073,79.79C120.57,-59.885 53.388,-118.688 -37.489,-163.268C-53.917,-110.258 -64.408,21.806 0,163.472" style="fill:rgb(29,135,53);fill-rule:nonzero;"/>
            </g>
        </g>
        <g transform="matrix(4.166667,0,0,4.166667,0,0)">
            <g transform="matrix(0.920524,-0.390685,-0.390685,-0.920524,2252.078038,1807.070347)">
                <path d="M-104.566,-24.015C-104.566,-24.015 -194.434,63.599 -197.709,192.88C-201.651,348.45 -140.398,465.92 -104.566,508.299L-91.095,-23.671L-104.566,-24.015Z" style="fill:rgb(52,168,83);fill-rule:nonzero;"/>
            </g>
        </g>
        <g transform="matrix(4.166667,0,0,4.166667,0,0)">
            <g transform="matrix(1,0,0,1,1920.8105,1587.8222)">
                <path d="M0,183.418C72.454,290.533 195.379,315.875 195.379,315.875L206.542,308.322L217.715,300.764C217.715,300.764 239.941,177.246 167.488,70.131C81.523,-56.959 5.453,-103.701 -91.6,-132.457C-98.932,-77.445 -87.19,54.516 0,183.418" style="fill:rgb(29,135,53);fill-rule:nonzero;"/>
            </g>
        </g>
        <g transform="matrix(4.166667,0,0,4.166667,0,0)">
            <g transform="matrix(0.842232,-0.539116,-0.539116,-0.842232,2214.705022,1792.006251)">
                <path d="M-143.187,-40.958C-143.187,-40.958 -233.056,46.656 -236.332,175.933C-240.273,331.504 -179.02,448.976 -143.187,491.356L-129.714,-40.615L-143.187,-40.958Z" style="fill:rgb(52,168,83);fill-rule:nonzero;"/>
            </g>
        </g>
        <g transform="matrix(4.166667,0,0,4.166667,0,0)">
            <g transform="matrix(1,0,0,1,2175.123,1870.0288)">
                <path d="M0,-675.083C-81.544,-575.881 -128.26,-472.698 -128.26,-278.054C-128.26,-113.998 -17.112,0 -17.112,0L17.099,0C17.099,0 128.258,-113.998 128.258,-278.054C128.258,-475.477 46.809,-622.49 0,-675.083" style="fill:rgb(52,168,83);fill-rule:nonzero;"/>
            </g>
        </g>
        <g transform="matrix(4.166667,0,0,4.166667,0,0)">
            <g transform="matrix(0.999679,-0.025321,-0.025321,-0.999679,2200.783538,1871.111907)">
                <path d="M-8.532,1.299C-8.532,1.299 105.478,112.446 109.632,276.45C114.631,473.81 36.931,622.837 -8.532,676.599L-25.625,1.732L-8.532,1.299Z" style="fill:rgb(29,135,53);fill-rule:nonzero;"/>
            </g>
        </g>
        <g transform="matrix(4.166667,0,0,4.166667,0,0)">
            <g transform="matrix(1,0,0,1,2483.6504,2317.5581)">
                <path d="M0,-502.937L-639.796,-502.937C-792.662,-502.937 -702.079,-244.527 -653.942,-163.941C-600.158,-72.236 -526.556,0 -455.777,0L-184.022,0C-110.406,0 -39.64,-72.236 14.155,-163.941C62.281,-244.527 155.7,-502.937 0,-502.937" style="fill:rgb(239,240,242);fill-rule:nonzero;"/>
            </g>
        </g>
        <g transform="matrix(4.166667,0,0,4.166667,0,0)">
            <g transform="matrix(1,0,0,1,2032.25,1984.2604)">
                <path d="M0,68.973C32.275,69.468 60.302,77.236 74.188,88.174C75.628,82.482 76.568,76.517 76.935,70.346C79.607,25.349 50.949,-13.456 12.928,-16.33C-25.09,-19.201 -58.078,14.948 -60.749,59.945C-61.121,66.214 -60.882,72.365 -60.1,78.315C-44.97,72.222 -23.644,68.609 0,68.973" style="fill:rgb(12,3,6);fill-rule:nonzero;"/>
            </g>
        </g>
        <g transform="matrix(4.166667,0,0,4.166667,0,0)">
            <g transform="matrix(1,0,0,1,2333.4395,1995.1899)">
                <path d="M0,62.022C17.745,62.296 34.369,64.997 48.613,69.462C49.313,65.028 49.662,60.455 49.638,55.778C49.42,13.291 18.307,-21.628 -19.857,-22.214C-58.021,-22.801 -88.786,11.169 -88.566,53.659C-88.51,64.716 -86.356,75.261 -82.533,84.823C-66.163,70.695 -35.354,61.483 0,62.022" style="fill:rgb(12,3,6);fill-rule:nonzero;"/>
            </g>
        </g>
        <g transform="matrix(4.166667,0,0,4.166667,0,0)">
            <g transform="matrix(1,0,0,1,2010.8516,1941.3505)">
                <path d="M0,23.172C-0.635,23.161 -1.284,22.957 -1.834,22.547C-3.175,21.544 -3.45,19.698 -2.439,18.422C-2.188,18.098 3.955,10.413 15.199,6.004C25.573,1.935 42.379,-0.015 63.521,13.81C64.925,14.727 65.32,16.558 64.396,17.896C63.478,19.234 61.594,19.575 60.188,18.655C45.021,8.741 30.687,6.318 17.582,11.458C7.826,15.285 2.477,21.977 2.423,22.046C1.828,22.8 0.925,23.187 0,23.172" style="fill:rgb(12,3,6);fill-rule:nonzero;"/>
            </g>
        </g>
        <g transform="matrix(4.166667,0,0,4.166667,0,0)">
            <g transform="matrix(1,0,0,1,2282.6035,1943.7284)">
                <path d="M0,23.17C-0.64,23.162 -1.285,22.957 -1.839,22.547C-3.182,21.547 -3.454,19.699 -2.446,18.42C-2.188,18.096 3.953,10.416 15.195,6.006C25.568,1.935 42.372,-0.015 63.519,13.812C64.922,14.727 65.313,16.558 64.396,17.894C63.472,19.237 61.588,19.578 60.184,18.656C45.017,8.742 30.683,6.317 17.581,11.459C7.822,15.287 2.471,21.979 2.418,22.046C1.826,22.801 0.919,23.185 0,23.17" style="fill:rgb(12,3,6);fill-rule:nonzero;"/>
            </g>
        </g>
        <g transform="matrix(4.166667,0,0,4.166667,0,0)">
            <g transform="matrix(1,0,0,1,2090.1377,2107.096)">
                <path d="M0,31.694C-0.352,31.69 -0.697,31.679 -1.051,31.67C-2.3,31.628 -3.295,30.616 -3.279,29.412C-3.263,28.209 -2.226,27.259 -0.993,27.307C8.662,27.626 15.842,25.341 20.327,20.506C27.075,13.228 25.595,2.519 25.579,2.413C25.405,1.214 26.263,0.127 27.496,-0.018C28.733,-0.163 29.872,0.691 30.048,1.886C30.124,2.407 31.82,14.715 23.716,23.456C18.492,29.086 10.518,31.857 0,31.694" style="fill:rgb(12,3,6);fill-rule:nonzero;"/>
            </g>
        </g>
        <g transform="matrix(4.166667,0,0,4.166667,0,0)">
            <g transform="matrix(1,0,0,1,2262.4453,2109.9656)">
                <path d="M0,30.384C-4.573,30.313 -10.724,29.339 -16.153,25.497C-22.808,20.789 -26.686,13.002 -27.68,2.353C-27.794,1.153 -26.876,0.108 -25.634,0.025C-24.396,-0.059 -23.299,0.85 -23.185,2.051C-22.315,11.37 -19.066,18.078 -13.537,21.995C-5.211,27.884 5.619,25.577 5.73,25.55C6.939,25.28 8.167,26.02 8.468,27.195C8.77,28.369 8.033,29.539 6.823,29.807C6.585,29.857 3.852,30.443 0,30.384" style="fill:rgb(12,3,6);fill-rule:nonzero;"/>
            </g>
        </g>
        <g transform="matrix(4.166667,0,0,4.166667,0,0)">
            <g transform="matrix(1,0,0,1,2180.8291,2127.4791)">
                <path d="M0,37.223C-0.722,37.213 -1.443,37.19 -2.169,37.161C-39.628,35.541 -65.628,7.606 -66.715,6.416C-68.18,4.822 -68.048,2.41 -66.427,1.029C-64.812,-0.348 -62.312,-0.176 -60.851,1.419C-60.479,1.821 -35.85,28.099 -1.914,29.533C19.298,30.436 39.853,21.535 59.179,3.102C60.717,1.635 63.218,1.679 64.767,3.197C66.314,4.709 66.324,7.129 64.785,8.596C44.497,27.947 22.713,37.571 0,37.223" style="fill:rgb(12,3,6);fill-rule:nonzero;"/>
            </g>
        </g>
        <g transform="matrix(4.166667,0,0,4.166667,0,0)">
            <g transform="matrix(0.015291,-0.999883,-0.999883,-0.015291,2067.111521,1991.353422)">
                <path d="M-22.1,-21.768C-33.902,-22.011 -43.467,-12.311 -43.467,-0.1C-43.468,12.108 -33.899,22.202 -22.1,22.44C-10.301,22.683 -0.736,12.983 -0.734,0.773C-0.737,-11.437 -10.302,-21.527 -22.1,-21.768" style="fill:white;fill-rule:nonzero;"/>
            </g>
        </g>
        <g transform="matrix(4.166667,0,0,4.166667,0,0)">
            <g opacity="0.3">
                <g transform="matrix(0.015295,-0.999883,-0.999883,-0.015295,2011.632874,2020.244003)">
                    <path d="M-13.728,-13.522C-21.058,-13.67 -26.999,-7.643 -26.998,-0.063C-26.996,7.518 -21.054,13.787 -13.728,13.937C-6.399,14.088 -0.46,8.061 -0.46,0.479C-0.461,-7.103 -6.401,-13.37 -13.728,-13.522" style="fill:white;fill-rule:nonzero;"/>
                </g>
            </g>
        </g>
        <g transform="matrix(4.166667,0,0,4.166667,0,0)">
            <g opacity="0.3">
                <g transform="matrix(0.015444,-0.999881,-0.999881,-0.015444,2345.301034,2027.647526)">
                    <path d="M-13.726,-13.513C-21.051,-13.665 -26.993,-7.643 -26.993,-0.06C-26.996,7.523 -21.055,13.793 -13.726,13.941C-6.397,14.091 -0.456,8.069 -0.457,0.488C-0.456,-7.091 -6.394,-13.364 -13.726,-13.513" style="fill:white;fill-rule:nonzero;"/>
                </g>
            </g>
        </g>
        <g transform="matrix(4.166667,0,0,4.166667,0,0)">
            <g transform="matrix(0.015358,-0.999882,-0.999882,-0.015358,2292.394312,1997.088721)">
                <path d="M-22.103,-21.766C-33.903,-22.009 -43.468,-12.31 -43.468,-0.1C-43.471,12.11 -33.905,22.204 -22.103,22.446C-10.302,22.688 -0.738,12.987 -0.738,0.779C-0.739,-11.434 -10.304,-21.523 -22.103,-21.766" style="fill:white;fill-rule:nonzero;"/>
            </g>
        </g>
        <g transform="matrix(4.166667,0,0,4.166667,0,0)">
            <g transform="matrix(1,0,0,1,2382.2266,2042.438)">
                <path d="M0,-2.273C0,-2.273 0.076,-2.248 0.225,-2.196C0.381,-2.145 0.633,-2.07 0.954,-1.978C1.605,-1.794 2.564,-1.56 3.737,-1.331C4.315,-1.213 4.957,-1.109 5.633,-1.01C6.311,-0.92 7.029,-0.829 7.773,-0.776C8.516,-0.71 9.284,-0.686 10.068,-0.676C10.844,-0.682 11.642,-0.699 12.426,-0.783C13.217,-0.845 13.989,-0.973 14.751,-1.126C15.132,-1.207 15.5,-1.301 15.872,-1.395C16.223,-1.512 16.597,-1.61 16.938,-1.744C17.627,-1.997 18.286,-2.288 18.875,-2.624C19.169,-2.789 19.464,-2.946 19.721,-3.136C19.982,-3.32 20.256,-3.483 20.476,-3.679C20.706,-3.874 20.94,-4.047 21.138,-4.235C21.338,-4.427 21.522,-4.612 21.698,-4.785C22.036,-5.142 22.302,-5.481 22.536,-5.754C22.944,-6.346 23.181,-6.682 23.181,-6.682C23.181,-6.682 23.042,-6.295 22.796,-5.612C22.643,-5.287 22.474,-4.871 22.226,-4.417C22.093,-4.196 21.954,-3.96 21.807,-3.709C21.655,-3.46 21.462,-3.219 21.278,-2.952C21.096,-2.682 20.864,-2.44 20.635,-2.17C20.412,-1.895 20.148,-1.644 19.877,-1.382C19.334,-0.854 18.701,-0.35 18.016,0.128C17.677,0.377 17.307,0.581 16.938,0.82C16.562,1.029 16.177,1.241 15.779,1.441C14.982,1.826 14.148,2.193 13.295,2.488C12.439,2.799 11.57,3.043 10.703,3.272C9.838,3.483 8.974,3.67 8.135,3.806C7.295,3.959 6.477,4.06 5.699,4.15C4.923,4.229 4.183,4.291 3.498,4.33C2.129,4.405 0.979,4.409 0.156,4.385C-0.255,4.375 -0.582,4.363 -0.816,4.346C-1.062,4.33 -1.196,4.319 -1.196,4.319L-1.323,4.31C-3.26,4.164 -4.738,2.528 -4.628,0.658C-4.52,-1.211 -2.86,-2.612 -0.922,-2.465C-0.605,-2.44 -0.286,-2.371 0,-2.273" style="fill:rgb(12,3,6);fill-rule:nonzero;"/>
            </g>
        </g>
        <g transform="matrix(4.166667,0,0,4.166667,0,0)">
            <g transform="matrix(1,0,0,1,2383.1309,2063.1215)">
                <path d="M0,-5.144C-0.008,-5.147 0.039,-5.122 0.05,-5.109C0.061,-5.094 0.083,-5.071 0.155,-5.019C0.275,-4.929 0.479,-4.79 0.749,-4.616C1.294,-4.269 2.123,-3.778 3.18,-3.299C3.706,-3.048 4.291,-2.823 4.919,-2.59C5.55,-2.379 6.226,-2.158 6.932,-2.003C7.289,-1.91 7.651,-1.857 8.022,-1.782C8.391,-1.736 8.77,-1.659 9.15,-1.639C9.913,-1.547 10.688,-1.558 11.475,-1.589C12.255,-1.652 13.042,-1.745 13.799,-1.934C13.989,-1.98 14.176,-2.026 14.369,-2.075C14.555,-2.126 14.738,-2.192 14.923,-2.25C15.104,-2.311 15.293,-2.363 15.473,-2.434C15.648,-2.504 15.825,-2.576 15.997,-2.651C16.359,-2.783 16.687,-2.956 17.018,-3.123C17.182,-3.207 17.35,-3.285 17.504,-3.374C17.661,-3.468 17.814,-3.562 17.965,-3.652C18.27,-3.832 18.569,-4.016 18.836,-4.216C19.105,-4.413 19.38,-4.594 19.625,-4.79C20.101,-5.195 20.568,-5.549 20.924,-5.915C21.293,-6.275 21.634,-6.578 21.872,-6.862C22.374,-7.416 22.661,-7.732 22.661,-7.732C22.661,-7.732 22.465,-7.353 22.116,-6.695C21.956,-6.354 21.704,-5.976 21.43,-5.525C21.168,-5.065 20.797,-4.597 20.415,-4.057C20.22,-3.794 19.991,-3.54 19.764,-3.261C19.538,-2.981 19.278,-2.716 19.005,-2.442C18.87,-2.302 18.733,-2.166 18.596,-2.024C18.451,-1.884 18.294,-1.756 18.143,-1.623C17.836,-1.351 17.518,-1.069 17.166,-0.823C16.988,-0.693 16.813,-0.566 16.637,-0.434C16.455,-0.306 16.263,-0.196 16.075,-0.073C15.883,0.043 15.691,0.172 15.496,0.287C15.291,0.394 15.086,0.502 14.882,0.611C14.056,1.05 13.164,1.397 12.241,1.702C11.314,1.976 10.36,2.218 9.406,2.345C8.928,2.429 8.45,2.457 7.975,2.511C7.504,2.532 7.034,2.574 6.572,2.57C5.645,2.588 4.753,2.528 3.902,2.455C3.059,2.361 2.256,2.255 1.53,2.105C0.066,1.83 -1.133,1.472 -1.983,1.188C-2.41,1.043 -2.745,0.92 -2.993,0.822C-3.104,0.776 -3.222,0.726 -3.301,0.691C-3.36,0.662 -3.391,0.649 -3.391,0.649C-5.065,-0.29 -5.665,-2.348 -4.728,-3.949C-3.789,-5.547 -1.672,-6.082 0,-5.144" style="fill:rgb(12,3,6);fill-rule:nonzero;"/>
            </g>
        </g>
        <g transform="matrix(4.166667,0,0,4.166667,0,0)">
            <g transform="matrix(1,0,0,1,1971.6846,2029.8657)">
                <path d="M0,8.521C0,8.521 -0.122,8.54 -0.354,8.58C-0.573,8.613 -0.881,8.651 -1.27,8.697C-2.044,8.783 -3.136,8.87 -4.444,8.906C-5.097,8.926 -5.808,8.924 -6.558,8.906C-7.309,8.882 -8.099,8.847 -8.915,8.765C-9.732,8.697 -10.579,8.58 -11.429,8.442C-12.288,8.285 -13.149,8.116 -14.004,7.874C-14.857,7.65 -15.702,7.355 -16.519,7.038C-16.924,6.87 -17.323,6.69 -17.712,6.515C-18.095,6.312 -18.476,6.134 -18.835,5.919C-19.562,5.5 -20.233,5.056 -20.823,4.571C-21.121,4.335 -21.411,4.107 -21.665,3.854C-21.924,3.608 -22.181,3.386 -22.394,3.129C-22.607,2.882 -22.825,2.659 -23.009,2.427C-23.185,2.191 -23.354,1.967 -23.513,1.758C-23.813,1.33 -24.038,0.935 -24.234,0.624C-24.569,-0.033 -24.76,-0.405 -24.76,-0.405C-24.76,-0.405 -24.487,-0.091 -24.01,0.46C-23.744,0.711 -23.443,1.027 -23.066,1.357C-22.874,1.513 -22.671,1.679 -22.453,1.854C-22.238,2.026 -21.989,2.176 -21.746,2.347C-21.505,2.523 -21.222,2.666 -20.946,2.826C-20.674,2.989 -20.371,3.123 -20.063,3.265C-19.458,3.551 -18.789,3.781 -18.096,3.978C-17.752,4.084 -17.39,4.149 -17.034,4.235C-16.67,4.299 -16.303,4.367 -15.933,4.417C-15.186,4.504 -14.433,4.567 -13.678,4.571C-12.922,4.583 -12.163,4.538 -11.427,4.484C-10.685,4.408 -9.964,4.323 -9.267,4.202C-8.572,4.086 -7.906,3.938 -7.278,3.798C-6.652,3.645 -6.062,3.491 -5.523,3.328C-4.453,3.01 -3.581,2.697 -2.991,2.46C-2.699,2.345 -2.47,2.251 -2.331,2.189C-2.199,2.126 -2.133,2.092 -2.133,2.092C-0.488,1.315 1.539,2.059 2.396,3.756C3.25,5.451 2.612,7.459 0.966,8.237C0.697,8.362 0.418,8.45 0.137,8.498L0,8.521Z" style="fill:rgb(12,3,6);fill-rule:nonzero;"/>
            </g>
        </g>
        <g transform="matrix(4.166667,0,0,4.166667,0,0)">
            <g transform="matrix(1,0,0,1,1975.4883,2051.3493)">
                <path d="M0,3.765C0,3.765 -0.026,3.782 -0.078,3.811C-0.15,3.853 -0.253,3.913 -0.354,3.967C-0.57,4.086 -0.868,4.235 -1.251,4.414C-2.014,4.762 -3.096,5.213 -4.439,5.604C-5.111,5.807 -5.852,5.98 -6.633,6.139C-7.429,6.279 -8.266,6.412 -9.146,6.467C-9.583,6.509 -10.037,6.504 -10.486,6.522C-10.947,6.509 -11.399,6.519 -11.865,6.473C-12.792,6.425 -13.73,6.258 -14.65,6.066C-15.568,5.836 -16.473,5.564 -17.315,5.197C-17.526,5.104 -17.738,5.014 -17.947,4.924C-18.151,4.825 -18.354,4.718 -18.552,4.616C-18.749,4.511 -18.948,4.416 -19.141,4.304C-19.325,4.189 -19.514,4.077 -19.698,3.961C-20.07,3.746 -20.411,3.494 -20.742,3.25C-20.907,3.125 -21.079,3.014 -21.233,2.889C-21.387,2.757 -21.537,2.632 -21.687,2.506C-21.986,2.26 -22.273,2.018 -22.529,1.754C-22.785,1.503 -23.043,1.268 -23.271,1.021C-23.712,0.522 -24.134,0.086 -24.451,-0.346C-24.779,-0.77 -25.072,-1.126 -25.281,-1.447C-25.706,-2.074 -25.952,-2.431 -25.952,-2.431C-25.952,-2.431 -25.631,-2.141 -25.072,-1.635C-24.804,-1.375 -24.435,-1.1 -24.031,-0.774C-23.638,-0.44 -23.139,-0.129 -22.629,0.233C-22.369,0.409 -22.079,0.565 -21.792,0.737C-21.51,0.916 -21.201,1.073 -20.883,1.226C-20.728,1.305 -20.566,1.384 -20.407,1.464C-20.246,1.541 -20.075,1.604 -19.906,1.673C-19.568,1.813 -19.23,1.957 -18.871,2.059C-18.695,2.116 -18.518,2.174 -18.339,2.233C-18.159,2.286 -17.972,2.323 -17.788,2.369C-17.604,2.411 -17.424,2.463 -17.236,2.498C-17.053,2.53 -16.867,2.561 -16.678,2.59C-15.928,2.715 -15.166,2.747 -14.424,2.747C-13.676,2.713 -12.938,2.66 -12.225,2.513C-11.868,2.458 -11.521,2.354 -11.18,2.279C-10.84,2.174 -10.507,2.095 -10.186,1.974C-9.535,1.763 -8.927,1.489 -8.363,1.228C-7.805,0.95 -7.284,0.678 -6.822,0.39C-5.895,-0.173 -5.186,-0.724 -4.721,-1.107C-4.49,-1.303 -4.316,-1.46 -4.219,-1.558C-4.158,-1.613 -4.143,-1.637 -4.134,-1.652C-4.12,-1.669 -4.084,-1.7 -4.091,-1.694C-2.646,-2.757 -0.559,-2.396 0.57,-0.891C1.7,0.618 1.447,2.702 0,3.765" style="fill:rgb(12,3,6);fill-rule:nonzero;"/>
            </g>
        </g>
        <g transform="matrix(4.166667,0,0,4.166667,0,0)">
            <g transform="matrix(0.015317,-0.999883,-0.999883,-0.015317,1991.772222,2083.446142)">
                <path d="M-47.325,-46.608C-54.282,-46.75 -59.921,-25.674 -59.921,0.468C-59.92,26.606 -54.281,47.915 -47.325,48.057C-40.369,48.198 -34.731,27.124 -34.731,0.986C-34.731,-25.159 -40.371,-46.461 -47.325,-46.608" style="fill:rgb(255,133,156);fill-rule:nonzero;"/>
            </g>
        </g>
        <g transform="matrix(4.166667,0,0,4.166667,0,0)">
            <g transform="matrix(0.015349,-0.999882,-0.999882,-0.015349,2366.069629,2091.256688)">
                <path d="M-47.324,-46.608C-54.279,-46.753 -59.921,-25.676 -59.918,0.465C-59.92,26.607 -54.28,47.912 -47.324,48.056C-40.368,48.201 -34.731,27.122 -34.729,0.983C-34.731,-25.161 -40.367,-46.467 -47.324,-46.608" style="fill:rgb(255,133,156);fill-rule:nonzero;"/>
            </g>
        </g>
        <g transform="matrix(4.166667,0,0,4.166667,0,0)">
            <g transform="matrix(1,0,0,1,2602.2715,2317.5589)">
                <path d="M0,84.154L-826.275,84.154C-844.013,84.154 -858.392,65.316 -858.392,42.078C-858.392,18.838 -844.013,0 -826.275,0L0,0C17.736,0 32.116,18.838 32.116,42.078C32.116,65.316 17.736,84.154 0,84.154" style="fill:rgb(221,169,107);fill-rule:nonzero;"/>
            </g>
        </g>
    </g>
</svg>
