<?xml version="1.0" encoding="UTF-8" standalone="no"?>
<!DOCTYPE svg PUBLIC "-//W3C//DTD SVG 1.1//EN" "http://www.w3.org/Graphics/SVG/1.1/DTD/svg11.dtd">
<svg width="100%" height="100%" viewBox="0 0 3799 4825" version="1.1" xmlns="http://www.w3.org/2000/svg" xmlns:xlink="http://www.w3.org/1999/xlink" xml:space="preserve" xmlns:serif="http://www.serif.com/" style="fill-rule:evenodd;clip-rule:evenodd;stroke-linejoin:round;stroke-miterlimit:2;">
    <g transform="matrix(1,0,0,1,-1523.382917,-2060.2825)">
        <g transform="matrix(4.166667,0,0,4.166667,0,0)">
            <g opacity="0.3">
                <g transform="matrix(1,0,0,1,1245.043,1568.1819)">
                    <path d="M0,84.154L-826.276,84.154C-844.013,84.154 -858.392,65.316 -858.392,42.078C-858.392,18.838 -844.013,0 -826.276,0L0,0C17.736,0 32.115,18.838 32.115,42.078C32.115,65.316 17.736,84.154 0,84.154" style="fill:rgb(206,110,77);fill-rule:nonzero;"/>
                </g>
            </g>
        </g>
        <g transform="matrix(4.166667,0,0,4.166667,0,0)">
            <g opacity="0.3">
                <g transform="matrix(1,0,0,1,1148.7266,987.8056)">
                    <path d="M0,109.334L-107.412,109.334C-88.162,93.45 -69.405,73.969 -53.309,50.172C28.35,-70.554 39.346,-194.147 32.479,-245.669C-16.51,-231.154 -59.788,-211.737 -101.888,-178.293C-104.504,-237.711 -117.188,-284.483 -128.762,-309.875C-150.649,-295.434 -170.722,-280.193 -189.209,-262.8C-214.915,-364.104 -259.34,-437.761 -288.96,-471.042C-343.622,-404.544 -381.57,-336.128 -398.73,-235.77C-427.321,-261.447 -458.33,-280.685 -493.028,-297.705C-500.606,-273.249 -506.83,-230.821 -503.99,-178.209C-538.197,-200.77 -573.739,-215.524 -612.936,-227.138C-619.803,-175.617 -608.806,-52.023 -527.145,68.703C-516.826,83.959 -505.41,97.435 -493.476,109.334L-599.221,109.334C-742.393,109.334 -657.554,351.356 -612.47,426.831C-562.097,512.721 -493.162,580.376 -426.873,580.376L-172.352,580.376C-103.404,580.376 -37.125,512.721 13.258,426.831C58.332,351.356 145.826,109.334 0,109.334" style="fill:rgb(206,110,77);fill-rule:nonzero;"/>
                </g>
            </g>
        </g>
        <g transform="matrix(4.166667,0,0,4.166667,0,0)">
            <g transform="matrix(1,0,0,1,981.1494,1135.5602)">
                <path d="M0,-479.924C-79.132,-427.716 -134.563,-365.108 -176.972,-227.806C-212.714,-112.083 -159.146,-7.455 -159.146,-7.455L-147.076,-3.728L-135.017,0C-135.017,0 -31.768,-56.195 3.974,-171.921C46.987,-311.18 21.558,-432.627 0,-479.924" style="fill:rgb(52,168,83);fill-rule:nonzero;"/>
            </g>
        </g>
        <g transform="matrix(4.166667,0,0,4.166667,0,0)">
            <g transform="matrix(0.962631,0.270817,0.270817,-0.962631,784.322363,1103.581076)">
                <path d="M68.161,-14.045C68.161,-14.045 152.333,68.011 155.398,189.093C159.091,334.797 101.721,444.818 68.161,484.51L55.542,-13.722L68.161,-14.045Z" style="fill:rgb(29,135,53);fill-rule:nonzero;"/>
            </g>
        </g>
        <g transform="matrix(4.166667,0,0,4.166667,0,0)">
            <g transform="matrix(1,0,0,1,1142.3906,1139.7403)">
                <path d="M0,-419.898C-90.898,-392.966 -162.144,-349.189 -242.656,-230.159C-310.515,-129.836 -289.698,-14.151 -289.698,-14.151L-279.233,-7.072L-268.779,0C-268.779,0 -153.648,-23.732 -85.789,-124.057C-4.13,-244.784 6.865,-368.376 0,-419.898" style="fill:rgb(52,168,83);fill-rule:nonzero;"/>
            </g>
        </g>
        <g transform="matrix(4.166667,0,0,4.166667,0,0)">
            <g transform="matrix(0.842231,0.539117,0.539117,-0.842231,781.343737,1035.132823)">
                <path d="M134.106,-38.361C134.106,-38.361 218.279,43.697 221.345,164.777C225.035,310.48 167.666,420.502 134.106,460.193L121.489,-38.04L134.106,-38.361Z" style="fill:rgb(29,135,53);fill-rule:nonzero;"/>
            </g>
        </g>
        <g transform="matrix(4.166667,0,0,4.166667,0,0)">
            <g transform="matrix(1,0,0,1,651.9941,820.7177)">
                <path d="M0,153.109C50.128,263.369 159.666,306.021 159.666,306.021L171.155,300.795L182.657,295.565C182.657,295.565 222.527,184.992 172.4,74.733C112.925,-56.084 50.003,-111.159 -35.111,-152.912C-50.497,-103.264 -60.323,20.427 0,153.109" style="fill:rgb(29,135,53);fill-rule:nonzero;"/>
            </g>
        </g>
        <g transform="matrix(4.166667,0,0,4.166667,0,0)">
            <g transform="matrix(0.920525,-0.390683,-0.390683,-0.920525,893.023564,1067.773374)">
                <path d="M-97.934,-22.492C-97.934,-22.492 -182.103,59.565 -185.17,180.646C-188.863,326.351 -131.494,436.372 -97.934,476.064L-85.316,-22.17L-97.934,-22.492Z" style="fill:rgb(52,168,83);fill-rule:nonzero;"/>
            </g>
        </g>
        <g transform="matrix(4.166667,0,0,4.166667,0,0)">
            <g transform="matrix(1,0,0,1,582.7661,862.4309)">
                <path d="M0,171.783C67.858,272.107 182.988,295.84 182.988,295.84L193.442,288.768L203.907,281.687C203.907,281.687 224.724,166.004 156.866,65.681C76.352,-53.349 5.106,-97.126 -85.791,-124.057C-92.658,-72.537 -81.662,51.057 0,171.783" style="fill:rgb(29,135,53);fill-rule:nonzero;"/>
            </g>
        </g>
        <g transform="matrix(4.166667,0,0,4.166667,0,0)">
            <g transform="matrix(0.84223,-0.539118,-0.539118,-0.84223,858.021228,1053.662689)">
                <path d="M-134.107,-38.361C-134.107,-38.361 -218.277,43.695 -221.343,164.775C-225.035,310.479 -167.665,420.503 -134.107,460.192L-121.489,-38.041L-134.107,-38.361Z" style="fill:rgb(52,168,83);fill-rule:nonzero;"/>
            </g>
        </g>
        <g transform="matrix(4.166667,0,0,4.166667,0,0)">
            <g transform="matrix(1,0,0,1,820.9512,1126.7393)">
                <path d="M0,-632.271C-76.374,-539.361 -120.127,-442.721 -120.127,-260.421C-120.127,-106.769 -16.029,0 -16.029,0L16.014,0C16.014,0 120.123,-106.769 120.123,-260.421C120.123,-445.323 43.839,-583.012 0,-632.271" style="fill:rgb(52,168,83);fill-rule:nonzero;"/>
            </g>
        </g>
        <g transform="matrix(4.166667,0,0,4.166667,0,0)">
            <g transform="matrix(0.999679,-0.02532,-0.02532,-0.999679,844.983354,1127.752715)">
                <path d="M-7.99,1.217C-7.99,1.217 98.789,105.314 102.679,258.917C107.361,443.761 34.587,583.337 -7.99,633.69L-23.999,1.622L-7.99,1.217Z" style="fill:rgb(29,135,53);fill-rule:nonzero;"/>
            </g>
        </g>
        <g transform="matrix(4.166667,0,0,4.166667,0,0)">
            <g transform="matrix(1,0,0,1,1109.9111,1545.8867)">
                <path d="M0,-471.042L-599.222,-471.042C-742.393,-471.042 -657.555,-229.02 -612.471,-153.545C-562.097,-67.654 -493.162,0 -426.873,0L-172.353,0C-103.405,0 -37.126,-67.654 13.258,-153.545C58.331,-229.02 145.825,-471.042 0,-471.042" style="fill:rgb(239,240,242);fill-rule:nonzero;"/>
            </g>
        </g>
        <g transform="matrix(4.166667,0,0,4.166667,0,0)">
            <g transform="matrix(-0.052408,-0.998626,-0.998626,0.052408,667.856999,1211.627431)">
                <path d="M-44.017,-46.39C-68.362,-46.39 -88.096,-26.657 -88.097,-2.311C-88.097,22.031 -68.366,41.765 -44.017,41.765C-19.677,41.767 0.061,22.034 0.061,-2.31C0.061,-26.654 -19.671,-46.387 -44.017,-46.39" style="fill-rule:nonzero;"/>
            </g>
        </g>
        <g transform="matrix(4.166667,0,0,4.166667,0,0)">
            <g transform="matrix(-0.052475,-0.998622,-0.998622,0.052475,941.468873,1197.258194)">
                <path d="M-44.018,-46.391C-68.361,-46.391 -88.096,-26.655 -88.098,-2.312C-88.093,22.03 -68.357,41.767 -44.018,41.766C-19.672,41.766 0.06,22.034 0.06,-2.315C0.058,-26.658 -19.679,-46.393 -44.018,-46.391" style="fill-rule:nonzero;"/>
            </g>
        </g>
        <g transform="matrix(4.166667,0,0,4.166667,0,0)">
            <g transform="matrix(-0.052274,-0.998633,-0.998633,0.052274,652.943951,1231.987224)">
                <path d="M-12.226,-12.884C-18.984,-12.887 -24.469,-7.406 -24.468,-0.645C-24.475,6.12 -18.99,11.601 -12.226,11.602C-5.464,11.605 0.017,6.125 0.022,-0.641C0.022,-7.402 -5.459,-12.884 -12.226,-12.884" style="fill:rgb(254,254,254);fill-rule:nonzero;"/>
            </g>
        </g>
        <g transform="matrix(4.166667,0,0,4.166667,0,0)">
            <g transform="matrix(-0.052475,-0.998622,-0.998622,0.052475,931.934571,1217.333788)">
                <path d="M-12.227,-12.887C-18.988,-12.885 -24.472,-7.405 -24.468,-0.644C-24.473,6.119 -18.986,11.602 -12.227,11.601C-5.463,11.599 0.022,6.117 0.021,-0.648C0.019,-7.409 -5.465,-12.888 -12.227,-12.887" style="fill:rgb(254,254,254);fill-rule:nonzero;"/>
            </g>
        </g>
        <g transform="matrix(4.166667,0,0,4.166667,0,0)">
            <g transform="matrix(1,0,0,1,902.6807,1398.8871)">
                <path d="M0,-75.391C11.976,-52.94 -2.169,-25.485 -16.324,-15.889C-66.204,15.672 -118.567,18.42 -171.485,-7.737C-186.565,-15.805 -203.504,-41.62 -193.949,-65.205C-186.02,-83.428 -167.984,-86.464 -154.456,-79.218C-115.228,-60.326 -77.774,-62.289 -40.741,-85.191C-28.046,-93.811 -9.793,-92.686 0,-75.391" style="fill:rgb(12,3,6);fill-rule:nonzero;"/>
            </g>
        </g>
        <g transform="matrix(4.166667,0,0,4.166667,0,0)">
            <g transform="matrix(1,0,0,1,854.2793,1396.3465)">
                <path d="M0,-31.577C5.666,-22.37 -1.22,-11.011 -8.042,-7.006C-32.088,6.17 -57.221,7.492 -82.517,-3.095C-89.722,-6.364 -97.757,-16.939 -93.09,-26.684C-89.219,-34.226 -80.553,-35.537 -74.091,-32.602C-55.336,-24.958 -37.362,-25.899 -19.513,-35.47C-13.391,-39.069 -4.638,-38.669 0,-31.577" style="fill:rgb(251,106,109);fill-rule:nonzero;"/>
            </g>
        </g>
        <g transform="matrix(4.166667,0,0,4.166667,0,0)">
            <g transform="matrix(-0.052453,-0.998623,-0.998623,0.052453,639.541196,1303.643355)">
                <path d="M-40.106,-42.269C-50.117,-42.267 -58.227,-24.29 -58.229,-2.108C-58.23,20.072 -50.111,38.051 -40.106,38.05C-30.097,38.052 -21.985,20.071 -21.986,-2.108C-21.984,-24.29 -30.1,-42.269 -40.106,-42.269" style="fill:rgb(251,106,109);fill-rule:nonzero;"/>
            </g>
        </g>
        <g transform="matrix(4.166667,0,0,4.166667,0,0)">
            <g transform="matrix(-0.052453,-0.998623,-0.998623,0.052453,967.232771,1286.432696)">
                <path d="M-40.107,-42.265C-50.116,-42.265 -58.228,-24.283 -58.226,-2.105C-58.229,20.075 -50.113,38.057 -40.107,38.055C-30.097,38.056 -21.983,20.075 -21.986,-2.106C-21.981,-24.283 -30.097,-42.267 -40.107,-42.265" style="fill:rgb(251,106,109);fill-rule:nonzero;"/>
            </g>
        </g>
        <g transform="matrix(4.166667,0,0,4.166667,0,0)">
            <g transform="matrix(1,0,0,1,1224.0039,1536.6253)">
                <path d="M0,84.154L-826.276,84.154C-844.013,84.154 -858.392,65.316 -858.392,42.076C-858.392,18.838 -844.013,0 -826.276,0L0,0C17.737,0 32.115,18.838 32.115,42.076C32.115,65.316 17.737,84.154 0,84.154" style="fill:rgb(221,169,107);fill-rule:nonzero;"/>
            </g>
        </g>
    </g>
</svg>
