<svg enable-background="new 0 0 841.89 595.28" viewBox="0 0 841.89 595.28" xmlns="http://www.w3.org/2000/svg" xmlns:xlink="http://www.w3.org/1999/xlink"><linearGradient id="a" gradientTransform="matrix(.6966 -.7174 -.7174 -.6966 387.42 926.07)" gradientUnits="userSpaceOnUse" x1="365.16" x2="391.85" y1="533.91" y2="533.91"><stop offset="0" stop-color="#f4d3bf"/><stop offset=".4896" stop-color="#f0c6aa"/><stop offset=".5056" stop-color="#f0c5a9"/><stop offset="1" stop-color="#edb198"/></linearGradient><linearGradient id="b"><stop offset="0" stop-color="#f6b597"/><stop offset=".3521" stop-color="#f7c0a6"/><stop offset=".9944" stop-color="#fbdccc"/></linearGradient><linearGradient id="c" gradientTransform="matrix(.9959 -.0908 .0908 .9959 266.11 26.307)" gradientUnits="userSpaceOnUse" x1="146" x2="163.74" xlink:href="#b" y1="272.29" y2="272.29"/><linearGradient id="d" gradientTransform="matrix(.9959 -.0908 .0908 .9959 266.11 26.307)" gradientUnits="userSpaceOnUse" x1="158.27" x2="166.27" xlink:href="#b" y1="275.1" y2="275.1"/><linearGradient id="e" gradientTransform="matrix(.9959 -.0908 .0908 .9959 266.11 26.307)" gradientUnits="userSpaceOnUse" x1="170.26" x2="179.64" xlink:href="#b" y1="271.51" y2="271.51"/><linearGradient id="f" gradientTransform="matrix(.9959 -.0908 .0908 .9959 266.11 26.307)" gradientUnits="userSpaceOnUse" x1="165.95" x2="174.35" xlink:href="#b" y1="271.63" y2="271.63"/><path d="m621.33 378c-218.08-22.81-398.13-4.68-434.67-.47v86.89h434.67z" fill="#cfd3ae"/><path d="m567.46 449.58c-16.23-3.96-51.3-3.57-40.91-5.52s35.06-2.41 14.93-6.79c-16.71-3.64-269.42-4.14-354.82-4.21v22.7c110.67.04 318.55.22 339.89.97 29.22 1.01 57.14-3.19 40.91-7.15z" fill="#97a469"/><path d="m461.9 427.39c-16.23-3.96-51.3-3.57-40.91-5.52s35.06-2.41 14.93-6.79c-11.91-2.59-143.62-3.59-249.26-3.98v22.54c103.95.11 218.76.35 234.33.89 29.22 1.03 57.14-3.18 40.91-7.14z" fill="#97a469" opacity=".5"/><path d="m621.33 418.01c-49.37-.56-201.38-2.1-207.64 2.93-7.44 5.98 12.23 3.13 21.85 7.53s-119.35-3.94-112.42 6.26c6.92 10.21 80.97.12 96.36 4.31 15.38 4.2-25.33 3.59-15.22 6.59 8.95 2.66 178.17 4.77 217.07 5.22z" fill="#6a912d" opacity=".4"/><path d="m200.12 431.76c9.62-4.4 29.29-1.55 21.85-7.53-1.85-1.48-15.62-2.22-35.31-2.48v29.43c24.34-.68 42.01-1.44 44.74-2.25 10.12-3-30.6-2.4-15.22-6.59 15.38-4.2 89.43 5.89 96.36-4.31 6.93-10.21-122.04-1.87-112.42-6.27z" fill="#6a912d" opacity=".4"/><path d="m230.28 410.98s-.72-21.42-.99-42.84c-.07-5.36-.1-10.71-.1-15.73-.01-2.51.03-4.94.05-7.24.01-2.3.09-4.48.12-6.49.04-2.01.15-3.85.21-5.48.07-1.63.22-3.05.29-4.22s.28-2.08.34-2.7c.09-.62.14-.95.14-.95s-.03.33-.1.96c-.04.63-.2 1.53-.22 2.7s-.1 2.59-.1 4.22c.02 1.63-.01 3.47.05 5.47.06 2.01.08 4.18.18 6.47.09 2.3.16 4.72.29 7.22.23 5.01.51 10.35.83 15.69 1.26 21.36 2.98 42.68 2.98 42.68z" fill="#7b6a58"/><path d="m238.45 409.17s-.05-.27-.15-.78c-.04-.31-.1-.7-.16-1.15-.06-.46-.13-1-.16-1.45-.17-1.96-.36-4.74-.48-8.07-.08-1.67-.09-3.47-.14-5.38-.01-1.91-.02-3.92 0-6 .06-2.08.06-4.23.19-6.41.09-2.18.2-4.39.4-6.6.09-1.1.15-2.21.27-3.31s.24-2.19.36-3.27c.2-2.17.59-4.29.89-6.34.14-1.03.34-2.03.55-3.01.2-.98.39-1.94.58-2.87.38-1.86.92-3.59 1.33-5.2.19-.81.46-1.56.71-2.27s.49-1.39.71-2.03c.23-.63.41-1.24.64-1.77.24-.53.47-1.02.67-1.46.81-1.75 1.27-2.75 1.27-2.75s-.4 1.03-1.11 2.82c-.18.45-.37.94-.58 1.48-.2.54-.34 1.16-.54 1.8-.18.64-.38 1.33-.59 2.05s-.43 1.48-.58 2.29c-.31 1.62-.75 3.35-1.02 5.21-.13.93-.27 1.89-.41 2.87-.15.98-.29 1.98-.37 3-.18 2.05-.44 4.15-.52 6.32-.06 1.08-.12 2.16-.18 3.25s-.05 2.19-.08 3.28c-.07 2.19-.05 4.38-.02 6.54-.01 2.16.12 4.28.17 6.33.09 2.05.22 4.03.33 5.91.16 1.88.26 3.65.44 5.28.3 3.27.64 5.97.91 7.84.06.5.13.82.17 1.1.04.29.08.53.1.73.13.5.19.76.19.76z" fill="#7b6a58"/><path d="m246.62 408.2s.01-.23.03-.67c.02-.46.06-1.1.12-1.9.13-1.61.36-3.89.79-6.6.19-1.36.47-2.81.77-4.35.29-1.54.68-3.14 1.06-4.81.46-1.64.84-3.36 1.4-5.06.53-1.71 1.06-3.44 1.71-5.14.31-.85.61-1.71.94-2.55.35-.83.7-1.66 1.05-2.48.66-1.66 1.45-3.23 2.19-4.75.71-1.54 1.54-2.96 2.3-4.31.38-.67.75-1.33 1.11-1.97.4-.61.78-1.2 1.15-1.77.75-1.13 1.4-2.18 2.04-3.07.67-.87 1.24-1.63 1.72-2.26.95-1.25 1.5-1.96 1.5-1.96s-.49.75-1.36 2.06c-.43.66-.95 1.45-1.55 2.36-.57.93-1.15 2.02-1.81 3.19-.33.58-.67 1.2-1.02 1.83-.31.65-.63 1.33-.96 2.02-.66 1.38-1.38 2.83-1.97 4.4-.63 1.55-1.3 3.14-1.83 4.81-.28.83-.57 1.66-.85 2.5-.26.85-.49 1.71-.74 2.56-.52 1.7-.92 3.43-1.32 5.13-.43 1.69-.69 3.4-1.02 5.02-.25 1.64-.53 3.22-.71 4.73s-.35 2.94-.45 4.26c-.23 2.64-.29 4.84-.31 6.37-.01.77 0 1.36.01 1.75.01.41.02.63.02.63z" fill="#7b6a58"/><path d="m256.87 448.82-32.61.16-4.5-44.04 41.19-.2z" fill="#43342b"/><path d="m261.99 419.39 1.51-16.25-46.31.22 1.67 16.24z" fill="#684f37"/><path d="m223.92 445.66.34 3.32 32.6-.16 1.86-20.11c-6.61 11.51-20.77 16.79-34.8 16.95z" fill="#1d1d1c"/><path d="m263.32 393.92s-.59 1.41-1.67 3.08c-.53.84-1.23 1.69-2 2.48-.39.39-.8.76-1.23 1.08-.45.31-.91.58-1.39.79-.96.41-1.81.67-2.6.73-.8.06-1.49-.02-2.06-.21-1.15-.37-1.83-1.16-2.12-2.06-.25-.79-.16-1.85.4-2.85.28-.5.68-.99 1.21-1.42s1.22-.91 2.09-1.28c.43-.19.9-.33 1.38-.45.48-.13.98-.24 1.48-.31 1.01-.15 2.05-.16 2.98-.17 1.86.02 3.37.3 3.53.59z" fill="#b0cc7e"/><path d="m263.31 393.91.01.01s-.59 1.41-1.67 3.08c-.53.84-1.23 1.69-2 2.48-.39.39-.8.76-1.23 1.08-.44.31-.91.58-1.39.79-.96.41-1.81.67-2.6.73-.8.06-1.49-.02-2.06-.21-1.15-.37-1.84-1.16-2.12-2.06-.03-.09-.05-.18-.07-.27.81-.53 1.72-1.04 2.71-1.53.98-.51 2.03-1.07 3.16-1.54 1.33-.6 2.62-1.15 3.86-1.56 1.21-.46 2.36-.79 3.4-1z" fill="none"/><path d="m263.31 393.91.01.01s-.59 1.41-1.67 3.08c-.53.84-1.23 1.69-2 2.48-.39.39-.8.76-1.23 1.08-.44.31-.91.58-1.39.79-.96.41-1.81.67-2.6.73-.8.06-1.49-.02-2.06-.21-1.15-.37-1.84-1.16-2.12-2.06-.03-.09-.05-.18-.07-.27.81-.53 1.72-1.04 2.71-1.53.98-.51 2.03-1.07 3.16-1.54 1.33-.6 2.62-1.15 3.86-1.56 1.21-.46 2.36-.79 3.4-1z" fill="#a6bc72"/><path d="m244.65 377.12s.29.25.75.64c.47.37 1.14.81 1.87 1.29.77.5 1.58 1.02 2.4 1.76.4.37.79.77 1.15 1.29.18.27.35.53.51.82.14.29.28.63.38.9.65 2.04.5 3.08.14 3.89-.11.2-.22.39-.33.58-.12.2-.25.33-.37.55-.25.4-.46.86-.74 1.23-.25.33-.59.62-1.13.7-.25.04-.61.02-.91-.06-.3-.07-.62-.19-.97-.39-1.3-.73-2.4-2.33-2.94-4.03-.33-1.09-.9-3.49-.88-5.56.01-1.05.17-1.98.41-2.62s.5-.97.66-.99z" fill="#b0cc7e"/><path d="m244.64 377.12h.02s.29.25.75.64c.47.37 1.14.81 1.87 1.29.77.5 1.58 1.02 2.4 1.76.4.37.79.77 1.15 1.29.18.27.35.53.51.82.14.29.28.63.38.9.65 2.04.5 3.08.14 3.89-.11.2-.22.39-.33.58-.12.2-.25.33-.37.55-.25.4-.46.86-.74 1.23-.06.07-.11.14-.18.21-1.94-1.17-2.58-3.78-3.44-5.8-.56-1.24-1.21-2.51-1.64-3.78-.46-1.25-.67-2.53-.52-3.58z" fill="none"/><path d="m244.64 377.12h.02s.29.25.75.64c.47.37 1.14.81 1.87 1.29.77.5 1.58 1.02 2.4 1.76.4.37.79.77 1.15 1.29.18.27.35.53.51.82.14.29.28.63.38.9.65 2.04.5 3.08.14 3.89-.11.2-.22.39-.33.58-.12.2-.25.33-.37.55-.25.4-.46.86-.74 1.23-.06.07-.11.14-.18.21-1.94-1.17-2.58-3.78-3.44-5.8-.56-1.24-1.21-2.51-1.64-3.78-.46-1.25-.67-2.53-.52-3.58z" fill="#a6bc72"/><path d="m266.27 370.87s-.55 1.2-1.57 2.61c-.51.71-1.13 1.46-1.84 2.14-.35.34-.73.66-1.12.94-.38.26-.77.48-1.17.64-3.2 1.33-5.25.25-5.91-1.28-.59-1.35.01-3.65 3.27-5.01.41-.17.84-.3 1.29-.41.42-.11.86-.19 1.3-.24.88-.11 1.79-.12 2.61-.07 1.65.11 3 .42 3.14.68z" fill="#b0cc7e"/><path d="m266.26 370.85.01.01s-.55 1.2-1.57 2.61c-.51.71-1.13 1.47-1.84 2.14-.35.34-.73.66-1.12.94-.38.26-.77.48-1.17.65-3.2 1.33-5.25.25-5.91-1.28-.03-.08-.06-.15-.09-.23 1.38-.99 3.17-1.97 5.2-2.82 2.37-1.04 4.62-1.74 6.49-2.02z" fill="none"/><path d="m266.26 370.85.01.01s-.55 1.2-1.57 2.61c-.51.71-1.13 1.47-1.84 2.14-.35.34-.73.66-1.12.94-.38.26-.77.48-1.17.65-3.2 1.33-5.25.25-5.91-1.28-.03-.08-.06-.15-.09-.23 1.38-.99 3.17-1.97 5.2-2.82 2.37-1.04 4.62-1.74 6.49-2.02z" fill="#a6bc72"/><path d="m258.25 355.69s.6.75 1.19 1.84c.28.57.61 1.14.86 1.68.12.28.22.55.3.83.07.26.09.1.16.36.26.73.56 1.96.3 2.87-.12.45-.35.79-.63.99-.27.2-.57.26-.87.26-.26 0-.55-.06-.84-.14-.28-.07-.56-.15-.83-.26-.27-.1-.54-.25-.83-.55-.3-.33-.63-.78-.92-1.6-.11-.34-.32-1.11-.21-1.5.04-.37.11-.74.2-1.1.17-.73.42-1.39.72-1.88.56-1.05 1.19-1.8 1.4-1.8z" fill="#b0cc7e"/><path d="m258.23 355.69h.01s.6.75 1.19 1.84c.28.57.61 1.14.86 1.68.12.28.22.55.3.83.07.26.09.1.16.36.26.73.56 1.96.3 2.87-.11.45-.35.79-.63.99-.27.2-.57.26-.87.26-.06 0-.12 0-.18-.01-.14-.55-.44-1.06-.8-1.66-.35-.61-.75-1.26-.94-2.22-.02-1.01-.01-1.92.1-2.75.13-.81.3-1.55.5-2.19z" fill="none"/><path d="m258.23 355.69h.01s.6.75 1.19 1.84c.28.57.61 1.14.86 1.68.12.28.22.55.3.83.07.26.09.1.16.36.26.73.56 1.96.3 2.87-.11.45-.35.79-.63.99-.27.2-.57.26-.87.26-.06 0-.12 0-.18-.01-.14-.55-.44-1.06-.8-1.66-.35-.61-.75-1.26-.94-2.22-.02-1.01-.01-1.92.1-2.75.13-.81.3-1.55.5-2.19z" fill="#a6bc72"/><path d="m273.48 351.08-.44.44c-.13.13-.27.28-.44.45-.16.17-.31.4-.47.6-.65.83-1.2 1.84-2.15 2.52-.94.66-1.9.97-2.66.9-.77-.07-1.27-.46-1.54-.97-.24-.45-.3-1.09-.12-1.72.19-.64.61-1.35 1.64-2.07 1-.73 2.72-1.18 4.04-1.03.33.04.63.07.89.15.27.09.5.19.68.28.38.18.57.35.57.45z" fill="#b0cc7e"/><path d="m273.48 351.07v.01l-.44.44c-.13.13-.27.28-.44.45-.16.17-.31.4-.47.6-.65.83-1.2 1.84-2.15 2.52-.94.66-1.9.97-2.66.9-.77-.07-1.27-.46-1.54-.97-.03-.05-.05-.1-.07-.16.86-.76 1.84-1.71 3.13-2.58.38-.26.8-.47 1.18-.68.42-.17.82-.34 1.23-.45.42-.07.81-.17 1.19-.17.38.02.73.05 1.04.09z" fill="none"/><path d="m273.48 351.07v.01l-.44.44c-.13.13-.27.28-.44.45-.16.17-.31.4-.47.6-.65.83-1.2 1.84-2.15 2.52-.94.66-1.9.97-2.66.9-.77-.07-1.27-.46-1.54-.97-.03-.05-.05-.1-.07-.16.86-.76 1.84-1.71 3.13-2.58.38-.26.8-.47 1.18-.68.42-.17.82-.34 1.23-.45.42-.07.81-.17 1.19-.17.38.02.73.05 1.04.09z" fill="#a6bc72"/><path d="m248.61 392.95s-.43 1-1.08 2.13c-.33.54-.68 1.21-1.09 1.76-.21.28-.43.55-.66.79-.23.26-.47.49-.72.67-1.05.74-1.95 1.06-2.75 1.05-.79-.01-1.45-.34-1.88-.83-.38-.44-.59-1.12-.42-1.92.17-.81.72-1.77 1.91-2.61.29-.21.61-.41.95-.58.35-.16.72-.29 1.08-.4.74-.21 1.46-.38 2.16-.39 1.38-.07 2.4.13 2.5.33z" fill="#b0cc7e"/><path d="m248.6 392.94.01.01s-.43 1-1.08 2.13c-.33.54-.68 1.21-1.09 1.76-.21.28-.43.55-.66.79-.23.26-.47.49-.72.67-1.05.74-1.95 1.06-2.75 1.05-.79-.01-1.45-.34-1.88-.83l-.12-.15c.4-.53.89-1.08 1.45-1.64.56-.55 1.23-1.06 1.93-1.58.85-.59 1.74-1.06 2.56-1.45.85-.35 1.65-.6 2.35-.76z" fill="none"/><path d="m248.6 392.94.01.01s-.43 1-1.08 2.13c-.33.54-.68 1.21-1.09 1.76-.21.28-.43.55-.66.79-.23.26-.47.49-.72.67-1.05.74-1.95 1.06-2.75 1.05-.79-.01-1.45-.34-1.88-.83l-.12-.15c.4-.53.89-1.08 1.45-1.64.56-.55 1.23-1.06 1.93-1.58.85-.59 1.74-1.06 2.56-1.45.85-.35 1.65-.6 2.35-.76z" fill="#a6bc72"/><path d="m226.2 382.72s.34-.13.94-.3c.3-.08.66-.18 1.08-.26.41-.07.87-.13 1.37-.17.51-.05 1.03-.05 1.57-.03s1.12.08 1.62.16c.26.04.51.09.77.15l.38.09.45.15c.62.21 1.12.5 1.61.82 1.73 1.25 2.28 2.25 2.47 3.15.04.22.08.46.09.69v.66c.01.47.02.96-.06 1.41-.07.4-.25.8-.64 1.13-.2.16-.45.31-.76.41-.28.1-.58.17-.93.19-1.4.12-3.07-.48-4.47-1.49-.32-.21-.63-.49-.9-.72l-.21-.2-.28-.25c-.19-.17-.37-.35-.54-.54-.36-.38-.66-.72-.95-1.08-.28-.37-.56-.73-.83-1.07-.26-.34-.5-.68-.72-1.01-.22-.3-.42-.59-.58-.85-.34-.49-.53-.89-.48-1.04z" fill="#b0cc7e"/><path d="m226.2 382.73v-.02s.34-.13.94-.3c.3-.08.66-.18 1.08-.26.41-.07.87-.13 1.37-.17.51-.05 1.03-.05 1.57-.03s1.12.08 1.62.16c.26.04.51.09.77.15l.38.09.45.15c.62.21 1.12.5 1.61.82 1.73 1.25 2.28 2.25 2.47 3.15.04.22.08.46.09.7v.66c.01.47.02.96-.06 1.41-.02.09-.04.17-.07.26-1.06 0-2.08-.49-3.07-1.02-.99-.54-1.94-1.22-2.89-1.81-.56-.32-1.18-.69-1.75-1.06s-1.12-.69-1.64-1.05c-.53-.32-1.03-.64-1.5-.97-.49-.26-.95-.56-1.37-.86z" fill="none"/><path d="m226.2 382.73v-.02s.34-.13.94-.3c.3-.08.66-.18 1.08-.26.41-.07.87-.13 1.37-.17.51-.05 1.03-.05 1.57-.03s1.12.08 1.62.16c.26.04.51.09.77.15l.38.09.45.15c.62.21 1.12.5 1.61.82 1.73 1.25 2.28 2.25 2.47 3.15.04.22.08.46.09.7v.66c.01.47.02.96-.06 1.41-.02.09-.04.17-.07.26-1.06 0-2.08-.49-3.07-1.02-.99-.54-1.94-1.22-2.89-1.81-.56-.32-1.18-.69-1.75-1.06s-1.12-.69-1.64-1.05c-.53-.32-1.03-.64-1.5-.97-.49-.26-.95-.56-1.37-.86z" fill="#a6bc72"/><path d="m249.75 369.23s-.7 1.42-1.63 2.94c-.12.19-.24.38-.36.58-.12.21-.24.43-.37.65-.25.43-.52.85-.81 1.25-.27.39-.63.79-.88 1.09-.08.13-.15.23-.25.33-.1.14-.21.26-.33.37-1.05 1.05-2.54 2.07-3.92 2.26-.36.06-.68.06-.97.03-.34-.03-.63-.12-.87-.25-.47-.25-.74-.64-.91-1.07-.15-.38-.23-.84-.32-1.28-.04-.22-.1-.43-.15-.63-.03-.24-.05-.48-.06-.7-.02-.2.01-.49.06-.75.04-.25.14-.54.28-.86.27-.6.73-1.34 1.58-2.19.23-.22.48-.43.74-.64.3-.21.62-.4.93-.59.57-.29 1.05-.43 1.59-.6.53-.16 1.06-.29 1.57-.39.26-.05.51-.09.76-.13.26-.02.52-.03.77-.04 2.02-.03 3.43.32 3.55.62z" fill="#b0cc7e"/><path d="m249.74 369.21.01.02s-.7 1.42-1.63 2.94c-.12.19-.24.38-.36.58-.12.21-.24.43-.37.65-.25.43-.52.85-.81 1.25-.27.39-.63.79-.88 1.09-.08.13-.15.23-.25.33-.1.14-.21.26-.33.37-1.05 1.05-2.54 2.07-3.92 2.26-.36.06-.68.06-.97.03-.34-.03-.63-.12-.87-.24-.47-.25-.74-.64-.91-1.07-.03-.08-.06-.17-.09-.26 1.29-1.07 2.18-3.15 4.28-4.88.33-.26.65-.48.96-.65l.93-.54c.61-.34 1.21-.66 1.8-.93 1.25-.46 2.41-.77 3.41-.95z" fill="none"/><path d="m249.74 369.21.01.02s-.7 1.42-1.63 2.94c-.12.19-.24.38-.36.58-.12.21-.24.43-.37.65-.25.43-.52.85-.81 1.25-.27.39-.63.79-.88 1.09-.08.13-.15.23-.25.33-.1.14-.21.26-.33.37-1.05 1.05-2.54 2.07-3.92 2.26-.36.06-.68.06-.97.03-.34-.03-.63-.12-.87-.24-.47-.25-.74-.64-.91-1.07-.03-.08-.06-.17-.09-.26 1.29-1.07 2.18-3.15 4.28-4.88.33-.26.65-.48.96-.65l.93-.54c.61-.34 1.21-.66 1.8-.93 1.25-.46 2.41-.77 3.41-.95z" fill="#a6bc72"/><path d="m235.02 350.8s.26.12.69.36c.43.23 1.01.59 1.61 1.04 1.22.9 2.55 2.18 3.15 3.42.6 1.25.72 2.22.59 3.04-.13.81-.55 1.52-1.12 1.96-.51.39-1.27.57-2.2.24-.91-.33-1.91-1.21-2.62-2.7s-.77-3.27-.68-4.69c.1-1.43.34-2.55.58-2.67z" fill="#b0cc7e"/><path d="m235.01 350.8.01-.01s.26.12.69.36c.43.23 1.01.59 1.61 1.04 1.22.9 2.55 2.18 3.15 3.42.6 1.25.72 2.22.59 3.04-.13.81-.55 1.52-1.12 1.96-.06.04-.11.08-.18.12-1.15-.96-2.22-2.5-3.01-4.26-.95-2.1-1.45-4.08-1.74-5.67z" fill="none"/><path d="m235.01 350.8.01-.01s.26.12.69.36c.43.23 1.01.59 1.61 1.04 1.22.9 2.55 2.18 3.15 3.42.6 1.25.72 2.22.59 3.04-.13.81-.55 1.52-1.12 1.96-.06.04-.11.08-.18.12-1.15-.96-2.22-2.5-3.01-4.26-.95-2.1-1.45-4.08-1.74-5.67z" fill="#a6bc72"/><path d="m251.23 345.03s-.54.86-1.24 1.77c-.34.43-.76 1.01-1.22 1.46-.23.23-.47.45-.72.64-.27.2-.56.38-.86.51-.61.27-1.11.44-1.64.49-.54.04-1 0-1.37-.12-.74-.24-1.14-.75-1.28-1.33-.13-.51-.03-1.18.31-1.79.17-.31.4-.6.7-.85.31-.26.75-.58 1.28-.82.27-.12.55-.22.86-.3.32-.09.66-.16 1-.21.69-.09 1.31-.14 1.98-.08 1.27.12 2.14.43 2.2.63z" fill="#b0cc7e"/><path d="m251.23 345.02v.01s-.54.86-1.24 1.77c-.34.43-.76 1.01-1.22 1.46-.23.23-.47.45-.72.64-.27.2-.56.38-.86.51-.61.27-1.11.44-1.64.49-.54.05-1 0-1.37-.12-.75-.24-1.14-.75-1.29-1.32-.01-.06-.03-.11-.03-.17.52-.32 1.08-.63 1.7-.92.61-.32 1.26-.69 1.97-1.01.84-.39 1.68-.73 2.47-.97.82-.2 1.58-.32 2.23-.37z" fill="none"/><path d="m251.23 345.02v.01s-.54.86-1.24 1.77c-.34.43-.76 1.01-1.22 1.46-.23.23-.47.45-.72.64-.27.2-.56.38-.86.51-.61.27-1.11.44-1.64.49-.54.05-1 0-1.37-.12-.75-.24-1.14-.75-1.29-1.32-.01-.06-.03-.11-.03-.17.52-.32 1.08-.63 1.7-.92.61-.32 1.26-.69 1.97-1.01.84-.39 1.68-.73 2.47-.97.82-.2 1.58-.32 2.23-.37z" fill="#a6bc72"/><path d="m252.54 332.27s-.14.25-.36.63c-.1.18-.22.4-.36.64-.12.26-.25.54-.38.83-.53 1.15-1.07 2.51-1.81 3.38-.42.42-.7.76-1.09.99-.31.22-.65.38-1.01.47-.58.13-1.39.24-2.04.11-.58-.12-1.17-.56-1.33-1.65-.06-.47 0-1.04.2-1.69.23-.57.57-1.28 1.14-1.88 1.1-1.28 2.89-2.03 4.38-2.22.38-.05.72-.07 1.03-.08.33.02.62.06.86.11.46.12.73.25.77.36z" fill="#b0cc7e"/><path d="m252.53 332.26v.01s-.14.24-.36.63c-.1.18-.22.4-.36.64-.12.26-.25.54-.38.83-.53 1.15-1.07 2.51-1.81 3.38-.42.42-.7.75-1.09.99-.31.22-.65.38-1.01.47-.58.13-1.39.24-2.04.11-.07-.01-.13-.03-.19-.05.06-1.49.98-3.09 2.26-4.4 1.53-1.57 3.45-2.54 4.98-2.61z" fill="none"/><path d="m252.53 332.26v.01s-.14.24-.36.63c-.1.18-.22.4-.36.64-.12.26-.25.54-.38.83-.53 1.15-1.07 2.51-1.81 3.38-.42.42-.7.75-1.09.99-.31.22-.65.38-1.01.47-.58.13-1.39.24-2.04.11-.07-.01-.13-.03-.19-.05.06-1.49.98-3.09 2.26-4.4 1.53-1.57 3.45-2.54 4.98-2.61z" fill="#a6bc72"/><path d="m215.74 393.36s1.52-.92 3.75-1.56c2.22-.64 5.22-.98 7.73.15 2.48 1.07 4.07 2.97 4.46 4.62.1.42.14.79.11 1.14-.03.37-.12.69-.24.97-.25.55-.67.93-1.13 1.2-.41.24-.93.4-1.45.54-.25.06-.5.12-.77.18s-.55.11-.8.14c-1.07.16-2.11.07-3.81-.68-1.65-.76-3.58-2.26-5.15-3.65-1.57-1.4-2.76-2.67-2.7-3.05z" fill="#b0cc7e"/><path d="m215.74 393.38v-.02s1.52-.92 3.75-1.56c2.22-.64 5.22-.98 7.73.15 2.48 1.07 4.07 2.97 4.46 4.62.1.42.14.79.11 1.14-.03.37-.12.69-.24.97-.25.55-.66.93-1.13 1.2-.09.05-.18.1-.29.15-1.46-1.45-3.73-2.4-6.28-3.42-3.03-1.18-5.92-2.2-8.11-3.23z" fill="none"/><path d="m215.74 393.38v-.02s1.52-.92 3.75-1.56c2.22-.64 5.22-.98 7.73.15 2.48 1.07 4.07 2.97 4.46 4.62.1.42.14.79.11 1.14-.03.37-.12.69-.24.97-.25.55-.66.93-1.13 1.2-.09.05-.18.1-.29.15-1.46-1.45-3.73-2.4-6.28-3.42-3.03-1.18-5.92-2.2-8.11-3.23z" fill="#a6bc72"/><path d="m243.05 392.61s-.23.27-.59.71c-.35.45-.81 1.06-1.29 1.75-.98 1.37-2.01 2.99-3.11 3.89-1.13.9-1.94 1.25-2.84 1.37-.45.06-.89.08-1.34.06s-.91-.08-1.32-.23c-.36-.13-.72-.36-.99-.74-.28-.38-.48-.92-.48-1.58-.03-1.3.73-3.1 2.5-4.49 1.76-1.42 4.23-1.93 6.16-1.82 1.93.08 3.27.79 3.3 1.08z" fill="#b0cc7e"/><path d="m243.05 392.6v.02s-.23.27-.59.71c-.35.45-.81 1.06-1.29 1.75-.98 1.37-2.01 2.99-3.11 3.88-1.13.9-1.94 1.25-2.84 1.37-.45.07-.89.08-1.34.07-.45-.02-.91-.08-1.32-.23-.08-.03-.16-.06-.24-.1.27-1.9 1.78-3.87 3.74-5.25 2.36-1.68 5.02-2.41 6.99-2.22z" fill="none"/><path d="m243.05 392.6v.02s-.23.27-.59.71c-.35.45-.81 1.06-1.29 1.75-.98 1.37-2.01 2.99-3.11 3.88-1.13.9-1.94 1.25-2.84 1.37-.45.07-.89.08-1.34.07-.45-.02-.91-.08-1.32-.23-.08-.03-.16-.06-.24-.1.27-1.9 1.78-3.87 3.74-5.25 2.36-1.68 5.02-2.41 6.99-2.22z" fill="#a6bc72"/><path d="m221.3 369.14s.28-.14.85-.29c.55-.12 1.39-.22 2.32-.11 1.89.18 4.15 1.12 5.41 2.65 1.28 1.51 1.66 2.99 1.55 4.09-.11 1.11-.75 1.83-1.49 2.15-.68.29-1.54.32-2.44.06s-1.81-.86-2.75-1.98c-.93-1.12-1.59-2.68-2.21-3.96-.3-.66-.6-1.22-.85-1.69-.24-.43-.42-.78-.39-.92z" fill="#b0cc7e"/><path d="m221.3 369.15v-.01s.28-.14.85-.29c.54-.12 1.39-.22 2.32-.11 1.89.18 4.15 1.12 5.41 2.65 1.28 1.51 1.66 2.99 1.55 4.09-.11 1.11-.75 1.83-1.49 2.15-.07.03-.15.06-.23.09-.99-1.28-2.26-2.73-3.65-4.26-1.67-1.83-3.21-3.4-4.76-4.31z" fill="none"/><path d="m221.3 369.15v-.01s.28-.14.85-.29c.54-.12 1.39-.22 2.32-.11 1.89.18 4.15 1.12 5.41 2.65 1.28 1.51 1.66 2.99 1.55 4.09-.11 1.11-.75 1.83-1.49 2.15-.07.03-.15.06-.23.09-.99-1.28-2.26-2.73-3.65-4.26-1.67-1.83-3.21-3.4-4.76-4.31z" fill="#a6bc72"/><path d="m237.82 361.71s-.13.24-.35.61-.51.86-.82 1.42c-.64 1.1-1.29 2.38-2.3 3.21-1.02.82-2.02 1.21-2.85 1.2-.84 0-1.47-.36-1.86-.88-.35-.46-.52-1.17-.37-1.94.16-.77.63-1.66 1.74-2.56 1.11-.91 2.87-1.48 4.29-1.53 1.41-.08 2.45.28 2.52.47z" fill="#b0cc7e"/><path d="m237.81 361.7v.01s-.13.24-.35.61-.51.86-.82 1.42c-.64 1.1-1.29 2.38-2.3 3.21-1.02.82-2.02 1.21-2.85 1.21-.84 0-1.47-.36-1.86-.88-.04-.05-.07-.1-.11-.16.85-1.01 1.92-2.17 3.3-3.25 1.65-1.31 3.54-2.05 4.99-2.17z" fill="none"/><path d="m237.81 361.7v.01s-.13.24-.35.61-.51.86-.82 1.42c-.64 1.1-1.29 2.38-2.3 3.21-1.02.82-2.02 1.21-2.85 1.21-.84 0-1.47-.36-1.86-.88-.04-.05-.07-.1-.11-.16.85-1.01 1.92-2.17 3.3-3.25 1.65-1.31 3.54-2.05 4.99-2.17z" fill="#a6bc72"/><path d="m222.59 344.58s1.09.37 2.28.9c.57.29 1.31.54 1.92.89.31.17.6.36.87.56.28.19.55.38.77.6.45.43.76.92.99 1.31.24.38.38.78.45 1.17.13.78-.02 1.54-.4 2.1-.33.5-.94.88-1.83.87-.44-.01-.96-.12-1.52-.36-.55-.25-1.06-.67-1.63-1.22-.27-.28-.54-.58-.77-.92-.21-.35-.4-.72-.56-1.09-.31-.75-.6-1.47-.68-2.21-.21-1.42-.09-2.48.11-2.6z" fill="#b0cc7e"/><path d="m222.58 344.59.01-.01s1.09.37 2.28.9c.57.29 1.31.54 1.92.89.31.17.6.36.87.56.28.19.55.38.77.6.45.43.76.92.99 1.31.24.38.38.78.45 1.17.13.78-.02 1.54-.4 2.1-.04.06-.07.11-.12.16-.62-.29-1.3-.67-2-1.11-.66-.49-1.3-1.1-1.95-1.74-.73-.8-1.32-1.67-1.82-2.46-.44-.86-.78-1.66-1-2.37z" fill="none"/><path d="m222.58 344.59.01-.01s1.09.37 2.28.9c.57.29 1.31.54 1.92.89.31.17.6.36.87.56.28.19.55.38.77.6.45.43.76.92.99 1.31.24.38.38.78.45 1.17.13.78-.02 1.54-.4 2.1-.04.06-.07.11-.12.16-.62-.29-1.3-.67-2-1.11-.66-.49-1.3-1.1-1.95-1.74-.73-.8-1.32-1.67-1.82-2.46-.44-.86-.78-1.66-1-2.37z" fill="#a6bc72"/><path d="m235.52 333.42s-.17 1.11-.49 2.37c-.19.61-.29 1.37-.53 2.01-.11.33-.25.63-.38.93-.12.31-.26.59-.43.84-.74.98-1.37 1.57-2.11 1.86-.73.28-1.5.27-2.11.01-.54-.23-1.03-.75-1.19-1.61-.16-.85-.01-2.1.93-3.36.22-.33.48-.64.76-.93.3-.28.63-.52.97-.74.69-.44 1.34-.84 2.04-1.04 1.33-.44 2.39-.51 2.54-.34z" fill="#b0cc7e"/><path d="m235.51 333.42c.01.01-.16 1.12-.49 2.38-.19.61-.29 1.37-.53 2-.11.33-.25.63-.38.93-.12.31-.26.59-.43.84-.74.98-1.37 1.57-2.11 1.86-.73.28-1.5.27-2.11.02-.06-.03-.12-.05-.18-.09.16-.66.4-1.38.69-2.15.31-.76.82-1.47 1.31-2.23.63-.87 1.4-1.57 2.08-2.21.77-.56 1.5-1.02 2.15-1.35z" fill="none"/><path d="m235.51 333.42c.01.01-.16 1.12-.49 2.38-.19.61-.29 1.37-.53 2-.11.33-.25.63-.38.93-.12.31-.26.59-.43.84-.74.98-1.37 1.57-2.11 1.86-.73.28-1.5.27-2.11.02-.06-.03-.12-.05-.18-.09.16-.66.4-1.38.69-2.15.31-.76.82-1.47 1.31-2.23.63-.87 1.4-1.57 2.08-2.21.77-.56 1.5-1.02 2.15-1.35z" fill="#a6bc72"/><path d="m232.25 320.83s-.09.93.13 1.9c.19.99.58 2.09.36 3.31-.2 1.2-.84 2.29-1.61 2.74-.37.23-.74.3-1.06.26-.31-.04-.56-.18-.77-.37-.37-.35-.63-.87-.88-1.35-.24-.5-.38-1.01-.18-2.12.1-.55.33-1.18.66-1.8s.78-1.22 1.26-1.67c.98-.9 1.97-1.03 2.09-.9z" fill="#b0cc7e"/><path d="m232.24 320.83c.01.01-.08.94.14 1.91.19.99.58 2.08.36 3.31-.2 1.2-.84 2.3-1.61 2.75-.37.23-.74.3-1.06.26-.31-.04-.56-.18-.77-.37l-.12-.12c.51-.94.56-2.19.83-3.66.16-.87.39-1.73.78-2.45.38-.74.92-1.3 1.45-1.63z" fill="none"/><path d="m232.24 320.83c.01.01-.08.94.14 1.91.19.99.58 2.08.36 3.31-.2 1.2-.84 2.3-1.61 2.75-.37.23-.74.3-1.06.26-.31-.04-.56-.18-.77-.37l-.12-.12c.51-.94.56-2.19.83-3.66.16-.87.39-1.73.78-2.45.38-.74.92-1.3 1.45-1.63z" fill="#a6bc72"/><path d="m590.3 386.16s1.52-17.86 2.66-35.75c.57-8.95 1.04-17.9 1.2-24.62.05-1.68.04-3.22.06-4.58.01-1.37-.05-2.55-.07-3.53 0-.98-.14-1.74-.17-2.27-.05-.52-.08-.8-.08-.8s.04.28.12.8c.06.52.24 1.28.3 2.26.07.98.2 2.17.26 3.53.06 1.37.15 2.91.2 4.59.22 6.73.24 15.71.17 24.69-.14 17.96-.67 35.91-.67 35.91z" fill="#7b6a58"/><path d="m583.64 383.7s.06-.22.17-.64c.02-.16.05-.35.08-.58.04-.22.09-.47.15-.89.24-1.56.53-3.82.8-6.55.28-2.73.52-5.93.69-9.36.06-1.72.17-3.49.18-5.3.04-1.81.06-3.64.01-5.48 0-1.84-.09-3.67-.19-5.47-.05-1.81-.27-3.57-.41-5.29-.13-1.72-.44-3.35-.63-4.92-.22-1.56-.58-3.01-.83-4.37-.12-.68-.3-1.32-.47-1.92-.17-.61-.33-1.18-.48-1.72-.16-.54-.28-1.05-.44-1.51-.17-.45-.34-.87-.48-1.24-.58-1.51-.92-2.37-.92-2.37s.39.84 1.08 2.3c.17.37.36.77.57 1.22.2.45.35.95.55 1.48.19.53.39 1.1.6 1.7.22.6.45 1.23.61 1.9.34 1.35.81 2.79 1.14 4.35.3 1.56.72 3.21.97 4.93.26 1.72.59 3.5.77 5.32.22 1.82.43 3.67.56 5.52.17 1.85.28 3.71.36 5.54.12 1.83.13 3.63.19 5.37.06 3.49.03 6.75-.06 9.54-.08 2.8-.23 5.13-.37 6.78-.02.38-.08.85-.13 1.24s-.1.73-.14 1c-.08.43-.13.66-.13.66z" fill="#7b6a58"/><path d="m576.61 384.01s.01-.18.02-.52c.01-.32.02-.81.02-1.45-.01-1.27-.04-3.11-.23-5.32-.07-1.1-.21-2.3-.35-3.56s-.36-2.59-.56-3.96c-.27-1.36-.47-2.79-.83-4.21-.32-1.43-.65-2.88-1.07-4.3-.2-.72-.41-1.43-.61-2.14-.23-.7-.47-1.4-.7-2.1-.43-1.4-.98-2.74-1.5-4.04-.49-1.32-1.08-2.53-1.62-3.7-.27-.58-.54-1.15-.8-1.7-.29-.53-.57-1.04-.84-1.54-.55-.98-1.03-1.9-1.5-2.68-.5-.77-.93-1.44-1.29-1.99-.72-1.11-1.13-1.74-1.13-1.74s.46.6 1.27 1.64c.4.52.89 1.16 1.46 1.88.54.75 1.09 1.62 1.73 2.56.31.47.64.97.98 1.48.3.53.62 1.08.94 1.64.65 1.13 1.35 2.31 1.96 3.6.63 1.27 1.31 2.59 1.87 3.97.29.69.59 1.38.89 2.08.27.71.53 1.42.8 2.13.56 1.42 1.01 2.88 1.46 4.31.48 1.43.81 2.87 1.21 4.25.33 1.39.67 2.74.92 4.03.26 1.29.5 2.51.67 3.65.38 2.27.58 4.19.7 5.55.06.67.1 1.21.11 1.6.02.37.03.56.03.56z" fill="#7b6a58"/><path d="m599.38 418.08-27.32.13-3.78-36.91 34.52-.17z" fill="#968045"/><path d="m603.67 393.41 1.27-13.62-38.8.19 1.39 13.6z" fill="#a38b55"/><path d="m571.77 415.42.28 2.78 27.32-.13 1.56-16.85c-5.54 9.64-17.4 14.07-29.16 14.2z" fill="#1d1d1c" opacity=".1"/><path d="m566.25 372.13s1.28-.25 2.89-.34c.8-.03 1.7-.08 2.57.01s1.71.25 2.43.55c1.45.66 2.3 1.4 2.78 2.23.47.83.54 1.73.3 2.48-.21.67-.78 1.31-1.75 1.63-.96.32-2.34.31-3.92-.4-.81-.34-1.57-.87-2.23-1.49-.67-.62-1.28-1.27-1.75-1.94-.95-1.31-1.45-2.48-1.32-2.73z" fill="#b0cc7e"/><path d="m566.24 372.15.01-.01s1.28-.25 2.89-.34c.8-.03 1.7-.08 2.57.01s1.71.25 2.43.55c1.45.66 2.3 1.4 2.78 2.23.47.83.54 1.73.3 2.48-.02.07-.05.15-.08.22-.8-.1-1.68-.27-2.61-.5-.92-.26-1.87-.63-2.84-1.04-1.14-.52-2.18-1.12-3.11-1.72-.91-.64-1.7-1.27-2.34-1.88z" fill="none"/><path d="m566.24 372.15.01-.01s1.28-.25 2.89-.34c.8-.03 1.7-.08 2.57.01s1.71.25 2.43.55c1.45.66 2.3 1.4 2.78 2.23.47.83.54 1.73.3 2.48-.02.07-.05.15-.08.22-.8-.1-1.68-.27-2.61-.5-.92-.26-1.87-.63-2.84-1.04-1.14-.52-2.18-1.12-3.11-1.72-.91-.64-1.7-1.27-2.34-1.88z" fill="#a6bc72"/><path d="m581.86 357.98s.16.26.36.78c.19.51.36 1.28.41 2.16.1 1.75-.25 3.85-.52 4.75-.45 1.42-1.35 2.77-2.44 3.39-.29.17-.56.28-.81.33-.26.06-.56.08-.78.04-.46-.08-.76-.34-1-.66-.21-.28-.37-.64-.57-.96-.1-.17-.2-.28-.3-.45-.09-.16-.18-.32-.27-.49-.31-.69-.46-1.56.09-3.27.08-.23.19-.51.31-.76.12-.24.26-.47.41-.7.29-.44.59-.79.91-1.11.64-.65 1.26-1.11 1.87-1.54.57-.4 1.1-.77 1.51-1.05.36-.27.68-.48.82-.46z" fill="#b0cc7e"/><path d="m581.84 357.98h.01s.16.26.36.78c.19.51.36 1.28.41 2.16.1 1.75-.25 3.85-.52 4.75-.45 1.42-1.35 2.77-2.44 3.39-.29.17-.56.28-.81.33-.26.06-.56.08-.78.04-.46-.08-.76-.34-1-.66-.05-.06-.09-.12-.13-.2.39-.56.59-1.35.81-2.22.23-.87.4-1.82.85-2.88 1.14-2.36 2.54-3.89 3.24-5.49z" fill="none"/><path d="m581.84 357.98h.01s.16.26.36.78c.19.51.36 1.28.41 2.16.1 1.75-.25 3.85-.52 4.75-.45 1.42-1.35 2.77-2.44 3.39-.29.17-.56.28-.81.33-.26.06-.56.08-.78.04-.46-.08-.76-.34-1-.66-.05-.06-.09-.12-.13-.2.39-.56.59-1.35.81-2.22.23-.87.4-1.82.85-2.88 1.14-2.36 2.54-3.89 3.24-5.49z" fill="#a6bc72"/><path d="m563.78 352.81s1.14-.27 2.57-.42c.71-.07 1.49-.11 2.25-.06.38.02.75.07 1.11.15.38.07.75.18 1.09.32 2.73 1.14 3.27 2.98 2.71 4.26-.49 1.13-2.25 2.13-4.93 1.01-.34-.14-.67-.32-.99-.52-.33-.22-.66-.47-.96-.74-.61-.53-1.16-1.12-1.6-1.67-.88-1.12-1.36-2.12-1.25-2.33z" fill="#b0cc7e"/><path d="m563.78 352.82.01-.01s1.14-.27 2.56-.42c.71-.07 1.49-.11 2.25-.06.38.02.75.07 1.11.15.38.07.75.18 1.09.32 2.73 1.14 3.28 2.98 2.72 4.26-.03.06-.06.12-.09.19-1.41-.24-3.05-.72-4.74-1.42-2.02-.91-3.75-2.01-4.91-3.01z" fill="none"/><path d="m563.78 352.82.01-.01s1.14-.27 2.56-.42c.71-.07 1.49-.11 2.25-.06.38.02.75.07 1.11.15.38.07.75.18 1.09.32 2.73 1.14 3.28 2.98 2.72 4.26-.03.06-.06.12-.09.19-1.41-.24-3.05-.72-4.74-1.42-2.02-.91-3.75-2.01-4.91-3.01z" fill="#a6bc72"/><path d="m570.49 340.03s.53.63 1.07 1.51c.28.42.53.96.7 1.57.09.3.16.61.21.92.1.33-.07.98-.16 1.26-.52 1.35-1.02 1.63-1.45 1.8-.46.16-.95.31-1.47.33-.22 0-.45-.05-.67-.22s-.42-.45-.52-.82c-.22-.76.01-1.79.23-2.41.06-.22.07-.08.12-.3.05-.23.12-.46.21-.69.18-.45.41-.93.62-1.41.45-.91.94-1.54 1.11-1.54z" fill="#b0cc7e"/><path d="m570.48 340.03c.01 0 .54.63 1.08 1.51.28.42.53.96.7 1.57.09.3.16.61.21.92.1.33-.07.98-.16 1.26-.52 1.35-1.02 1.63-1.45 1.8-.46.16-.95.31-1.47.33-.05 0-.1 0-.15-.01-.24-1.13.55-2.39.74-3.4.01-.71.1-1.45.17-2.13.08-.68.19-1.31.33-1.85z" fill="none"/><path d="m570.48 340.03c.01 0 .54.63 1.08 1.51.28.42.53.96.7 1.57.09.3.16.61.21.92.1.33-.07.98-.16 1.26-.52 1.35-1.02 1.63-1.45 1.8-.46.16-.95.31-1.47.33-.05 0-.1 0-.15-.01-.24-1.13.55-2.39.74-3.4.01-.71.1-1.45.17-2.13.08-.68.19-1.31.33-1.85z" fill="#a6bc72"/><path d="m557.77 336.21s.15-.1.45-.25.75-.34 1.3-.4c1.11-.19 2.59.11 3.44.72.86.61 1.23 1.18 1.39 1.72.15.53.09 1.07-.13 1.5-.2.38-.61.7-1.26.76-.64.06-1.45-.18-2.24-.73-.8-.57-1.31-1.33-1.84-1.97-.26-.34-.53-.62-.74-.84-.23-.23-.38-.42-.37-.51z" fill="#b0cc7e"/><path d="m557.77 336.22c0-.01.15-.11.45-.26s.75-.34 1.3-.4c1.11-.19 2.59.11 3.43.72.86.61 1.23 1.18 1.39 1.72.15.53.09 1.08-.13 1.5-.02.04-.05.08-.08.12-.97-.27-2.02-.91-3.04-1.59-1.21-.85-2.3-1.45-3.32-1.81z" fill="none"/><path d="m557.77 336.22c0-.01.15-.11.45-.26s.75-.34 1.3-.4c1.11-.19 2.59.11 3.43.72.86.61 1.23 1.18 1.39 1.72.15.53.09 1.08-.13 1.5-.02.04-.05.08-.08.12-.97-.27-2.02-.91-3.04-1.59-1.21-.85-2.3-1.45-3.32-1.81z" fill="#a6bc72"/><path d="m578.59 371.3s.85-.18 2.03-.18c.6-.02 1.22.09 1.86.23s1.25.39 1.74.76c1 .71 1.47 1.49 1.62 2.17s-.04 1.25-.39 1.67c-.32.36-.86.63-1.53.64s-1.44-.24-2.32-.86c-.43-.33-.83-.74-1.2-1.17s-.67-.96-.97-1.38c-.57-.88-.93-1.71-.84-1.88z" fill="#b0cc7e"/><path d="m578.59 371.31c0-.01.86-.19 2.03-.19.6-.02 1.22.09 1.86.23s1.25.39 1.74.76c1 .71 1.47 1.5 1.62 2.17.15.68-.04 1.26-.39 1.67-.04.04-.07.08-.11.12-.5-.25-1.02-.55-1.56-.9s-1.12-.7-1.69-1.12c-.69-.48-1.35-.94-1.92-1.42-.62-.44-1.15-.88-1.58-1.32z" fill="none"/><path d="m578.59 371.31c0-.01.86-.19 2.03-.19.6-.02 1.22.09 1.86.23s1.25.39 1.74.76c1 .71 1.47 1.5 1.62 2.17.15.68-.04 1.26-.39 1.67-.04.04-.07.08-.11.12-.5-.25-1.02-.55-1.56-.9s-1.12-.7-1.69-1.12c-.69-.48-1.35-.94-1.92-1.42-.62-.44-1.15-.88-1.58-1.32z" fill="#a6bc72"/><path d="m597.37 362.61s-.69 1.13-1.55 2.31c-.43.57-.92 1.36-1.46 1.97-.14.16-.28.31-.42.46-.16.15-.29.28-.39.39-.22.21-.47.45-.74.63-1.17.84-2.56 1.37-3.73 1.28-.3-.02-.55-.08-.79-.16-.26-.09-.48-.21-.64-.36-.33-.29-.48-.65-.55-1.03-.06-.33-.05-.72-.04-1.1v-.54c.01-.19.05-.4.08-.58.16-.76.6-1.62 2.05-2.67.4-.27.82-.52 1.33-.71.26-.11.49-.18.7-.23.22-.06.44-.11.66-.16.9-.17 1.72-.3 2.58-.24 1.69.09 2.83.48 2.91.74z" fill="#b0cc7e"/><path d="m597.36 362.6v.01s-.69 1.13-1.55 2.31c-.43.57-.92 1.36-1.46 1.97-.14.16-.28.31-.42.46-.16.15-.29.28-.39.39-.22.21-.47.45-.74.63-1.17.84-2.56 1.37-3.73 1.28-.3-.02-.55-.08-.79-.16-.27-.09-.48-.21-.64-.36-.33-.29-.48-.65-.55-1.03-.01-.08-.02-.15-.03-.23 1.24-.67 2.4-2.11 4.22-3.26 1.13-.65 2.17-1.08 3.18-1.48 1.07-.29 2.06-.46 2.9-.53z" fill="none"/><path d="m597.36 362.6v.01s-.69 1.13-1.55 2.31c-.43.57-.92 1.36-1.46 1.97-.14.16-.28.31-.42.46-.16.15-.29.28-.39.39-.22.21-.47.45-.74.63-1.17.84-2.56 1.37-3.73 1.28-.3-.02-.55-.08-.79-.16-.27-.09-.48-.21-.64-.36-.33-.29-.48-.65-.55-1.03-.01-.08-.02-.15-.03-.23 1.24-.67 2.4-2.11 4.22-3.26 1.13-.65 2.17-1.08 3.18-1.48 1.07-.29 2.06-.46 2.9-.53z" fill="#a6bc72"/><path d="m577.63 351.44s1.17-.31 2.88-.36c.88-.05 1.74.12 2.66.33.46.12.88.23 1.36.45.27.15.54.3.79.48.22.17.43.34.62.53 1.41 1.44 1.62 2.38 1.63 3.15-.01.18-.03.38-.06.59-.05.16-.09.34-.14.53-.08.38-.16.79-.3 1.15-.13.32-.34.62-.73.82-.19.1-.43.17-.72.2-.24.03-.51.03-.81-.02-1.16-.15-2.43-.99-3.31-1.87-.1-.09-.19-.19-.28-.31-.08-.08-.15-.16-.22-.26-.21-.24-.53-.55-.77-.86-.51-.6-.94-1.38-1.35-1.94-.78-1.2-1.35-2.36-1.25-2.61z" fill="#b0cc7e"/><path d="m577.62 351.45.01-.01s1.17-.31 2.88-.36c.88-.05 1.74.12 2.66.33.46.12.88.23 1.36.45.27.15.54.31.79.48.22.17.43.34.62.53 1.41 1.44 1.63 2.38 1.63 3.15-.01.19-.03.38-.06.59-.05.16-.09.34-.14.53-.08.38-.16.79-.3 1.15-.03.07-.06.14-.1.21-1.76-.46-3-2.17-4.41-3.28-.88-.64-1.88-1.31-2.67-1.99-.85-.59-1.62-1.19-2.27-1.78z" fill="none"/><path d="m577.62 351.45.01-.01s1.17-.31 2.88-.36c.88-.05 1.74.12 2.66.33.46.12.88.23 1.36.45.27.15.54.31.79.48.22.17.43.34.62.53 1.41 1.44 1.63 2.38 1.63 3.15-.01.19-.03.38-.06.59-.05.16-.09.34-.14.53-.08.38-.16.79-.3 1.15-.03.07-.06.14-.1.21-1.76-.46-3-2.17-4.41-3.28-.88-.64-1.88-1.31-2.67-1.99-.85-.59-1.62-1.19-2.27-1.78z" fill="#a6bc72"/><path d="m589.95 335.91s.24.98.37 2.19c.07.59.11 1.31.06 2-.02.35-.06.69-.13 1.02-.09.34-.21.68-.36.99-.32.62-.6 1.11-1.01 1.49-.4.38-.8.63-1.17.77-.75.28-1.39.13-1.87-.24-.42-.33-.77-.92-.89-1.62-.06-.35-.06-.73.02-1.13.09-.38.2-.92.46-1.43.13-.26.29-.51.47-.77.18-.27.38-.54.6-.79.44-.51.91-.96 1.41-1.36.98-.8 1.85-1.22 2.04-1.12z" fill="#b0cc7e"/><path d="m589.94 335.9c.01 0 .25.99.38 2.2.07.59.11 1.31.06 2-.02.35-.06.69-.13 1.02-.09.34-.21.68-.36.99-.32.62-.6 1.11-1.01 1.49-.4.38-.8.63-1.17.77-.75.28-1.39.13-1.87-.24-.05-.04-.09-.07-.14-.12.21-.58.46-1.19.77-1.81.28-.64.54-1.35.9-2.05.39-.85.79-1.67 1.22-2.39.46-.72.91-1.35 1.35-1.86z" fill="none"/><path d="m589.94 335.9c.01 0 .25.99.38 2.2.07.59.11 1.31.06 2-.02.35-.06.69-.13 1.02-.09.34-.21.68-.36.99-.32.62-.6 1.11-1.01 1.49-.4.38-.8.63-1.17.77-.75.28-1.39.13-1.87-.24-.05-.04-.09-.07-.14-.12.21-.58.46-1.19.77-1.81.28-.64.54-1.35.9-2.05.39-.85.79-1.67 1.22-2.39.46-.72.91-1.35 1.35-1.86z" fill="#a6bc72"/><path d="m576.4 331.14s.72-.28 1.81-.42c.56-.08 1.11-.07 1.69-.02.59.06 1.14.18 1.58.38.45.2.82.47 1.08.68s.45.45.59.7c.28.51.36 1.08.24 1.57-.11.43-.44.84-1.06 1.05-.31.1-.7.15-1.15.11s-.87-.18-1.38-.4c-.51-.24-.96-.56-1.35-.92-.39-.35-.77-.8-1.06-1.13-.59-.72-1.04-1.43-.99-1.6z" fill="#b0cc7e"/><path d="m576.4 331.15c0-.01.73-.29 1.81-.43.56-.08 1.11-.07 1.69-.02.59.06 1.14.18 1.58.38.45.2.82.47 1.08.68s.45.45.59.7c.28.51.36 1.08.24 1.57-.01.05-.02.09-.04.14-.5-.05-1.07-.15-1.67-.29-.58-.17-1.17-.42-1.77-.69-.71-.33-1.35-.68-1.93-1.04-.59-.33-1.12-.66-1.58-1z" fill="none"/><path d="m576.4 331.15c0-.01.73-.29 1.81-.43.56-.08 1.11-.07 1.69-.02.59.06 1.14.18 1.58.38.45.2.82.47 1.08.68s.45.45.59.7c.28.51.36 1.08.24 1.57-.01.05-.02.09-.04.14-.5-.05-1.07-.15-1.67-.29-.58-.17-1.17-.42-1.77-.69-.71-.33-1.35-.68-1.93-1.04-.59-.33-1.12-.66-1.58-1z" fill="#a6bc72"/><path d="m575.3 320.46s.2-.07.58-.14c.19-.04.42-.07.7-.1.26 0 .55 0 .87.03 1.27.1 2.84.64 3.76 1.71.48.5.77 1.09.96 1.56.18.54.23 1.02.18 1.42-.13.92-.64 1.29-1.19 1.4-.48.1-1.14 0-1.64-.11-.3-.08-.6-.21-.86-.39-.33-.19-.58-.47-.93-.82-.62-.73-1.15-1.79-1.61-2.69-.11-.23-.22-.45-.32-.66-.1-.19-.2-.37-.28-.53-.14-.34-.25-.59-.22-.68z" fill="#b0cc7e"/><path d="m575.3 320.46c0-.01.21-.08.59-.15.19-.04.42-.07.7-.1.26 0 .55 0 .87.03 1.27.1 2.84.64 3.76 1.71.48.5.77 1.09.96 1.57.18.54.23 1.02.18 1.42-.13.92-.64 1.29-1.19 1.4-.05.01-.11.02-.17.03-.51-.94-1.39-1.91-2.38-2.93-1.17-1.22-2.3-2.25-3.32-2.98z" fill="none"/><path d="m575.3 320.46c0-.01.21-.08.59-.15.19-.04.42-.07.7-.1.26 0 .55 0 .87.03 1.27.1 2.84.64 3.76 1.71.48.5.77 1.09.96 1.57.18.54.23 1.02.18 1.42-.13.92-.64 1.29-1.19 1.4-.05.01-.11.02-.17.03-.51-.94-1.39-1.91-2.38-2.93-1.17-1.22-2.3-2.25-3.32-2.98z" fill="#a6bc72"/><path d="m606.14 371.51s-1.01 1.09-2.31 2.36c-1.31 1.26-2.87 2.7-4.25 3.33-1.43.63-2.28.73-3.17.59-.21-.03-.44-.07-.67-.12-.22-.05-.44-.11-.66-.16-.45-.12-.91-.27-1.3-.5-.35-.2-.66-.5-.86-.96-.1-.23-.17-.49-.19-.8-.02-.29.01-.6.09-.96.32-1.38 1.63-3 3.71-3.9 2.1-.95 4.56-.83 6.41-.4 1.87.46 3.16 1.21 3.2 1.52z" fill="#b0cc7e"/><path d="m606.14 371.5v.02s-1.01 1.09-2.31 2.36c-1.31 1.26-2.87 2.7-4.25 3.33-1.43.63-2.28.73-3.17.59-.21-.03-.44-.07-.67-.12-.22-.05-.44-.11-.66-.16-.45-.12-.91-.27-1.3-.5-.08-.05-.15-.09-.22-.15.31-.95 1.04-1.85 1.94-2.58s1.99-1.32 3.15-1.78c2.77-1.07 5.48-1.26 7.49-1.01z" fill="none"/><path d="m606.14 371.5v.02s-1.01 1.09-2.31 2.36c-1.31 1.26-2.87 2.7-4.25 3.33-1.43.63-2.28.73-3.17.59-.21-.03-.44-.07-.67-.12-.22-.05-.44-.11-.66-.16-.45-.12-.91-.27-1.3-.5-.08-.05-.15-.09-.22-.15.31-.95 1.04-1.85 1.94-2.58s1.99-1.32 3.15-1.78c2.77-1.07 5.48-1.26 7.49-1.01z" fill="#a6bc72"/><path d="m583.26 371.04s.25-.14.73-.32c.47-.17 1.16-.36 1.98-.43 1.62-.17 3.76.12 5.24 1.32 1.48 1.16 2.14 2.65 2.12 3.74 0 .55-.17 1-.41 1.33s-.56.53-.91.65c-.63.21-1.4.2-2.14.1-.76-.11-1.46-.38-2.41-1.13-.92-.75-1.86-1.99-2.69-3.05-.81-1.08-1.55-1.95-1.51-2.21z" fill="#b0cc7e"/><path d="m583.25 371.05v-.01s.25-.14.73-.32c.47-.17 1.16-.36 1.98-.43 1.62-.17 3.76.12 5.24 1.32 1.48 1.16 2.14 2.65 2.12 3.74 0 .55-.16 1-.41 1.33-.24.33-.56.53-.91.65-.07.02-.13.05-.21.06-.8-1.17-2.08-2.23-3.58-3.29-1.78-1.27-3.51-2.31-4.96-3.05z" fill="none"/><path d="m583.25 371.05v-.01s.25-.14.73-.32c.47-.17 1.16-.36 1.98-.43 1.62-.17 3.76.12 5.24 1.32 1.48 1.16 2.14 2.65 2.12 3.74 0 .55-.16 1-.41 1.33-.24.33-.56.53-.91.65-.07.02-.13.05-.21.06-.8-1.17-2.08-2.23-3.58-3.29-1.78-1.27-3.51-2.31-4.96-3.05z" fill="#a6bc72"/><path d="m601.48 351.24s-.16.24-.41.62c-.11.19-.25.38-.37.63-.11.26-.24.54-.37.83-.49 1.18-.96 2.53-1.73 3.49-.78.94-1.53 1.45-2.28 1.67-.71.21-1.5.19-2.13-.09-.55-.25-1.05-.8-1.17-1.76-.1-.92.21-2.17 1.28-3.44 1.03-1.29 2.88-2.15 4.43-2.39.4-.05.76-.08 1.08-.08.33.01.65.08.89.13.5.12.75.27.78.39z" fill="#b0cc7e"/><path d="m601.48 351.23v.01s-.16.24-.4.62c-.11.19-.25.38-.37.63-.11.26-.24.54-.37.83-.49 1.18-.96 2.52-1.73 3.49-.78.94-1.53 1.45-2.28 1.67-.71.21-1.5.19-2.13-.09l-.18-.09c.29-1.41 1.15-2.98 2.41-4.37 1.48-1.65 3.45-2.77 5.05-2.7z" fill="none"/><path d="m601.48 351.23v.01s-.16.24-.4.62c-.11.19-.25.38-.37.63-.11.26-.24.54-.37.83-.49 1.18-.96 2.52-1.73 3.49-.78.94-1.53 1.45-2.28 1.67-.71.21-1.5.19-2.13-.09l-.18-.09c.29-1.41 1.15-2.98 2.41-4.37 1.48-1.65 3.45-2.77 5.05-2.7z" fill="#a6bc72"/><path d="m587.64 345.13s.21-.06.57-.14.89-.17 1.48-.15c1.2-.01 2.74.37 3.67 1.14.94.75 1.34 1.48 1.48 2.13.13.64-.02 1.24-.35 1.68-.29.39-.81.68-1.52.68-.7 0-1.55-.3-2.41-.99-.85-.69-1.46-1.68-2.01-2.54-.52-.88-.99-1.62-.91-1.81z" fill="#b0cc7e"/><path d="m587.64 345.13c0-.01.21-.07.57-.15s.89-.17 1.48-.15c1.2-.01 2.74.37 3.67 1.14.94.75 1.34 1.48 1.48 2.13.13.65-.02 1.25-.35 1.68-.03.04-.07.08-.11.12-1.03-.46-2.15-1.23-3.26-2.1-1.32-1.04-2.51-1.92-3.48-2.67z" fill="none"/><path d="m587.64 345.13c0-.01.21-.07.57-.15s.89-.17 1.48-.15c1.2-.01 2.74.37 3.67 1.14.94.75 1.34 1.48 1.48 2.13.13.65-.02 1.25-.35 1.68-.03.04-.07.08-.11.12-1.03-.46-2.15-1.23-3.26-2.1-1.32-1.04-2.51-1.92-3.48-2.67z" fill="#a6bc72"/><path d="m600.37 330.7s.12.88-.01 2.11c-.04.63-.24 1.26-.48 1.91-.12.32-.27.64-.43.94-.18.29-.4.55-.63.78-.47.46-.9.82-1.36 1.03-.47.21-.89.3-1.27.31-.74.02-1.26-.32-1.58-.79-.28-.42-.4-1.04-.29-1.7.06-.33.17-.67.37-.99.19-.33.45-.74.82-1.11.19-.19.41-.35.63-.52.21-.18.45-.34.69-.5.48-.32 1.06-.55 1.51-.8.97-.47 1.86-.77 2.03-.67z" fill="#b0cc7e"/><path d="m600.36 330.69c.01 0 .12.89 0 2.12-.04.63-.24 1.25-.48 1.91-.12.32-.27.64-.43.94-.18.29-.4.55-.63.78-.47.46-.9.82-1.36 1.03-.47.21-.9.3-1.27.31-.74.02-1.26-.32-1.58-.79-.03-.05-.06-.09-.09-.15.36-.45.78-.91 1.24-1.36.44-.49.89-1.03 1.4-1.53.58-.64 1.13-1.26 1.69-1.78.52-.56 1.02-1.06 1.51-1.48z" fill="none"/><path d="m600.36 330.69c.01 0 .12.89 0 2.12-.04.63-.24 1.25-.48 1.91-.12.32-.27.64-.43.94-.18.29-.4.55-.63.78-.47.46-.9.82-1.36 1.03-.47.21-.9.3-1.27.31-.74.02-1.26-.32-1.58-.79-.03-.05-.06-.09-.09-.15.36-.45.78-.91 1.24-1.36.44-.49.89-1.03 1.4-1.53.58-.64 1.13-1.26 1.69-1.78.52-.56 1.02-1.06 1.51-1.48z" fill="#a6bc72"/><path d="m589.55 321.41s.88.04 2.05.36c.6.14 1.18.45 1.78.79.29.18.59.37.84.59.24.24.46.5.65.77.79 1.06.92 2.1.8 2.81-.13.72-.55 1.16-1.06 1.38-.45.19-1.09.19-1.7-.04-.62-.24-1.17-.72-1.79-1.55-.14-.21-.27-.44-.37-.7-.12-.24-.25-.49-.36-.75-.22-.51-.34-1.11-.52-1.6-.31-1-.45-1.91-.32-2.06z" fill="#b0cc7e"/><path d="m589.54 321.42c.01-.01.89.03 2.06.36.6.14 1.18.45 1.78.79.29.18.59.37.84.59.24.24.46.5.65.77.79 1.06.92 2.1.8 2.81-.13.72-.55 1.16-1.06 1.38-.05.02-.1.04-.16.06-.37-.44-.73-.93-1.08-1.46-.36-.53-.82-1.05-1.21-1.64-.5-.68-1.02-1.3-1.43-1.95-.47-.59-.87-1.17-1.19-1.71z" fill="none"/><path d="m589.54 321.42c.01-.01.89.03 2.06.36.6.14 1.18.45 1.78.79.29.18.59.37.84.59.24.24.46.5.65.77.79 1.06.92 2.1.8 2.81-.13.72-.55 1.16-1.06 1.38-.05.02-.1.04-.16.06-.37-.44-.73-.93-1.08-1.46-.36-.53-.82-1.05-1.21-1.64-.5-.68-1.02-1.3-1.43-1.95-.47-.59-.87-1.17-1.19-1.71z" fill="#a6bc72"/><path d="m592.29 310.85s.18.03.5.13c.31.1.73.32 1.16.67.86.71 1.58 1.94 1.73 2.84.17.93.06 1.36-.14 1.77-.21.4-.44.84-.79 1.17-.28.28-.84.44-1.48.06-.64-.37-1.2-1.28-1.37-2.29-.18-1.03.05-1.93.17-2.72.15-.77.1-1.51.22-1.63z" fill="#b0cc7e"/><path d="m592.29 310.86c.01-.01.18.02.5.12.31.1.73.32 1.16.67.86.71 1.58 1.94 1.73 2.84.17.93.06 1.36-.14 1.77-.21.4-.44.84-.79 1.17-.03.03-.07.06-.11.09-.87-.62-1.24-1.93-1.44-3.1-.23-1.44-.43-2.63-.91-3.56z" fill="none"/><path d="m592.29 310.86c.01-.01.18.02.5.12.31.1.73.32 1.16.67.86.71 1.58 1.94 1.73 2.84.17.93.06 1.36-.14 1.77-.21.4-.44.84-.79 1.17-.03.03-.07.06-.11.09-.87-.62-1.24-1.93-1.44-3.1-.23-1.44-.43-2.63-.91-3.56z" fill="#a6bc72"/><path d="m461.49 232.44c.2-11.36-2.99-25.23-1.33-36.63-1.32.53-2.1.93-2.18.98-5.12 3.45-8.69 17.21-11.15 33.12 3.5-.24 11.16 2.26 14.66 2.53z" fill="#c6c6c6"/><path d="m523.43 196.01c-7.57-3.97-14.9-4.76-18.17-5-4.99-.36-38.07-1.65-45.52 5-4.54 31.14 7.45 40.05 4.86 75.74 10.25 7.65 22.39 8.1 55.78 3.08 5.06-9.39 24.55-67.48 3.05-78.82z" fill="#dadada"/><path d="m485.59 207.81c-4.28-2.12-4.69-7.65-4.25-12.01.02-.18.04-.37.06-.54v-.02l-.17-2.51-.13-1.89-.4-1.48-1.1-4.12c5.87-1.74 16.1-4.26 19.09-6.13 0 0 8.34 31.93-13.1 28.7z" fill="#eabba4"/><path d="m542.07 230.86c-.64.05-1.29.11-1.93.16-.69.07-1.38.13-2.06.2-6.22.62-12.38 1.53-18.53 2.86-.22.05-.44.09-.66.15-1.46.31-2.92.66-4.38 1.03-4.08-20.24-1.47-37.74 5.96-39.31 7.53-1.58 17.16 13.84 21.51 34.45.03.16.06.31.09.46z" fill="#c6c6c6"/><path d="m292.02 156.57s2.79-10.33 6.08-12.46c17.71-11.45 30.67-1.8 33.84-.23 3.17 1.58 7.66 12.69 7.66 12.69z" fill="#ca9e67"/><path d="m475.76 123.81s7.58-8.13 11.64-8.69c19.08-2.64 29.43 13.03 31.62 16.02s1.05 15.49 1.05 15.49z" fill="#ca9e67"/><ellipse cx="315.81" cy="171.74" fill="#b17f4a" rx="42.82" ry="22.7"/><path d="m354.52 181.45c2.09-2.59 3.23-5.43 3.23-8.39 0-12.53-20.37-22.69-45.51-22.69-6.9 0-13.4.76-19.25 2.13 6.6-2.2 14.44-3.48 22.82-3.48 23.65 0 42.83 10.17 42.83 22.71 0 3.49-1.46 6.79-4.12 9.72z" fill="#fff" opacity=".1"/><path d="m296.26 188.29h40.88v33.9h-40.88z" fill="#683c11"/><path d="m398.61 294.76s-1.62-3.9-.75-5.94c.92-2.17 1.65-4.34 1.65-4.34s-2.52-1.29-3.82.14c-1.51 1.66-1.4 4.21-1.2 4.67s-1.31 2.48-2.12 3.02c-.81.55 6.24 2.45 6.24 2.45z" fill="#eabba4"/><path d="m390.72 302c-1.63 2.06-4.48 2.4-6.66 1-1.19-.76-2.19-1.9-3.2-2.88-1.18-1.16-15.99-16.64-17.41-18.45-.7-.9-5.91-7.18-6.69-8.43-1.12-1.82-4.18-7.67-6.48-12.05-1.05-2.01-1.94-3.72-2.41-4.59-.17-.32-.35-.65-.53-.97-.44-.76-.88-1.51-1.33-2.27-.32-.55-.63-1.09-.94-1.64-.59-1.05-1.14-2.11-1.61-3.2-2-4.64-.31-10.1 3.98-12.81 3.91-2.47 9.07-1.88 12.44 1.24.95.88 2.77 6.45 4.26 11.39.13.45.26.89.39 1.32.68 2.31 1.26 4.37 1.62 5.58.59 2.05 1.22 4.1 1.9 6.12.35 1.01 1.19 3.65 1.31 3.99.42.36 13.16 16.6 16.42 21.82 1.61 2.58 3.14 5.21 4.68 7.83 1.31 2.23 2.01 4.79.26 7z" fill="#eabba4"/><path d="m359.7 276.55-.06-.06c.01.01.02.02.03.02.01.02.02.03.03.04z" fill="#eabba4"/><ellipse cx="316.47" cy="277.11" fill="#7a5d1b" rx="28.06" ry="2.74"/><path d="m342.62 279.17c.08-5.7-2.62-12.79.06-16.03.12-.14.22-.31.34-.44 3.4-3.6 4.4-18.61 5-23.41s5.4-17.7 0-20.11c-5.4-2.4-24.87-6.3-24.87-6.3h-13.69s-19.16 3.9-24.56 6.3-.6 15.3 0 20.11 1.6 19.81 5 23.41c.17.18.32.42.49.62 2.59 3.31 4.23 9.91 4.31 15.51l-9.33 25.88s14.9 0 31.1-.24c16.2.24 31.1.24 31.1.24z" fill="#f39200"/><path d="m323.06 203.91h-13.33l-2.29 12.76c0 1.81 4.01 3.28 8.96 3.28s8.96-1.47 8.96-3.28z" fill="#eabba4"/><path d="m351.5 184.3c-7.68 6.12-20.78 10.15-35.68 10.15-23.65 0-42.83-10.17-42.83-22.71 0-5.84 4.19-11.21 11.09-15.24-4.47 3.6-7.08 7.88-7.08 12.51 0 12.54 19.18 22.71 42.83 22.71 12.53 0 23.83-2.86 31.67-7.42z" fill="#1d1d1b" opacity=".1"/><ellipse cx="489.32" cy="147.82" fill="#b17f4a" rx="44.86" ry="21.21" transform="matrix(.906 .4232 -.4232 .906 108.53 -193.19)"/><path d="m522.22 173.2c3-1.27 5.21-3.17 6.38-5.67 4.96-10.61-10.36-28.24-34.23-39.38-6.55-3.06-13.02-5.3-19.11-6.73 7.13 1.06 15.08 3.45 23.04 7.17 22.44 10.48 36.63 27.6 31.67 38.21-1.38 2.95-4.07 5.1-7.75 6.4z" fill="#fff" opacity=".1"/><path d="m518.22 174.27c-9.71 1.78-23.74-.62-37.88-7.22-22.45-10.48-36.63-27.6-31.67-38.22 2.31-4.95 8.41-7.63 16.55-7.98-5.66 1.07-9.84 3.54-11.67 7.45-4.96 10.61 9.22 27.73 31.67 38.21 11.9 5.56 23.76 8.14 33 7.76z" fill="#1d1d1b" opacity=".1"/><path d="m338.34 176.75c0 15.27-9.82 32.12-21.93 32.12s-21.93-16.85-21.93-32.12 9.82-23.16 21.93-23.16 21.93 7.9 21.93 23.16z" fill="#eabba4"/><path d="m509.96 156.92c0 15.99-15.96 32.45-28.65 32.45s-17.29-16.46-17.29-32.45c0-.95.04-1.87.11-2.76.05-.64.11-1.26.2-1.87 1.8-12.95 11.26-19.63 22.66-19.63 12.69 0 22.97 8.27 22.97 24.26z" fill="#eabba4"/><path d="m498.86 180.72c-4.9 6.17-11.45 10.77-17.63 12.01l-.13-1.89-.4-1.48c.2.01.4.01.61.01 5.77 0 12.24-3.42 17.55-8.65z" fill="#1d1d1b" opacity=".1"/><path d="m308.04 195.77c.6 3.29 3.92 5.83 7.97 5.83 4.04 0 7.37-2.53 7.96-5.83 0 0-3.92 1.46-8.16 1.46-4.44 0-7.77-1.46-7.77-1.46z" fill="#fff"/><path d="m469.87 176.74c.47 3.45 1.56 5.04 4.72 5.04s6.57-3.35 7.04-6.8c0 0-3.66 1.26-7.4 1.83-3.44.53-4.36-.07-4.36-.07z" fill="#fff"/><ellipse cx="306.59" cy="180.05" fill="#1d1d1b" rx="1.59" ry="2.86"/><circle cx="307.36" cy="180.53" fill="#fff" r=".82"/><ellipse cx="324.67" cy="180.05" fill="#1d1d1b" rx="1.59" ry="2.86"/><circle cx="325.46" cy="180.26" fill="#fff" r=".83"/><path d="m329.84 176.61c-.26 0-.51-.12-.68-.34-2.63-3.44-5.98-1.98-6.12-1.92-.44.19-.94 0-1.14-.43-.19-.43 0-.94.43-1.14 1.64-.74 5.44-1.17 8.2 2.44.29.38.22.92-.16 1.21-.16.13-.35.18-.53.18z" fill="#7d4e24"/><path d="m301.73 176.61c.26 0 .52-.12.68-.34 2.63-3.44 5.98-1.98 6.12-1.92.44.19.94 0 1.14-.43s0-.94-.43-1.14c-1.64-.74-5.44-1.17-8.19 2.44-.29.38-.22.92.16 1.21.15.13.33.18.52.18z" fill="#7d4e24"/><path d="m318.81 189.18c0 .62-1.34 1.94-3 1.94s-3-1.32-3-1.94 1.34-.44 3-.44 3-.18 3 .44z" fill="#d3aa9b"/><path d="m468.05 160.02c0 1.65-.75 2.99-1.67 2.99s-1.67-1.34-1.67-2.99.75-2.99 1.67-2.99 1.67 1.34 1.67 2.99z" fill="#1d1d1b"/><circle cx="467.19" cy="160.52" fill="#fff" r=".86"/><path d="m484.52 160.39c0 1.65-.75 2.99-1.67 2.99s-1.67-1.34-1.67-2.99.75-2.99 1.67-2.99c.92-.01 1.67 1.33 1.67 2.99z" fill="#1d1d1b"/><circle cx="483.68" cy="160.6" fill="#fff" r=".86"/><path d="m488.27 156.79c-.27 0-.54-.12-.71-.35-2.75-3.6-6.27-2.07-6.41-2.01-.46.2-.99 0-1.19-.45s0-.99.45-1.19c1.71-.77 5.7-1.22 8.59 2.56.3.4.23.96-.17 1.26-.18.12-.37.18-.56.18z" fill="#7d4e24"/><path d="m468.59 153.92c-.21.46-.74.66-1.19.45-.09-.04-1.53-.66-3.27-.21.05-.64.11-1.26.2-1.87 1.55-.24 2.96.06 3.81.44.45.21.65.74.45 1.19z" fill="#7d4e24"/><path d="m476.72 169.95c0 .65-1.41 2.03-3.14 2.03-1.74 0-3.14-1.38-3.14-2.03s1.41-.47 3.14-.47c1.73.01 3.14-.18 3.14.47z" fill="#d3aa9b"/><path d="m335.96 188.28c.18.07.39.11.59.16-3.37 11.07-11.14 20.42-20.14 20.42-2.59 0-5.06-.8-7.38-2.15 1.9.87 3.87 1.4 5.94 1.4 9 0 16.75-9.3 20.12-20.35.25.23.55.41.87.52z" fill="#1d1d1b" opacity=".1"/><path d="m293.21 166.23s27.49-8.74 44.52-5.3-6.71-7.97-6.71-7.97-27.02-1.62-27.31-1.53c-.28.09-10.5 14.8-10.5 14.8z" fill="#b17f4a"/><path d="m325.35 160.5s-4.31 4.58-8.03 5.73-15.47 2.75-16.47 4.38-3.59 8.77-3.15 10.62c0 0-1.2-1.77-3.1-1.56s-1.12-15.12 2.38-17.03c7.02-3.82 29.26-6.16 36.68-2.15 4.5 2.43 5.53 18.2 4.6 18.37s-2.33.22-3.26 1.81c0 0-1.07-10.72-3.8-12.73-2.71-2-5.85-7.44-5.85-7.44z" fill="#683c11"/><ellipse cx="294.48" cy="183.68" fill="#eabba4" rx="3.92" ry="4.94" transform="matrix(.933 -.3599 .3599 .933 -46.369 118.28)"/><path d="m341.39 185.08c-.89 2.29-2.96 3.71-4.84 3.37-.21-.05-.41-.09-.59-.16-.32-.11-.62-.3-.87-.53-1.38-1.12-1.83-3.37-1.01-5.5.55-1.4 1.54-2.48 2.66-3 .5-.23 1.01-.37 1.54-.39.41-.02.83.05 1.24.21 2.01.77 2.86 3.45 1.87 6z" fill="#eabba4"/><path d="m337.14 180.74c3.05-2.01 4.11 2.48 2.46 4.44-.1-2.16.13-4.01-2.46-4.44z" fill="#d3aa9b"/><path d="m294.83 180.74c-3.05-2.01-4.11 2.48-2.46 4.44.11-2.16-.12-4.01 2.46-4.44z" fill="#d3aa9b"/><path d="m342.62 279.17c.08-5.7-2.62-12.79.06-16.03-2.67 3.78-7.25 6.27-15.85.17-4.08-2.9-14.73-3.61-20.73.44-4.51 3.04-11.15 1.37-15.71-.43 2.59 3.31 4.23 9.91 4.31 15.51l-9.33 25.88s14.9 0 31.1-.24c16.2.24 31.1.24 31.1.24z" fill="#1d1d1b" opacity=".1"/><path d="m364.89 248.08s-.04.01-.11.04c-1.34.46-14.46 5.06-17.45 7.52-.79.65-1.3-1.2-1.55-4.35-.78-9.43.69-30.48 3.57-31.12 0 0 14.19 19.47 15.54 27.91z" fill="#e28c1a"/><path d="m344.46 276.8s-14.21 2.67-27.99 1.95c-13.78.72-27.99-1.95-27.99-1.95s-7.94 44.08-6.55 81.41 9.11 63.88 9.11 63.88l14.29 1.62s5.94-57.62 5.94-60.67c0-2.1 3.11-42 3.11-42h4.2s3.11 39.9 3.11 42c0 3.05 4.44 60.67 4.44 60.67l13.07-1.43s9.92-25.28 11.31-62.61c1.37-37.34-6.05-82.87-6.05-82.87z" fill="#968045"/><path d="m297.76 239.75h38.33v41.67h-38.33z" fill="#968045"/><path d="m336.09 240.72 2.75-24.9s-2.94-1.58-4.86-1.25-3.13 26.15-3.13 26.15z" fill="#968045"/><path d="m297.86 240.72-2.75-24.9s2.94-1.58 4.86-1.25 3.13 26.15 3.13 26.15z" fill="#968045"/><path d="m286.13 449c0 1.36.65 2.46 1.44 2.46h20.23c.8 0 1.44-1.1 1.44-2.46s-.64-2.46-1.44-2.46h-20.23c-.79 0-1.44 1.1-1.44 2.46z" fill="#54351c"/><path d="m308.77 402.17-.24 3.36-.1 1.35-.13 1.86-.1 1.34-.95 13.34-.18 2.54v.04l-.05.69v.01l-.11 1.55s0 .01-.01.01l-.54 7.66h-16.71l-.17-1.44v-.01l-.29-2.51-.01-.02-.42-3.65-1.19-10.21-.73-6.25-.18-1.54-.16-1.35-.22-1.8-.15-1.36-.42-3.6h23.06z" fill="#9b9180"/><path d="m289.67 435.71h16.71l2.4 9.82h-22.17z" fill="#9b9180"/><path d="m309.8 446.42c0 4.1-5.84 3.32-12.53 3.32-6.7 0-11.7.78-11.7-3.32 0-4.09 5.43-7.41 12.12-7.41 1.94 0 3.76.28 5.39.77.47.14.92.3 1.35.48.02.01.03.01.06.02.37.15.71.31 1.05.49.12.06.24.12.35.19.53.29 1.02.62 1.46.97 1.53 1.24 2.45 2.8 2.45 4.49z" fill="#aaa193"/><path d="m286.52 408.93.16 1.36c2.96.5 6.1.68 9.09.68 5.07 0 9.74-.52 12.44-.89l.1-1.34c-4.16.57-13.82 1.61-21.79.19z" fill="#fff" opacity=".4"/><path d="m287.58 415.26c1.97 2.06.81 3.29.01 2.82l-.73-6.25c.57.12 1.11.97.57 2.81 1.28-4.34 4.66-.81.26.26 4.4-1.07 3.02 3.63-.11.36z" fill="#fff" opacity=".4"/><path d="m296.46 423.04c3.13 3.27-1.63 4.43-.36.09-1.27 4.34-4.65.81-.25-.27-4.4 1.07-3.02-3.63.1-.35-3.13-3.27 1.63-4.43.36-.09 1.27-4.34 4.65-.8.25.27 4.4-1.07 3.02 3.63-.1.35z" fill="#fff" opacity=".4"/><path d="m302.58 415c3.13 3.27-1.63 4.43-.36.09-1.27 4.34-4.65.8-.25-.27-4.4 1.07-3.02-3.63.1-.35-3.13-3.27 1.63-4.43.36-.09 1.27-4.34 4.65-.8.25.27 4.4-1.08 3.03 3.62-.1.35z" fill="#fff" opacity=".4"/><path d="m305.32 402.17c-1.12 3.09-3.41 1.29-1.69 0z" fill="#fff" opacity=".4"/><path d="m306.23 402.17c2.17 2.79-1.71 3.66-.87 0z" fill="#fff" opacity=".4"/><path d="m308.72 402.17c-.03.65-.96 1.16-2.37 0z" fill="#fff" opacity=".4"/><path d="m307.03 426.7-.11 1.55s0 .01-.01.01c-1.41 2.03-3.36-.58.12-1.56z" fill="#fff" opacity=".4"/><path d="m307.08 426-.05.69c-3.97.82-2.82-3.33.05-.69z" fill="#fff" opacity=".4"/><path d="m307.26 423.42-.18 2.54c-1.48-1.78-.57-2.84.18-2.54z" fill="#fff" opacity=".4"/><path d="m289.2 431.94c.01-.04.03-.08.04-.12-.01.05-.03.1-.03.14-.38 1.4-.11 2.2.29 2.51v.01c.81.64 2.16-.6.1-2.75 3.12 3.27 4.5-1.43.1-.35 4.39-1.07 1.01-4.61-.26-.26.57-1.96-.08-2.8-.67-2.83z" fill="#fff" opacity=".4"/><path d="m301.33 434.17c3.13 3.27-1.63 4.43-.36.09-1.27 4.34-4.65.81-.25-.27-4.4 1.07-3.02-3.63.1-.35-3.13-3.27 1.63-4.43.36-.09 1.27-4.34 4.65-.81.25.27 4.4-1.08 3.03 3.62-.1.35z" fill="#fff" opacity=".4"/><path d="m292.76 445.23c3.13 3.27-1.63 4.43-.36.09-1.27 4.34-4.65.8-.25-.27-4.4 1.07-3.02-3.63.1-.35-3.13-3.27 1.63-4.43.36-.09 1.27-4.34 4.65-.8.25.27 4.4-1.08 3.02 3.62-.1.35z" fill="#fff" opacity=".6"/><path d="m305.87 440.96c-.37-.02-.81.02-1.34.15.39-.1.72-.21.99-.34-.33-.18-.68-.34-1.05-.49-.07.17-.13.36-.19.57.06-.21.1-.41.14-.59-.43-.18-.88-.34-1.35-.48.17.34.44.73.85 1.15-3.13-3.27-4.5 1.43-.1.36-4.4 1.08-1.01 4.61.26.27-1.27 4.34 3.48 3.19.35-.09 1.71 1.8 2.9 1.19 2.9.47z" fill="#fff" opacity=".6"/><path d="m286.15 405.77.16 1.36c3 .52 6.19.7 9.23.7 5.37 0 10.29-.58 12.9-.95l.09-1.34c-3.89.55-14.08 1.74-22.38.23z" fill="#fff" opacity=".4"/><path d="m294.45 405.98c3.13 3.27-1.63 4.43-.36.09-1.27 4.34-4.65.81-.25-.27-4.4 1.07-3.02-3.63.1-.35-3.13-3.27 1.63-4.43.36-.09 1.27-4.35 4.65-.81.25.27 4.4-1.08 3.03 3.62-.1.35z" fill="#fff" opacity=".4"/><path d="m322.99 449.86c0 1.36.65 2.46 1.44 2.46h20.23c.8 0 1.44-1.1 1.44-2.46s-.64-2.46-1.44-2.46h-20.23c-.79 0-1.44 1.1-1.44 2.46z" fill="#54351c"/><path d="m345.64 403.03-.24 3.36-.1 1.35-.13 1.86-.1 1.34-.95 13.34-.18 2.54v.04l-.05.69v.01l-.11 1.55s0 .01-.01.01l-.54 7.66h-16.71l-.17-1.44v-.01l-.29-2.51-.01-.02-.42-3.65-1.19-10.21-.73-6.25-.18-1.54-.16-1.35-.22-1.8-.15-1.36-.42-3.6h23.06z" fill="#9b9180"/><path d="m326.53 436.56h16.71l2.4 9.83h-22.17z" fill="#9b9180"/><path d="m346.67 447.28c0 4.1-5.84 3.32-12.54 3.32s-11.7.78-11.7-3.32c0-4.09 5.43-7.41 12.12-7.41 1.94 0 3.76.28 5.39.77.47.14.92.3 1.35.48.02.01.04.01.06.02.37.15.71.31 1.05.49.12.06.24.12.35.19.54.29 1.02.62 1.46.97 1.53 1.24 2.46 2.79 2.46 4.49z" fill="#aaa193"/><g fill="#fff"><path d="m323.38 409.79.16 1.36c2.96.5 6.1.68 9.09.68 5.07 0 9.74-.52 12.44-.89l.1-1.34c-4.16.57-13.82 1.6-21.79.19z" opacity=".4"/><path d="m324.45 416.11c1.97 2.06.81 3.29.01 2.82l-.73-6.25c.57.12 1.11.97.57 2.81 1.28-4.34 4.66-.81.26.26 4.39-1.06 3.02 3.64-.11.36z" opacity=".4"/><path d="m333.32 423.9c3.13 3.27-1.63 4.43-.36.09-1.27 4.34-4.65.81-.25-.27-4.4 1.07-3.02-3.63.1-.35-3.13-3.27 1.63-4.43.36-.09 1.27-4.34 4.65-.8.26.27 4.39-1.08 3.02 3.62-.11.35z" opacity=".4"/><path d="m339.44 415.85c3.13 3.27-1.63 4.43-.36.09-1.27 4.34-4.65.8-.25-.27-4.4 1.07-3.02-3.63.1-.35-3.13-3.27 1.63-4.43.36-.09 1.27-4.34 4.65-.8.26.27 4.4-1.07 3.02 3.63-.11.35z" opacity=".4"/><path d="m342.19 403.03c-1.13 3.09-3.41 1.29-1.69 0z" opacity=".4"/><path d="m343.1 403.03c2.17 2.79-1.71 3.66-.87 0z" opacity=".4"/><path d="m345.58 403.03c-.03.65-.96 1.16-2.37 0z" opacity=".4"/><path d="m343.9 427.55-.11 1.55s0 .01-.01.01c-1.41 2.04-3.37-.57.12-1.56z" opacity=".4"/><path d="m343.95 426.86-.05.69c-3.98.81-2.82-3.34.05-.69z" opacity=".4"/><path d="m344.13 424.28-.18 2.54c-1.49-1.79-.57-2.84.18-2.54z" opacity=".4"/><path d="m326.07 432.8c.01-.04.03-.08.04-.12-.01.05-.03.1-.04.14-.38 1.4-.11 2.2.29 2.51v.01c.81.64 2.16-.6.11-2.75 3.12 3.27 4.5-1.43.1-.35 4.39-1.07 1.01-4.61-.26-.26.57-1.96-.08-2.8-.67-2.83z" opacity=".4"/><path d="m338.2 435.02c3.13 3.27-1.63 4.43-.36.09-1.27 4.34-4.65.81-.25-.27-4.4 1.07-3.02-3.63.1-.35-3.13-3.27 1.63-4.43.36-.09 1.27-4.34 4.65-.81.25.27 4.4-1.07 3.02 3.63-.1.35z" opacity=".4"/><path d="m329.62 446.09c3.13 3.27-1.63 4.43-.36.09-1.27 4.34-4.65.8-.25-.27-4.4 1.07-3.02-3.63.1-.35-3.13-3.27 1.63-4.43.36-.09 1.27-4.34 4.65-.8.25.27 4.4-1.08 3.03 3.62-.1.35z" opacity=".6"/><path d="m342.73 441.82c-.37-.02-.81.02-1.34.15.39-.1.72-.21.99-.34-.33-.18-.68-.34-1.05-.49-.07.17-.13.36-.2.57.06-.21.1-.41.14-.59-.43-.18-.88-.34-1.35-.48.17.34.44.73.85 1.15-3.13-3.27-4.5 1.43-.1.36-4.4 1.08-1.01 4.61.26.27-1.27 4.34 3.49 3.19.35-.09 1.71 1.8 2.9 1.19 2.9.47z" opacity=".6"/><path d="m323.02 406.63.16 1.36c3 .52 6.19.7 9.23.7 5.37 0 10.29-.58 12.9-.95l.09-1.34c-3.9.55-14.08 1.73-22.38.23z" opacity=".4"/><path d="m331.31 406.83c3.13 3.27-1.63 4.43-.36.09-1.27 4.34-4.65.81-.25-.27-4.4 1.07-3.02-3.63.1-.35-3.13-3.27 1.63-4.43.36-.09 1.27-4.35 4.65-.81.26.27 4.39-1.07 3.02 3.63-.11.35z" opacity=".4"/><path d="m292.16 443.03c0-1.95 2.58-3.53 5.77-3.53 3.18 0 5.77 1.58 5.77 3.53s-2.78 1.58-5.97 1.58-5.57.37-5.57-1.58z" opacity=".4"/><path d="m328.35 443.89c0-1.95 2.58-3.53 5.77-3.53 3.18 0 5.77 1.58 5.77 3.53s-2.78 1.58-5.97 1.58-5.57.37-5.57-1.58z" opacity=".4"/></g><path d="m380.1 285.92h4.48v161.62h-4.48z" fill="#c4bcad" transform="matrix(.9955 .0943 -.0943 .9955 36.297 -34.43)"/><path d="m358.81 405.15c0 .02 0 .04-.01.06-1.56 16.45 1.66 43.27 15.81 44.6 14.44 1.36 22.35-24.39 23.91-40.83v-.06s-12.41 1.99-20.1.69c-8.25-1.4-19.61-4.46-19.61-4.46z" fill="#b2b2b2"/><path d="m378.28 409.57c-8.24-1.4-19.47-4.43-19.47-4.43 0 .02 0 .04-.01.06-1.55 16.39 1.65 43.08 15.67 44.58z" fill="#c6c6c6"/><path d="m375.61 402.13-1.13 27.37c-.04.96.65 1.82 1.63 1.97 1.04.16 2.01-.56 2.17-1.61l4.03-27.1z" fill="#dadada"/><path d="m361.46 409.2c.55 6.39 1.24 12.83 2.58 19.11 1.49 6.98 3.71 13.89 8.36 19.43-6-4.5-8.89-11.87-10.3-19.03-1.23-6.31-1.7-13.14-.64-19.51z" fill="#fff" opacity=".2"/><path d="m388.23 304.62c-1.99-.19-3.46-1.96-3.27-3.95l1.14-12.07c.19-1.99 1.96-3.46 3.95-3.27s3.46 1.96 3.27 3.95l-1.14 12.07c-.19 2-1.96 3.46-3.95 3.27z" fill="#a7bc7a"/><path d="m403.38 274.46v.02c-.74 7.83-6.81 13.68-13.53 13.04s-11.58-7.53-10.84-15.35v-.02l-3.98-.38v.02c-.95 10.03 5.53 18.87 14.45 19.71s16.94-6.62 17.89-16.65v-.02z" fill="#a7bc7a"/><path d="m375.14 269.5h32.48v3.81h-32.48z" fill="#a7bc7a" transform="matrix(.9955 .0944 -.0944 .9955 27.36 -35.723)"/><path d="m391.91 291.38c-.49-.12-.98-.24-1.46-.36-1.73-.43-3.64-.9-5.35-.17-1.24.52-2.59 2.27.53 3.67-4.16-.31-3.25 3.41-1.46 3.77-1.89.41-2.18 3.16-.17 3.88-1.91.84-1.09 2.92 1.46 3.6 2.22.6 7.5 1.53 9.41.22 4.15-2.84 7.48-9.94 1.85-12.95-1.51-.81-3.16-1.25-4.81-1.66z" fill="#efcbbd"/><path d="m468.66 141.17s18.17 6.81 21.7 8.74 2.24 9.74 2.24 9.74l8.85 1.82s2 11.89.76 15.52c0 0 2.85-1.49 3.63-2 6.48-4.26 6.48-17.59 6.48-17.59l-32.46-22.46c.01-.01-6.29-2.28-11.2 6.23z" fill="#683c11"/><path d="m288.4 240.72s-3.18-21.27-3.49-21.53c0 0-18.26 10.94-27.41 18.71 0 0 10.55 11.01 12.17 14.75.18.42.54.37 1.02-.04 1.52-1.31 17.71-11.89 17.71-11.89z" fill="#e28c1a"/><path d="m277.07 243.37s.01-.32.01-.92c0-.61 0-1.52-.03-2.68-.07-2.32-.24-5.65-.69-9.62-.44-3.98-1.15-8.6-2.25-13.49-.53-2.45-1.2-4.95-1.92-7.48-.77-2.52-1.59-5.07-2.55-7.57-.47-1.26-.96-2.5-1.49-3.72-.5-1.24-1.07-2.44-1.63-3.63-1.13-2.39-2.36-4.67-3.63-6.84-.63-1.09-1.32-2.12-1.96-3.15-.66-1.02-1.36-1.97-2.01-2.93-1.37-1.86-2.7-3.59-4.04-5.1-1.28-1.57-2.63-2.84-3.74-4.05-1.2-1.12-2.24-2.11-3.12-2.9-1.82-1.51-2.86-2.38-2.86-2.38s1.08.82 2.97 2.24c.92.74 2 1.69 3.26 2.76 1.18 1.16 2.59 2.38 3.95 3.9 1.42 1.46 2.85 3.15 4.32 4.96.7.93 1.46 1.87 2.17 2.87.69 1.01 1.44 2.02 2.13 3.1 1.39 2.14 2.75 4.41 4.01 6.78.63 1.19 1.26 2.38 1.83 3.62.6 1.22 1.16 2.46 1.7 3.72 1.1 2.5 2.05 5.06 2.95 7.59.85 2.55 1.66 5.07 2.32 7.55 1.36 4.94 2.3 9.64 2.94 13.7.65 4.06.99 7.47 1.17 9.88.09 1.2.14 2.15.16 2.81s.03 1.02.03 1.02z" fill="#7b6a58"/><path d="m270.95 248.58s-.01-.29-.03-.83c-.02-.55-.07-1.36-.13-2.39-.14-2.07-.42-5.03-.91-8.57-.25-1.77-.55-3.68-.92-5.7-.38-2.01-.81-4.13-1.34-6.3-.51-2.18-1.14-4.4-1.82-6.65-.71-2.23-1.47-4.5-2.37-6.71-.86-2.23-1.86-4.39-2.91-6.49-.52-1.05-1.11-2.06-1.65-3.07-.6-.98-1.18-1.96-1.79-2.9-1.24-1.86-2.53-3.61-3.86-5.17-1.33-1.57-2.7-2.95-4.01-4.17-.68-.59-1.34-1.15-1.96-1.68-.66-.49-1.29-.95-1.87-1.38-.58-.45-1.17-.8-1.71-1.13s-1.04-.64-1.49-.91c-1.87-.97-2.95-1.51-2.95-1.51s1.11.47 3.03 1.35c.46.25.98.53 1.54.84.56.3 1.17.63 1.78 1.05.62.41 1.27.84 1.96 1.3.66.51 1.35 1.04 2.07 1.6 1.4 1.17 2.86 2.5 4.3 4.03 1.44 1.52 2.84 3.23 4.21 5.07.67.93 1.31 1.89 1.98 2.87.61 1.01 1.26 2 1.85 3.05 1.18 2.09 2.33 4.25 3.32 6.48 1.03 2.21 1.93 4.49 2.78 6.73.81 2.26 1.57 4.5 2.21 6.7.66 2.19 1.21 4.34 1.71 6.38.49 2.04.9 3.98 1.25 5.78.69 3.6 1.13 6.63 1.39 8.76.13 1.07.22 1.91.27 2.49.05.59.08.9.08.9z" fill="#7b6a58"/><path d="m265.77 248.99s-.08-.3-.22-.87c-.15-.58-.39-1.43-.72-2.5-.67-2.16-1.69-5.24-3.21-8.83-.75-1.8-1.62-3.72-2.61-5.73-1-2-2.1-4.08-3.36-6.18-1.22-2.11-2.63-4.2-4.11-6.3-1.51-2.07-3.11-4.13-4.85-6.06l-1.31-1.45c-.45-.47-.91-.93-1.37-1.39-.9-.94-1.86-1.8-2.81-2.67-.93-.89-1.96-1.64-2.92-2.46-.98-.79-2.01-1.49-2.99-2.23-1.01-.69-2.04-1.32-3.03-1.97-1.03-.58-2.04-1.15-3.02-1.7-1-.52-2-.97-2.95-1.43-.95-.47-1.93-.79-2.83-1.18-.46-.18-.9-.37-1.35-.53-.45-.15-.89-.29-1.31-.42-.86-.27-1.66-.56-2.44-.77-1.56-.37-2.91-.76-4.04-.97-2.27-.4-3.57-.63-3.57-.63s1.31.17 3.6.46c1.15.16 2.52.48 4.1.79.79.18 1.61.43 2.49.66.44.12.89.24 1.35.37s.91.31 1.38.47c.93.34 1.94.63 2.92 1.06.99.42 2.02.84 3.06 1.31 1.02.51 2.07 1.04 3.15 1.58 1.04.61 2.11 1.21 3.18 1.86 1.04.7 2.12 1.37 3.16 2.13 1.02.79 2.11 1.51 3.1 2.38 1.01.84 2.04 1.68 3.01 2.6.49.45.99.9 1.47 1.36l1.41 1.43c1.88 1.91 3.63 3.94 5.28 6 1.62 2.08 3.17 4.17 4.53 6.28 1.39 2.09 2.63 4.18 3.76 6.2 1.12 2.02 2.11 3.96 2.98 5.78 1.74 3.63 2.95 6.77 3.76 9 .4 1.12.69 2 .88 2.62.19.63.29.96.29.96z" fill="#7b6a58"/><path d="m257.78 252.47s-.01-.29-.05-.62c-.02-.34-.13-.97-.27-1.73-.19-.77-.39-1.71-.78-2.76-.09-.27-.18-.54-.27-.82-.12-.27-.24-.56-.36-.85-.26-.57-.48-1.21-.82-1.81-.34-.61-.69-1.25-1.05-1.91s-.85-1.28-1.29-1.95c-.23-.33-.46-.67-.69-1.01-.25-.33-.54-.64-.81-.97-.55-.65-1.12-1.31-1.7-1.98-.65-.61-1.3-1.23-1.97-1.86-.33-.32-.67-.63-1.01-.95-.37-.28-.74-.57-1.11-.85-.75-.57-1.51-1.15-2.26-1.73-.76-.58-1.62-1.02-2.43-1.54-.82-.5-1.65-1-2.47-1.5-.87-.42-1.73-.83-2.59-1.25-.86-.41-1.71-.83-2.56-1.23-.87-.35-1.74-.65-2.6-.98-.86-.32-1.7-.63-2.52-.94l-1.23-.45c-.41-.11-.82-.23-1.23-.34-1.62-.45-3.15-.87-4.56-1.27-1.41-.44-2.74-.63-3.91-.87-1.17-.23-2.2-.43-3.04-.59-1.69-.33-2.65-.52-2.65-.52s.97.13 2.68.35c.85.11 1.89.24 3.08.4 1.19.17 2.54.28 3.98.63 1.45.3 3.02.63 4.68.98l1.26.27c.42.12.84.25 1.27.38.85.26 1.73.52 2.62.79s1.8.53 2.71.83c.89.36 1.79.72 2.69 1.09.91.37 1.82.74 2.74 1.11.88.46 1.77.92 2.65 1.39.88.48 1.8.89 2.63 1.44.83.56 1.67 1.11 2.49 1.66.41.28.82.55 1.23.83.38.31.76.63 1.13.94.75.63 1.5 1.25 2.23 1.85.67.68 1.32 1.36 1.96 2.02.32.33.65.65.94.99.28.35.56.71.83 1.05.53.7 1.11 1.35 1.56 2.05.45.71.88 1.39 1.3 2.04.42.66.71 1.35 1.05 1.97.16.32.32.63.47.93.13.31.25.62.37.91.51 1.17.83 2.25 1.1 3.14.23.92.4 1.61.48 2.18.1.57.11.78.11.78z" fill="#7b6a58"/><g fill="#1d1d1b" opacity=".1"><path d="m286.32 358.21c.65 17.61 2.72 32.82 4.72 43.97h-4.39c-2-11.15-4.06-26.36-4.72-43.97-1.39-37.33 6.55-81.41 6.55-81.41s1.61.31 4.27.68c-.98 5.65-7.72 46.09-6.43 80.73z"/><path d="m328.93 403.03h-4.39c-1.27-16.86-2.86-38.17-2.86-39.99 0-1.87-2.49-34-3.01-40.75.06-.8.09-1.25.09-1.25h4.2s3.11 39.91 3.11 42c0 1.82 1.59 23.14 2.86 39.99z"/></g><path d="m334.85 287.38 5.91 5.21 4.88 2.17-5.94-.87-5.15-2.82z" fill="#1d1d1b" opacity=".2"/><path d="m304.51 252.33h23.46v2.52h-23.46z" fill="#1d1d1b" opacity=".2"/><path d="m304.51 255.77s-1.23 14.64 0 15.64 23.91.86 25.27.36-1.81-16-1.81-16 .91 13.87 0 14.35-22.59.66-22.64 0-.82-14.35-.82-14.35z" fill="#1d1d1b" opacity=".2"/><circle cx="341.72" cy="284.44" fill="#1d1d1b" opacity=".2" r="1.63"/><circle cx="344.28" cy="302.19" fill="#1d1d1b" opacity=".2" r="1.66"/><circle cx="289.43" cy="303.14" fill="#1d1d1b" opacity=".2" r="1.66"/><path d="m307.07 279.85h26.57l-27.52 2.97z" fill="#1d1d1b" opacity=".2"/><path d="m315.72 288.28-1.13 29.72 2.45-1.36v-28.36z" fill="#1d1d1b" opacity=".2"/><path d="m338.19 237.67c0 1.73-1.4 3.14-3.13 3.14h-2.98c-1.73 0-3.13-1.4-3.13-3.14 0-1.73 1.4-3.14 3.13-3.14h2.98c1.72.01 3.13 1.41 3.13 3.14z" fill="none" stroke="#9d9d9c" stroke-miterlimit="10"/><path d="m304.68 237.97c0 1.73-1.4 3.14-3.13 3.14h-2.98c-1.73 0-3.13-1.4-3.13-3.14 0-1.73 1.4-3.14 3.13-3.14h2.98c1.72 0 3.13 1.41 3.13 3.14z" fill="none" stroke="#9d9d9c" stroke-miterlimit="10"/><path d="m487.48 402.13s-.09 1.38-.25 3.59c-.03.44-.07.91-.1 1.41-.04.58-.09 1.21-.14 1.86-.04.46-.07.93-.11 1.41-.72 9.16-1.94 23-2.99 25.6.4.05 2.21 6.18-.58 11.3-1.59 2.92-33.3 1.65-37.34 1.05-1.89-.28-3.55-3.31-2.57-5.7.68-1.68 2.65-3.05 6.75-2.94 5.54.16 15.28-6.08 16.28-9.42.02-6.63-.83-14.24-1.62-19.88-.06-.48-.13-.96-.2-1.41-.1-.7-.2-1.34-.29-1.95-.08-.5-.16-.98-.23-1.42-.36-2.18-.61-3.5-.61-3.5z" fill="#f2992f"/><path d="m483.68 446.03s-11.46.12-11.65.07c-6.86-1.49-20.6 1.88-27.46.39-.81-.17-1.47.43-1.47 1.47s.66 2.1 1.47 2.27c6.86 1.47 20.6-1.92 27.46-.46.1.02.19.03.29.03.15.61.4 1.01.68 1.01h10.69c.46 0 .83-1.07.83-2.4-.02-1.31-.39-2.38-.84-2.38z" fill="#54351c"/><path d="m487.23 405.71c-.03.44-.07.91-.1 1.41-3.27.61-6.77.82-10.11.82-5.13 0-9.87-.51-12.72-.89-.08-.5-.16-.98-.22-1.42 4.5.62 14.82 1.7 23.15.08z" fill="#f9b233"/><path d="m486.98 408.99c-.04.45-.07.92-.11 1.41-3.26.6-6.76.81-10.09.81-4.72 0-9.1-.43-11.98-.79-.07-.49-.14-.96-.2-1.41 4.82.62 14.49 1.5 22.38-.02z" fill="#f9b233"/><path d="m501.96 453.07c0 1.45.69 2.62 1.53 2.62h21.54c.85 0 1.53-1.17 1.53-2.62s-.69-2.62-1.53-2.62h-21.54c-.84 0-1.53 1.17-1.53 2.62z" fill="#54351c"/><path d="m526.07 403.21-.25 3.58-.1 1.43-.14 1.98-.1 1.43-1.01 14.2-.19 2.71v.05l-.05.73v.01l-.12 1.66s0 .01-.01.01l-.58 8.15h-17.79l-.18-1.53v-.01l-.31-2.68-.01-.02-.45-3.89-1.26-10.87-.78-6.66-.19-1.64-.17-1.44-.23-1.92-.16-1.45-.45-3.83z" fill="#f2992f"/><path d="m505.72 438.91h17.79l2.56 10.47h-23.6z" fill="#f2992f"/><path d="m527.16 450.32c0 4.36-6.22 3.53-13.34 3.53-7.13 0-12.46.83-12.46-3.53s5.78-7.89 12.9-7.89c2.06 0 4 .29 5.74.82.5.15.97.32 1.43.51.02.01.04.01.06.02.39.16.76.33 1.12.53.13.06.25.12.37.2.57.31 1.08.66 1.55 1.04 1.65 1.31 2.63 2.97 2.63 4.77z" fill="#f9ab55"/><path d="m502.38 410.41.17 1.45c3.15.53 6.49.72 9.68.72 5.4 0 10.37-.55 13.25-.95l.1-1.43c-4.44.61-14.72 1.71-23.2.21z" fill="#f9b233"/><path d="m501.98 407.04.17 1.45c3.19.55 6.59.75 9.83.75 5.72 0 10.95-.62 13.73-1.02l.1-1.43c-4.15.6-14.99 1.86-23.83.25z" fill="#f9b233"/><path d="m528.97 399.38c0 3.87-2.59 7-5.8 7h-18.74c-3.2 0-5.8-3.13-5.8-7s2.59-7 5.8-7h18.74c3.2 0 5.8 3.13 5.8 7z" fill="#c4bcad"/><path d="m466.32 137.82s39.45 1.56 45.36 30.41l7.21-22.53-28.63-19.35z" fill="#b17f4a"/><path d="m503.59 161.12c-.94 2.4-3.1 3.89-5.07 3.53-.21-.05-.43-.1-.62-.17-.34-.12-.65-.31-.91-.55-1.44-1.18-1.92-3.53-1.06-5.76.58-1.47 1.61-2.59 2.79-3.15.53-.24 1.06-.38 1.61-.41.43-.02.87.05 1.3.22 2.1.81 2.99 3.62 1.96 6.29z" fill="#eabba4"/><path d="m499.14 156.57c3.2-2.1 4.31 2.59 2.58 4.65-.11-2.26.13-4.19-2.58-4.65z" fill="#d3aa9b"/><path d="m531.8 347.36-4.67 29.73v2.95l-3.19 12.6-19.86-.58-5.44-7.61v-9.81l-2.21-11.99-1.64-15v-31.84h-4.53v55.89l-2.78 10.79-2.97 1.96 5.75 2.46-4.02 5.83-1.73 2.51h-19.91s-8.57-25.32-4.41-27.99v-4.61l-4.26-18.92s1.36-27.95 3.63-49.02c.14-1.33.29-2.63.44-3.89.49-4.15 1.02-7.91 1.59-10.97.41-2.24.84-4.1 1.29-5.48 2.31-7.52-4.85-51.23-4.03-53.84l41.93 2.32s-1.39 21.02 7.2 27.96c8.58 6.93 21.86 9.77 21.86 9.77s-2.65 6.49-3.58 10.83c-1.95 9.01 3.92 34.84 3.92 34.84z" fill="#9b9180"/><path d="m513.46 192.29s-7.86.21-12.68 30.56h-6.92s9.67-31.15 13.52-32.17 6.08 1.61 6.08 1.61z" fill="#9b9180"/><path d="m478.47 191.2s-10.41 1.43-12.68 31.08l-7.4.57s6.12-29.27 12.77-31.71c3.74-1.37 7.31.06 7.31.06z" fill="#9b9180"/><path d="m501.8 221.11c-.22 1.72-1.79 2.93-3.5 2.71l-2.95-.38c-1.72-.22-2.93-1.79-2.71-3.51s1.79-2.93 3.5-2.71l2.95.38c1.72.22 2.93 1.79 2.71 3.51z" fill="none" stroke="#9d9d9c" stroke-miterlimit="10"/><path d="m467.04 219.07c-.22 1.72-1.79 2.93-3.5 2.71l-2.95-.38c-1.72-.22-2.93-1.79-2.71-3.51s1.79-2.93 3.5-2.71l2.95.38c1.71.22 2.93 1.79 2.71 3.51z" fill="none" stroke="#9d9d9c" stroke-miterlimit="10"/><path d="m498.86 252.33c-3.76-2.53-5-19.88-5-19.88s-24.12-.85-24.78-1.23h-5.37l.3 38.2 40.07 2.36.83-16.92c.01-.01-2.3-.01-6.05-2.53zm3.35 17.63-36.42-2.67-.26-33.67h4.73c.58.34 21.84 1.08 21.84 1.08s1.64 15.69 4.5 18.48c2.77 2.69 6.52 2.69 6.52 2.69z" fill="#1d1d1b" opacity=".1"/><path d="m523.94 276.08s-40.49 1.08-54.53-3.93-1 3.6-1 3.6 40.58 3.78 55.53.33z" fill="#1d1d1b" opacity=".1"/><path d="m483.97 279.85v34.01l2.17 1.95v-35.96z" fill="#1d1d1b" opacity=".1"/><path d="m506.48 281.67s6.53 11.73 8.88 13.31 11.76 0 11.76 0-8.49-2.12-10.32-3.41-6.85-10.76-6.85-10.76z" fill="#1d1d1b" opacity=".1"/><path d="m470.51 280.8s-6.52 11.74-8.87 13.31c-.46.31-1.2.5-2.08.6.14-1.33.29-2.63.44-3.89.07-.04.13-.08.19-.12 1.84-1.29 6.85-10.76 6.85-10.76z" fill="#1d1d1b" opacity=".1"/><path d="m490.26 315.81v55.89l-2.78 10.79-2.97 1.96 5.75 2.46-4.02 5.83-4.28-.74 5.27-3.92-8.93-2.58 6.76-4.37 2.42-8.1-1.33-57.22z" fill="#1d1d1b" opacity=".1"/><path d="m490.26 398.57c0 3.63-2.57 6.58-5.75 6.58h-18.58c-3.17 0-5.75-2.94-5.75-6.58 0-3.63 2.57-6.58 5.75-6.58h18.58c3.18 0 5.75 2.95 5.75 6.58z" fill="#c4bcad"/><path d="m523.67 314.25s3.96-10.17 7.85-11.64c0 0 .75-2.11 3.19 1.33 3.06 4.32-2.84 11.62-4.12 11.61s-7.9 7.05-9.65 4.99c-3.45-4.09 1.65-3.72 2.73-6.29z" fill="#eabba4"/><path d="m554.24 313.86h-30.4c-7.67.05-13.9 5.58-13.9 12.37v39.18c0 6.82 6.28 12.37 13.99 12.37l24.49.1h.01c1.3 0 2.62-.11 3.95-.33 8-1.35 15.86-7 15.86-19.67v-31.65c0-6.82-6.28-12.37-14-12.37zm8.87 44.02c0 10.19-6.14 13.43-10.73 14.43-1.62.36-3.05.43-3.95.43l-24.49-.09c-4.89 0-8.87-3.25-8.87-7.24v-39.18c0-2.93 2.14-5.45 5.21-6.59 1.12-.42 2.35-.65 3.66-.65h30.3c4.89 0 8.87 3.25 8.87 7.24z" fill="#b2b2b2"/><path d="m554.24 313.86h-30.4c-7.67.05-13.9 5.58-13.9 12.37v39.18c0 6.82 6.28 12.37 13.99 12.37l24.49.1h.01c1.3 0 2.62-.11 3.95-.33 8-1.35 15.86-7 15.86-19.67v-31.65c0-6.82-6.28-12.37-14-12.37zm10 44.02c0 11.13-7.04 14.54-11.86 15.56-1.77.39-3.24.44-3.95.44l-24.49-.1c-5.51 0-10-3.76-10-8.37v-39.18c0-3.38 2.41-6.3 5.87-7.62 1.26-.48 2.66-.75 4.13-.75h30.3c5.52 0 10 3.76 10 8.37z" fill="#c6c6c6"/><path d="m542.88 328.73h-31.96c-.33 0-.66.02-.98.05-.93.1-1.82.35-2.64.72-3.43 1.49-5.86 5.07-5.88 9.25v21.02c0 .42-.19.8-.48 1.05-.25.23-.58.37-.94.37h-6.72c-.78 0-1.76-.54-2.18-1.2l-12.94-20.13c-.42-.65-.46-1.75-.09-2.43 0 0 3.4-6.21 1.53-8.77-2.32-3.19-8.25-2.84-13.25.8-4.99 3.63-7.15 9.16-4.82 12.36 1.4 1.92 5.65 1.64 7.78 1.36 0 0 .02 0 .04-.01.73-.09 1.2-.19 1.2-.19.76-.15 1.71.27 2.1.95l28.05 48.41.53.92c.18.3.41.68.66 1.07.42 1.36 1.1 2.59 1.98 3.63.33.38.68.74 1.06 1.06.25.22.51.43.78.62.5.34 1.03.64 1.59.89.2.09.4.17.6.24 0 0 .01 0 .02.01.23.08.47.15.7.21s.45.11.68.15c.15.03.3.05.46.07.15.02.31.04.47.05.23.02.46.03.69.03h31.96c5.25 0 9.5-4.5 9.5-10.06v-52.48c-.03-5.54-4.27-10.02-9.5-10.02zm-42.22 46.13-5.96-9.26c-.42-.66-.13-1.2.65-1.2h4.65c.33 0 .64.12.88.32.33.25.54.65.54 1.1v8.82c0 .08 0 .15-.01.21-.06.58-.37.6-.75.01z" fill="#c6c6c6"/><ellipse cx="467.84" cy="330.9" fill="#9d9d9c" rx="1.37" ry=".67" transform="matrix(.8752 -.4837 .4837 .8752 -101.69 267.6)"/><ellipse cx="464.03" cy="334.75" fill="#9d9d9c" rx="1.37" ry=".67" transform="matrix(.8752 -.4837 .4837 .8752 -104.03 266.24)"/><ellipse cx="468.48" cy="334.75" fill="#9d9d9c" rx="1.37" ry=".67" transform="matrix(.8752 -.4837 .4837 .8752 -103.47 268.4)"/><ellipse cx="464.03" cy="338.86" fill="#9d9d9c" rx="1.37" ry=".67" transform="matrix(.8752 -.4837 .4837 .8752 -106.02 266.75)"/><ellipse cx="469.08" cy="338.86" fill="#9d9d9c" rx="1.37" ry=".67" transform="matrix(.8752 -.4837 .4837 .8752 -105.39 269.2)"/><ellipse cx="473.8" cy="334.75" fill="#9d9d9c" rx="1.37" ry=".67" transform="matrix(.8752 -.4837 .4837 .8752 -102.81 270.97)"/><ellipse cx="472.56" cy="330.9" fill="#9d9d9c" rx="1.37" ry=".67" transform="matrix(.8752 -.4837 .4837 .8752 -101.1 269.88)"/><ellipse cx="477.06" cy="330.38" fill="#9d9d9c" rx="1.37" ry=".67" transform="matrix(.8752 -.4837 .4837 .8752 -100.29 272)"/><ellipse cx="473.11" cy="328.06" fill="#9d9d9c" rx="1.37" ry=".67" transform="matrix(.8752 -.4837 .4837 .8752 -99.659 269.8)"/><path d="m501.42 338.75h50.96v2h-50.96z" fill="#fff"/><path d="m501.42 343.61h50.96v2h-50.96z" fill="#fff"/><path d="m500.7 392.34-28.05-48.41c-.39-.68-1.34-1.1-2.1-.95 0 0-.47.1-1.2.19.44-.13 4-1.17 5.69-2.42 0 0 24.97 44.76 25.49 46.35.3.91.25 3.33.17 5.24z" fill="#1d1d1b" opacity=".1"/><path d="m521.03 398.31c-5.83.65-11.54.53-17.16-.35 1.74 2.04 4.25 3.33 7.05 3.33h31.96c5.25 0 9.5-4.5 9.5-10.06v-5.73c-9.14 7.3-20.55 12.81-31.35 12.81z" fill="#1d1d1b" opacity=".1"/><path d="m507.3 329.5v52.63l-5.89-7.28c.01-.06.01-.13.01-.21v-8.82c0-.45-.21-.85-.54-1.1l.06-3.9c.29-.25.48-.63.48-1.05v-21.02c.02-4.18 2.45-7.76 5.88-9.25z" fill="#1d1d1b" opacity=".1"/><path d="m543.7 317.86c-.03.39-.08.75-.14 1.13v.01c-.06.29-.11.59-.18.88-.1.45-.22.89-.36 1.34-.01.05-.04.11-.05.17-.05.16-.15.32-.28.46l.23 1.99c.16.96-.64 1.9-1.8 2.14-1.16.23-2.22-.36-2.39-1.3l-.16-1.35c-.03.01-.07.01-.1.02l.01 1.72c.07.95-.82 1.81-2 1.9-1.17.09-2.19-.6-2.26-1.56v-.39c-.19.8-1.05 1.4-2.09 1.4-1.07.01-1.95-.62-2.12-1.45-.35.6-1.13 1-2.02.95-1.18-.06-2.1-.87-2.07-1.84 0 0-1.03-1.11-.97-3.13.01-.23.01-.83.01-1.42v-.01c-.01-.18-.01-.35-.01-.52v-.78c0-.12.01-.23.02-.35v-.01c.06-1.36.22-2.73.43-3.99v-.01c.43-2.69 1.01-4.79 1.08-4.89-.02-.18-.02-.37 0-.58v-.01c.13-1.25.98-2.96 1.4-3.56 0 0 .18-.63.37-1.41 0-.02.01-.03 0-.05.07-.65.16-1.6.23-2.86.16-2.5.28-6.18.25-10.59-.04-4.4-.2-9.6-.78-14.9-.15-1.33-.32-2.65-.54-3.95-.06-.36-5.42-25.58-7.64-35.94-.08-.37-.15-.71-.22-1.04 6.15-1.33 12.31-2.24 18.53-2.86.18 1.17.36 2.75.54 4.61 1.06 10.88 2.04 31.18 2.25 33.56.15 1.62.24 3.17.29 4.69.2 6.04-.03 11.49-.33 16.19-.29 4.32-.66 7.94-1.01 10.66.06 1.24.25 3.37.78 5.75 1.48 1.88 2.58 4.39 3 7.18v.01c.19 1.29.24 2.62.1 3.99z" fill="#eabba4"/><path d="m538.62 235.83c-6.42-2.27-15.94-1.14-18.85-.71-.08-.37-.15-.71-.22-1.04 6.15-1.33 12.31-2.24 18.53-2.86.18 1.17.36 2.75.54 4.61z" fill="#1d1d1b" opacity=".1"/><path d="m364.53 249.66c-1.94.86-11.18 5.19-14.25 11.53-1.05-2.01-1.94-3.72-2.41-4.59-.17-.32-.35-.65-.53-.97 2.73-2.24 13.81-6.24 16.8-7.29.13.45.26.89.39 1.32z" fill="#1d1d1b" opacity=".1"/><path d="m305.33 289.03-37.04 12.49-21.76-48.43 46.8-15.78z" fill="#43342b"/><path d="m300.05 253.6-4.42-19.06-52.61 17.73 8.02 17.85z" fill="#684f37"/><path d="m266.65 297.87 1.64 3.65 37.05-12.49-5.47-23.59c-3.2 15.59-17.32 26.94-33.22 32.43z" fill="#1d1d1c"/><path d="m252.24 283.33s4.43 5.97 7.98 7.43c1.4.58 5.02 7.88 5.47 8.15.44.27 2.58.19 1.9-1.81-.67-2-4.47-7.83-3.87-8.03s9 6.11 9.28 6.32c2.3 1.73 3.73-.32 2.48-1.45-2.13-1.93-7.18-6.36-7.18-6.36l8.78 4.87s1.35.44 1.76-.72c.41-1.17-.06-1.32-.64-1.87s-8.51-5.93-8.51-5.93 9.51.73 10.05.84c.54.1 1.36.04 1.54-.55s.33-1.06-.76-1.89c-1.08-.83-11.71-3.54-12.5-4.32-.79-.77-1.24-1.67-1-1.94s5.71-2.51 6.18-4.61c.46-2.09.16-2.77-.63-2.55s-2.94 1.99-3.68 2.28-5.14 1.13-6.15 1.56c-1.02.43-2.74 1.28-3.94 1.05-1.19-.24-8.63 2.78-6.56 9.53z" fill="url(#a)"/><path d="m295.74 229.41s-.28.36-.74.96c-.22.28-.49.61-.78.98-.29.38-.6.8-.94 1.25-1.35 1.73-2.99 3.83-5.31 4.87-2.3 1.02-4.4 1.13-5.84.59-1.46-.55-2.15-1.58-2.34-2.69-.17-.98.1-2.22.74-3.28.65-1.08 1.7-2.13 3.71-3.01 1.98-.89 4.92-1.28 7.33-1.06.6.06 1.16.13 1.65.23.52.13.96.26 1.33.4.73.29 1.15.57 1.19.76z" fill="#b0cc7e"/><path d="m295.74 229.39v.02s-.28.36-.74.95c-.22.28-.49.61-.78.98-.29.38-.6.8-.94 1.25-1.35 1.73-2.99 3.83-5.3 4.87-2.3 1.02-4.4 1.13-5.84.59-1.46-.55-2.15-1.58-2.35-2.69-.02-.11-.03-.22-.04-.33 2.05-.91 4.33-2.14 7-3.38 1.58-.73 3.19-1.35 4.72-1.77.78-.18 1.53-.34 2.24-.43.73-.05 1.41-.07 2.03-.06z" fill="none"/><path d="m295.74 229.39v.02s-.28.36-.74.95c-.22.28-.49.61-.78.98-.29.38-.6.8-.94 1.25-1.35 1.73-2.99 3.83-5.3 4.87-2.3 1.02-4.4 1.13-5.84.59-1.46-.55-2.15-1.58-2.35-2.69-.02-.11-.03-.22-.04-.33 2.05-.91 4.33-2.14 7-3.38 1.58-.73 3.19-1.35 4.72-1.77.78-.18 1.53-.34 2.24-.43.73-.05 1.41-.07 2.03-.06z" fill="#a6bc72"/><path d="m262.29 224.7s1.42-.71 3.37-1.29c1.94-.56 4.44-1.08 6.46-.5 4.05 1.1 5.14 3.56 4.59 5.43-.49 1.66-2.74 3.36-6.61 2.31-1.93-.56-3.92-1.8-5.4-3.1-1.49-1.26-2.48-2.51-2.41-2.85z" fill="#b0cc7e"/><path d="m262.29 224.72v-.02s1.42-.71 3.36-1.29c1.94-.56 4.44-1.08 6.46-.5 4.05 1.1 5.15 3.56 4.59 5.44-.03.09-.06.18-.1.27-2-.08-4.35-.44-6.82-1.11-2.95-.73-5.58-1.71-7.49-2.79z" fill="none"/><path d="m262.29 224.72v-.02s1.42-.71 3.36-1.29c1.94-.56 4.44-1.08 6.46-.5 4.05 1.1 5.15 3.56 4.59 5.44-.03.09-.06.18-.1.27-2-.08-4.35-.44-6.82-1.11-2.95-.73-5.58-1.71-7.49-2.79z" fill="#a6bc72"/><path d="m284.4 203.47s-.17.34-.45.89c-.13.28-.29.54-.43.92-.14.36-.29.75-.45 1.16-.61 1.66-1.17 3.56-2.11 4.83-.9 1.28-1.82 1.96-2.75 2.35-.91.38-1.98.5-2.87.25-.79-.21-1.57-.85-1.88-2.16-.3-1.28.03-3.09 1.4-4.99 1.38-1.87 3.8-3.12 5.82-3.55.52-.1 1.01-.16 1.44-.19.42-.04.86.02 1.18.06.66.11 1.03.28 1.1.43z" fill="#b0cc7e"/><path d="m284.39 203.46.01.02s-.17.34-.45.89c-.13.28-.29.54-.43.92-.14.36-.29.75-.45 1.16-.61 1.66-1.17 3.56-2.11 4.83-.9 1.28-1.82 1.96-2.75 2.35-.91.38-1.98.5-2.87.26-.09-.02-.17-.05-.26-.09.11-1.96 1.09-4.26 2.72-6.23 1.92-2.36 4.47-3.9 6.59-4.11z" fill="none"/><path d="m284.39 203.46.01.02s-.17.34-.45.89c-.13.28-.29.54-.43.92-.14.36-.29.75-.45 1.16-.61 1.66-1.17 3.56-2.11 4.83-.9 1.28-1.82 1.96-2.75 2.35-.91.38-1.98.5-2.87.26-.09-.02-.17-.05-.26-.09.11-1.96 1.09-4.26 2.72-6.23 1.92-2.36 4.47-3.9 6.59-4.11z" fill="#a6bc72"/><path d="m254.6 192.78s1.21-.68 2.86-1.31c1.64-.61 3.83-1.17 5.79-.65 1.95.53 3.22 1.51 3.77 2.52.56 1.02.47 1.96.06 2.71-.36.66-1.11 1.26-2.03 1.56-.93.3-2.05.39-3.56-.02-1.5-.4-3.26-1.41-4.64-2.44-1.37-1.03-2.31-2.08-2.25-2.37z" fill="#b0cc7e"/><path d="m254.6 192.8v-.02s1.21-.68 2.86-1.31c1.64-.61 3.83-1.17 5.79-.65 1.95.53 3.22 1.51 3.77 2.52.56 1.02.47 1.96.06 2.71-.04.07-.08.14-.14.22-1.66-.45-3.58-.91-5.71-1.39-2.52-.59-4.92-1.22-6.63-2.08z" fill="none"/><path d="m254.6 192.8v-.02s1.21-.68 2.86-1.31c1.64-.61 3.83-1.17 5.79-.65 1.95.53 3.22 1.51 3.77 2.52.56 1.02.47 1.96.06 2.71-.04.07-.08.14-.14.22-1.66-.45-3.58-.91-5.71-1.39-2.52-.59-4.92-1.22-6.63-2.08z" fill="#a6bc72"/><path d="m259.2 172.37s.17.13.45.38c.29.25.64.64.99 1.12.69.97 1.37 2.34 1.3 3.66-.01.65-.19 1.25-.36 1.7-.24.5-.49.86-.79 1.12-.68.57-1.3.52-1.77.25-.42-.24-.84-.73-1.13-1.15-.16-.25-.3-.56-.36-.87-.11-.37-.1-.75-.1-1.27.06-.99.44-2.17.83-3.15.4-.94.74-1.72.94-1.79z" fill="#b0cc7e"/><path d="m259.19 172.38c.01 0 .18.13.46.38.29.25.64.64.99 1.12.69.96 1.37 2.34 1.3 3.66-.01.65-.19 1.25-.36 1.7-.24.5-.49.86-.79 1.13-.69.57-1.3.52-1.77.25-.05-.03-.09-.05-.14-.09.24-1.02.22-2.31.24-3.72 0-1.67.04-3.21.07-4.43z" fill="none"/><path d="m259.19 172.38c.01 0 .18.13.46.38.29.25.64.64.99 1.12.69.96 1.37 2.34 1.3 3.66-.01.65-.19 1.25-.36 1.7-.24.5-.49.86-.79 1.13-.69.57-1.3.52-1.77.25-.05-.03-.09-.05-.14-.09.24-1.02.22-2.31.24-3.72 0-1.67.04-3.21.07-4.43z" fill="#a6bc72"/><path d="m239.61 164.89s.15-.09.45-.22c.31-.14.75-.26 1.28-.33 1.04-.13 2.31-.04 3.15.35.84.37 1.28.81 1.54 1.26.26.44.38.98.3 1.44-.07.41-.35.84-.98 1.07-.62.23-1.51.19-2.49-.25-.96-.45-1.7-1.26-2.25-1.94-.26-.32-.5-.62-.7-.87-.17-.24-.31-.43-.3-.51z" fill="#b0cc7e"/><path d="m239.61 164.9c0-.01.15-.1.46-.23.31-.14.75-.26 1.28-.33 1.04-.13 2.31-.04 3.15.35.84.37 1.28.81 1.54 1.26.26.44.38.98.3 1.44-.01.05-.02.09-.03.14-1 .05-2.19-.31-3.32-.85-1.36-.64-2.41-1.38-3.38-1.78z" fill="none"/><path d="m239.61 164.9c0-.01.15-.1.46-.23.31-.14.75-.26 1.28-.33 1.04-.13 2.31-.04 3.15.35.84.37 1.28.81 1.54 1.26.26.44.38.98.3 1.44-.01.05-.02.09-.03.14-1 .05-2.19-.31-3.32-.85-1.36-.64-2.41-1.38-3.38-1.78z" fill="#a6bc72"/><path d="m243.48 173.15s.04-.21.18-.57c.14-.35.43-.84.91-1.31.95-.95 2.68-1.56 3.91-1.43 1.26.12 1.95.51 2.39.97s.65 1.02.66 1.57c.01.48-.26 1.05-.87 1.44-.6.4-1.54.59-2.57.49-1.05-.1-1.91-.53-2.77-.78-.83-.26-1.71-.22-1.84-.38z" fill="#b0cc7e"/><path d="m243.48 173.16c-.01-.01.04-.21.17-.58.14-.35.43-.84.91-1.3.95-.95 2.68-1.56 3.91-1.43 1.26.12 1.95.51 2.4.97.44.46.65 1.02.66 1.57 0 .05 0 .11-.01.16-1.12.25-2.51.15-3.88.08-1.65-.12-3.03.02-4.16.53z" fill="none"/><path d="m243.48 173.16c-.01-.01.04-.21.17-.58.14-.35.43-.84.91-1.3.95-.95 2.68-1.56 3.91-1.43 1.26.12 1.95.51 2.4.97.44.46.65 1.02.66 1.57 0 .05 0 .11-.01.16-1.12.25-2.51.15-3.88.08-1.65-.12-3.03.02-4.16.53z" fill="#a6bc72"/><path d="m234.05 181.41c0 .02.01-.18.27-.34.24-.16.62-.3 1.03-.38.83-.17 1.82-.17 2.54.11 1.44.59 1.57 1.39 1.53 2.14-.02.68-1.21 1.32-2.67.7-.73-.29-1.38-.9-1.84-1.38-.48-.5-.68-.8-.86-.85z" fill="#b0cc7e"/><path d="m234.06 181.42c0 .02.01-.18.26-.34.24-.16.62-.3 1.03-.38.83-.17 1.82-.17 2.54.11 1.44.59 1.57 1.39 1.53 2.14-.01.04-.01.07-.02.11-.81.03-1.71-.26-2.62-.62-.54-.22-1.04-.45-1.5-.66-.45-.19-.86-.45-1.22-.36z" fill="none"/><path d="m234.06 181.42c0 .02.01-.18.26-.34.24-.16.62-.3 1.03-.38.83-.17 1.82-.17 2.54.11 1.44.59 1.57 1.39 1.53 2.14-.01.04-.01.07-.02.11-.81.03-1.71-.26-2.62-.62-.54-.22-1.04-.45-1.5-.66-.45-.19-.86-.45-1.22-.36z" fill="#a6bc72"/><path d="m242.86 177.76s.23.13.61.33c.37.21.87.5 1.42.86 1.08.72 2.38 1.76 2.95 3.2.55 1.44.51 2.66.12 3.43-.38.78-1 1.14-1.63 1.21-.56.06-1.25-.14-1.83-.57-.58-.44-1.12-1.07-1.52-2.14-.41-1.06-.6-2.59-.58-3.9-.01-1.31.26-2.34.46-2.42z" fill="#b0cc7e"/><path d="m242.85 177.76h.01s.23.13.61.33c.37.21.87.5 1.42.86 1.08.72 2.38 1.76 2.95 3.2.55 1.44.51 2.66.12 3.43-.38.78-1 1.14-1.63 1.21-.06.01-.12.01-.19.01-.44-1.21-.98-2.58-1.64-4.07-.79-1.79-1.48-3.54-1.65-4.97z" fill="none"/><path d="m242.85 177.76h.01s.23.13.61.33c.37.21.87.5 1.42.86 1.08.72 2.38 1.76 2.95 3.2.55 1.44.51 2.66.12 3.43-.38.78-1 1.14-1.63 1.21-.06.01-.12.01-.19.01-.44-1.21-.98-2.58-1.64-4.07-.79-1.79-1.48-3.54-1.65-4.97z" fill="#a6bc72"/><path d="m238.46 191.05s.26-.21.73-.52c.47-.32 1.16-.72 1.97-1.07 1.63-.74 3.7-1.32 5.21-1.26 1.52.06 2.46.43 3.22.95.74.51 1.33 1.28 1.56 2.08.2.71.08 1.61-.76 2.46-.82.84-2.38 1.45-4.37 1.36-2.01-.1-3.81-1.08-5.18-1.96-.69-.46-1.27-.89-1.7-1.25-.41-.35-.68-.64-.68-.79z" fill="#b0cc7e"/><path d="m238.46 191.07v-.02s.26-.21.73-.52c.47-.32 1.16-.72 1.97-1.07 1.63-.74 3.7-1.32 5.21-1.26 1.52.06 2.46.43 3.22.95.74.51 1.33 1.28 1.57 2.08.02.08.04.16.05.24-1.55.84-3.78 1.18-6.02.98-2.69-.22-4.93-.87-6.73-1.38z" fill="none"/><path d="m238.46 191.07v-.02s.26-.21.73-.52c.47-.32 1.16-.72 1.97-1.07 1.63-.74 3.7-1.32 5.21-1.26 1.52.06 2.46.43 3.22.95.74.51 1.33 1.28 1.57 2.08.02.08.04.16.05.24-1.55.84-3.78 1.18-6.02.98-2.69-.22-4.93-.87-6.73-1.38z" fill="#a6bc72"/><path d="m247.34 200.07c.01.01-.02-.09.09-.23.11-.15.32-.3.59-.46.54-.3 1.34-.6 2.23-.83 1.79-.46 3.99-.68 5.67-.16 1.69.52 2.67 1.27 3.2 2.06.51.79.63 1.65.68 2.51.05.75-.58 1.62-1.67 2.07-1.07.46-2.53.55-4.26.01-1.73-.53-3.34-1.79-4.52-2.9-.59-.55-1.07-1.06-1.4-1.43-.32-.35-.43-.58-.61-.64z" fill="#b0cc7e"/><path d="m247.35 200.08-.01-.01c.01.01-.02-.09.09-.23.11-.15.32-.3.59-.46.54-.3 1.34-.6 2.23-.83 1.79-.46 3.99-.68 5.67-.16 1.69.52 2.67 1.27 3.2 2.06.51.79.63 1.65.68 2.51 0 .08 0 .17-.02.25-.95.15-1.91.03-2.93-.14-1.01-.18-2.07-.44-3.14-.77-1.27-.39-2.46-.85-3.53-1.29-.53-.22-1.04-.43-1.52-.63-.46-.15-.94-.4-1.31-.3z" fill="none"/><path d="m247.35 200.08-.01-.01c.01.01-.02-.09.09-.23.11-.15.32-.3.59-.46.54-.3 1.34-.6 2.23-.83 1.79-.46 3.99-.68 5.67-.16 1.69.52 2.67 1.27 3.2 2.06.51.79.63 1.65.68 2.51 0 .08 0 .17-.02.25-.95.15-1.91.03-2.93-.14-1.01-.18-2.07-.44-3.14-.77-1.27-.39-2.46-.85-3.53-1.29-.53-.22-1.04-.43-1.52-.63-.46-.15-.94-.4-1.31-.3z" fill="#a6bc72"/><path d="m266.3 200.24s.19.26.46.74c.26.47.59 1.16.89 1.95.6 1.58 1.1 3.53.95 5.04-.16 1.52-.57 2.39-1.12 2.96-.26.27-.59.54-.91.77-.33.24-.67.5-1.03.67-.32.15-.7.23-1.14.12-.45-.12-.89-.39-1.3-.88-.8-.95-1.26-2.49-1.05-4.33.2-1.85 1.19-3.6 2.14-4.88.95-1.27 1.83-2.16 2.11-2.16z" fill="#b0cc7e"/><path d="m266.29 200.24h.01s.19.26.46.74c.26.47.59 1.16.89 1.95.6 1.58 1.1 3.53.95 5.04-.16 1.52-.57 2.39-1.12 2.96-.26.27-.59.54-.9.77-.33.25-.67.5-1.03.67-.07.03-.14.06-.22.09-.52-.74-.75-1.72-.84-2.72s-.04-2.06.1-3.12c.31-2.56 1.08-4.72 1.7-6.38z" fill="none"/><path d="m266.29 200.24h.01s.19.26.46.74c.26.47.59 1.16.89 1.95.6 1.58 1.1 3.53.95 5.04-.16 1.52-.57 2.39-1.12 2.96-.26.27-.59.54-.9.77-.33.25-.67.5-1.03.67-.07.03-.14.06-.22.09-.52-.74-.75-1.72-.84-2.72s-.04-2.06.1-3.12c.31-2.56 1.08-4.72 1.7-6.38z" fill="#a6bc72"/><path d="m253.46 214.89s.27-.23.8-.58c.26-.17.59-.38.97-.59.38-.19.82-.36 1.31-.54 1.93-.7 4.75-.9 6.81.12 2.05 1.01 3.13 2.34 3.49 3.51.36 1.19.07 2.17-.52 2.88-.52.63-1.44 1.1-2.49 1.21-1.07.11-2.3-.07-3.72-.78-1.42-.72-2.82-1.91-4.13-2.97-.33-.27-.64-.53-.93-.77-.29-.22-.56-.43-.79-.62-.49-.38-.79-.7-.8-.87z" fill="#b0cc7e"/><path d="m253.46 214.91v-.02s.27-.23.8-.58c.26-.17.59-.38.97-.59.38-.19.82-.36 1.31-.54 1.93-.7 4.75-.9 6.81.12 2.05 1.01 3.13 2.34 3.49 3.51.36 1.19.07 2.17-.52 2.88-.06.07-.12.14-.19.2-1.67-.82-3.6-1.79-5.73-2.68-2.54-1.1-4.94-1.8-6.94-2.3z" fill="none"/><path d="m253.46 214.91v-.02s.27-.23.8-.58c.26-.17.59-.38.97-.59.38-.19.82-.36 1.31-.54 1.93-.7 4.75-.9 6.81.12 2.05 1.01 3.13 2.34 3.49 3.51.36 1.19.07 2.17-.52 2.88-.06.07-.12.14-.19.2-1.67-.82-3.6-1.79-5.73-2.68-2.54-1.1-4.94-1.8-6.94-2.3z" fill="#a6bc72"/><path d="m260 250.79s-.27-.22-.66-.8c-.32-.57-.67-1.56-.69-2.69-.11-2.3.85-5.07 2.64-6.67 1.77-1.6 3.66-2.12 5.1-1.91.75.12 1.3.4 1.69.8.37.4.5.85.53 1.32-.2 1.79.09 3.42-2.21 5.44-1.12 1-2.77 1.81-4.01 2.59-.66.39-1.16.77-1.58 1.16-.36.37-.64.73-.81.76z" fill="#b0cc7e"/><path d="m260.02 250.79h-.02s-.27-.22-.66-.8c-.32-.56-.67-1.56-.69-2.69-.11-2.3.85-5.07 2.64-6.67 1.77-1.6 3.66-2.12 5.1-1.91.75.12 1.3.4 1.69.8.37.4.5.85.53 1.32.01.09.01.18 0 .28-1.57.64-3.19 2.13-4.81 3.75-.96.98-1.82 1.97-2.5 2.95-.67.98-1.18 1.95-1.28 2.97z" fill="none"/><path d="m260.02 250.79h-.02s-.27-.22-.66-.8c-.32-.56-.67-1.56-.69-2.69-.11-2.3.85-5.07 2.64-6.67 1.77-1.6 3.66-2.12 5.1-1.91.75.12 1.3.4 1.69.8.37.4.5.85.53 1.32.01.09.01.18 0 .28-1.57.64-3.19 2.13-4.81 3.75-.96.98-1.82 1.97-2.5 2.95-.67.98-1.18 1.95-1.28 2.97z" fill="#a6bc72"/><path d="m256.9 231.68s.33.16.86.48c.52.33 1.23.84 1.94 1.58.7.75 1.39 1.75 1.83 2.97.44 1.21.59 2.65.25 3.98-.33 1.32-.93 2.38-1.6 3.09-.66.72-1.36 1.13-1.99 1.31-1.27.36-2.22-.1-2.81-.76-.55-.6-.85-1.55-.97-2.5-.1-.98-.11-1.86.15-2.88.14-.52.38-1.11.62-1.81.25-.7.5-1.5.71-2.29.43-1.59.71-3.03 1.01-3.17z" fill="#b0cc7e"/><path d="m256.89 231.69.01-.01s.33.16.86.48c.52.33 1.23.84 1.94 1.58.7.75 1.39 1.75 1.83 2.97.44 1.21.59 2.65.25 3.98-.33 1.32-.93 2.38-1.6 3.09-.66.72-1.36 1.13-2 1.31-1.27.36-2.22-.1-2.82-.76-.06-.07-.12-.13-.17-.21 1.02-1.49 1.94-3.29 2.18-5.42.35-2.54-.18-5.02-.48-7.01z" fill="none"/><path d="m256.89 231.69.01-.01s.33.16.86.48c.52.33 1.23.84 1.94 1.58.7.75 1.39 1.75 1.83 2.97.44 1.21.59 2.65.25 3.98-.33 1.32-.93 2.38-1.6 3.09-.66.72-1.36 1.13-2 1.31-1.27.36-2.22-.1-2.82-.76-.06-.07-.12-.13-.17-.21 1.02-1.49 1.94-3.29 2.18-5.42.35-2.54-.18-5.02-.48-7.01z" fill="#a6bc72"/><path d="m238.47 238.15s1-.98 2.8-1.98c1.67-.88 3.96-1.74 5.83-1.62 1.93.13 3.15.63 3.98 1.38.83.74 1.22 1.7 1.22 2.61 0 .81-.4 1.71-1.32 2.41-.91.69-2.41 1.18-4.29 1.05-1.95-.12-3.89-.96-5.47-1.86-1.44-.79-2.71-1.67-2.75-1.99z" fill="#b0cc7e"/><path d="m238.47 238.17v-.02s1-.98 2.8-1.98c1.67-.88 3.96-1.74 5.83-1.62 1.93.13 3.15.63 3.98 1.38.83.74 1.23 1.7 1.23 2.61 0 .09 0 .18-.02.27-1.82.37-4.09.54-6.47.38-1.43-.09-2.76-.21-4-.43-1.23-.19-2.33-.32-3.35-.59z" fill="none"/><path d="m238.47 238.17v-.02s1-.98 2.8-1.98c1.67-.88 3.96-1.74 5.83-1.62 1.93.13 3.15.63 3.98 1.38.83.74 1.23 1.7 1.23 2.61 0 .09 0 .18-.02.27-1.82.37-4.09.54-6.47.38-1.43-.09-2.76-.21-4-.43-1.23-.19-2.33-.32-3.35-.59z" fill="#a6bc72"/><path d="m239.39 220.06s.31.09.83.3c.53.2 1.24.54 1.98 1.01 1.51.93 3.14 2.31 3.91 3.63.79 1.31.99 2.33.96 3.25-.04.9-.38 1.79-.95 2.4-.5.53-1.32.88-2.46.63-1.12-.24-2.41-1.19-3.4-2.86-.98-1.68-1.17-3.68-1.2-5.27 0-.81.02-1.52.07-2.06.06-.56.14-.94.26-1.03z" fill="#b0cc7e"/><path d="m239.38 220.07.01-.01s.31.09.83.3c.53.2 1.24.54 1.98 1.01 1.51.93 3.14 2.31 3.91 3.63.79 1.31.99 2.33.96 3.25-.04.9-.38 1.79-.95 2.4-.06.06-.11.12-.18.17-1.49-.88-2.93-2.54-3.99-4.48-1.25-2.34-1.96-4.53-2.57-6.27z" fill="none"/><path d="m239.38 220.07.01-.01s.31.09.83.3c.53.2 1.24.54 1.98 1.01 1.51.93 3.14 2.31 3.91 3.63.79 1.31.99 2.33.96 3.25-.04.9-.38 1.79-.95 2.4-.06.06-.11.12-.18.17-1.49-.88-2.93-2.54-3.99-4.48-1.25-2.34-1.96-4.53-2.57-6.27z" fill="#a6bc72"/><path d="m220.79 228.15s.15-.29.4-.75c.26-.45.62-1.07 1.07-1.75.91-1.33 2.23-2.91 3.97-3.58 1.73-.66 3.23-.62 4.2-.16.99.47 1.41 1.23 1.49 2.01.07.69-.19 1.54-.7 2.25-.52.72-1.29 1.39-2.65 1.9-1.35.52-3.23.71-4.83.67-1.58-.02-2.85-.34-2.95-.59z" fill="#b0cc7e"/><path d="m220.8 228.16-.01-.01s.15-.29.4-.75c.26-.45.62-1.07 1.07-1.75.91-1.33 2.23-2.91 3.97-3.58 1.73-.66 3.23-.62 4.2-.16.99.47 1.42 1.23 1.49 2.01.01.08.01.15.01.24-1.49.53-3.16 1.24-5.02 2.03-2.21.94-4.36 1.74-6.11 1.97z" fill="none"/><path d="m220.8 228.16-.01-.01s.15-.29.4-.75c.26-.45.62-1.07 1.07-1.75.91-1.33 2.23-2.91 3.97-3.58 1.73-.66 3.23-.62 4.2-.16.99.47 1.42 1.23 1.49 2.01.01.08.01.15.01.24-1.49.53-3.16 1.24-5.02 2.03-2.21.94-4.36 1.74-6.11 1.97z" fill="#a6bc72"/><path d="m215.57 215.44s.19.03.5.08c.31.06.73.15 1.17.24.91.21 2.04.54 2.82 1.33.77.79 1.1 1.62 1.07 2.26-.03.65-.34 1.05-.75 1.28-.36.2-.89.25-1.39.14-.51-.12-1.05-.38-1.65-1-.6-.61-1.17-1.62-1.5-2.54-.35-.9-.39-1.69-.27-1.79z" fill="#b0cc7e"/><path d="m215.56 215.45c.01-.01.2.03.5.08.31.06.73.15 1.17.24.91.21 2.04.54 2.82 1.33.77.79 1.1 1.62 1.07 2.26-.03.65-.34 1.06-.75 1.28-.04.02-.08.04-.13.06-.63-.69-1.4-1.43-2.27-2.27-1.03-.99-1.96-2.03-2.41-2.98z" fill="none"/><path d="m215.56 215.45c.01-.01.2.03.5.08.31.06.73.15 1.17.24.91.21 2.04.54 2.82 1.33.77.79 1.1 1.62 1.07 2.26-.03.65-.34 1.06-.75 1.28-.04.02-.08.04-.13.06-.63-.69-1.4-1.43-2.27-2.27-1.03-.99-1.96-2.03-2.41-2.98z" fill="#a6bc72"/><path d="m205.22 218.72c0 .02.07-.21.34-.46.27-.26.69-.55 1.2-.8 1.01-.52 2.32-.9 3.43-.74 2.21.32 2.89 1.58 2.71 2.58-.16.9-1.24 1.86-3.28 1.56-1.02-.14-2.08-.69-2.88-1.17-.84-.52-1.37-.85-1.52-.97z" fill="#b0cc7e"/><path d="m205.22 218.72c-.01.01.06-.22.34-.46.27-.26.69-.55 1.19-.8 1.01-.52 2.32-.9 3.43-.75 2.21.32 2.89 1.58 2.71 2.58-.01.05-.02.1-.04.15-1.04.05-2.28-.02-3.6-.19-.78-.1-1.53-.22-2.21-.34-.67-.11-1.28-.26-1.82-.19z" fill="none"/><path d="m205.22 218.72c-.01.01.06-.22.34-.46.27-.26.69-.55 1.19-.8 1.01-.52 2.32-.9 3.43-.75 2.21.32 2.89 1.58 2.71 2.58-.01.05-.02.1-.04.15-1.04.05-2.28-.02-3.6-.19-.78-.1-1.53-.22-2.21-.34-.67-.11-1.28-.26-1.82-.19z" fill="#a6bc72"/><path d="m244.23 225.08s.31-.21.82-.56c.51-.34 1.22-.79 2.08-1.24 1.71-.89 4.01-1.74 6.22-1.39 2.19.34 3.91 1.37 4.76 2.77.45.75.56 1.4.43 1.99-.14.55-.49.87-.89 1.09-.35.2-.8.34-1.19.55-.34.21-.75.46-1.03.69-.66.44-1.61.64-3.25.38-3.23-.49-8.03-3.56-7.95-4.28z" fill="#b0cc7e"/><path d="m244.23 225.1v-.02s.31-.21.82-.56c.51-.34 1.22-.79 2.08-1.24 1.71-.89 4.01-1.74 6.22-1.39 2.19.34 3.91 1.37 4.77 2.77.45.75.56 1.4.43 2-.14.55-.49.87-.89 1.09-.08.05-.16.09-.25.13-.59-.53-1.5-.75-2.49-.95-1-.19-2.12-.32-3.29-.46-2.8-.33-5.44-.68-7.4-1.37z" fill="none"/><path d="m244.23 225.1v-.02s.31-.21.82-.56c.51-.34 1.22-.79 2.08-1.24 1.71-.89 4.01-1.74 6.22-1.39 2.19.34 3.91 1.37 4.77 2.77.45.75.56 1.4.43 2-.14.55-.49.87-.89 1.09-.08.05-.16.09-.25.13-.59-.53-1.5-.75-2.49-.95-1-.19-2.12-.32-3.29-.46-2.8-.33-5.44-.68-7.4-1.37z" fill="#a6bc72"/><path d="m249.39 201.97s.22.27.56.62c.37.37.87.78 1.47 1.31.58.53 1.26 1.21 1.78 2.24.25.5.44 1.05.58 1.6.11.56.18 1.19.12 1.71-.21 2.19-.98 3.18-1.71 3.77-.76.58-1.62.77-2.41.65-.69-.11-1.43-.61-1.89-1.53-.47-.92-.59-2.22-.5-3.38.13-1.07.49-2.31.7-4.08.13-.82.36-1.63.62-2.14.27-.52.54-.77.68-.77z" fill="#b0cc7e"/><path d="m249.37 201.97h.01s.22.27.56.62c.37.37.87.78 1.47 1.31.58.53 1.26 1.21 1.78 2.24.25.51.44 1.05.58 1.6.11.56.18 1.19.12 1.71-.21 2.19-.98 3.18-1.72 3.77-.76.58-1.62.77-2.41.65-.08-.01-.15-.03-.23-.05-.12-1.65.3-3.62.28-5.49 0-.56-.08-1.13-.13-1.67-.1-.56-.19-1.1-.28-1.63-.19-1.07-.29-2.18-.03-3.06z" fill="none"/><path d="m249.37 201.97h.01s.22.27.56.62c.37.37.87.78 1.47 1.31.58.53 1.26 1.21 1.78 2.24.25.51.44 1.05.58 1.6.11.56.18 1.19.12 1.71-.21 2.19-.98 3.18-1.72 3.77-.76.58-1.62.77-2.41.65-.08-.01-.15-.03-.23-.05-.12-1.65.3-3.62.28-5.49 0-.56-.08-1.13-.13-1.67-.1-.56-.19-1.1-.28-1.63-.19-1.07-.29-2.18-.03-3.06z" fill="#a6bc72"/><path d="m228.46 206.23s1.05-.79 2.35-1.57c1.33-.86 2.98-1.7 4.49-1.9 1.55-.13 2.6.08 3.4.55.8.48 1.31 1.2 1.49 1.95.16.67 0 1.49-.66 2.24-.33.37-.79.72-1.4 1.02s-1.31.45-2.17.56c-1.72.22-3.65-.38-5.1-1.04-1.49-.73-2.42-1.53-2.4-1.81z" fill="#b0cc7e"/><path d="m228.46 206.25v-.01s1.05-.79 2.35-1.57c1.33-.86 2.98-1.7 4.49-1.9 1.55-.13 2.6.08 3.4.55.8.48 1.32 1.2 1.49 1.95.02.07.03.15.04.23-.72.31-1.56.6-2.47.86-.91.24-1.9.36-2.93.48-1.23.13-2.41.07-3.49 0-1.08-.11-2.06-.35-2.88-.59z" fill="none"/><path d="m228.46 206.25v-.01s1.05-.79 2.35-1.57c1.33-.86 2.98-1.7 4.49-1.9 1.55-.13 2.6.08 3.4.55.8.48 1.32 1.2 1.49 1.95.02.07.03.15.04.23-.72.31-1.56.6-2.47.86-.91.24-1.9.36-2.93.48-1.23.13-2.41.07-3.49 0-1.08-.11-2.06-.35-2.88-.59z" fill="#a6bc72"/><path d="m218.45 188.54s.3-.01.82.03c.26.02.58.06.94.12.34.07.72.17 1.12.29 1.61.48 3.45 1.44 4.44 2.57 1.01 1.14 1.38 2.07 1.47 2.92.08.82-.1 1.69-.53 2.33-.38.57-1.08 1.01-2.17.94-1.06-.08-2.36-.73-3.49-2.01-1.14-1.3-1.71-2.99-2.1-4.39-.1-.35-.18-.69-.25-1.01-.08-.3-.14-.57-.19-.82-.11-.49-.14-.86-.06-.97z" fill="#b0cc7e"/><path d="m218.44 188.55.01-.01s.3-.01.82.03c.26.02.58.06.94.12.34.07.72.17 1.12.29 1.61.48 3.45 1.44 4.44 2.57 1.01 1.14 1.38 2.07 1.47 2.92.08.82-.1 1.69-.52 2.33-.04.06-.09.12-.14.18-1.52-.6-3.04-1.92-4.36-3.46-1.59-1.84-2.74-3.61-3.78-4.97z" fill="none"/><path d="m218.44 188.55.01-.01s.3-.01.82.03c.26.02.58.06.94.12.34.07.72.17 1.12.29 1.61.48 3.45 1.44 4.44 2.57 1.01 1.14 1.38 2.07 1.47 2.92.08.82-.1 1.69-.52 2.33-.04.06-.09.12-.14.18-1.52-.6-3.04-1.92-4.36-3.46-1.59-1.84-2.74-3.61-3.78-4.97z" fill="#a6bc72"/><path d="m203.66 191.8s.75-.46 1.74-.88c.99-.43 2.19-.84 3.34-.69 2.24.28 2.99 1.5 2.81 2.53-.16.91-1.24 1.97-3.34 1.71-1.03-.14-2.24-.71-3.12-1.3-.89-.59-1.46-1.18-1.43-1.37z" fill="#b0cc7e"/><path d="m203.66 191.81c0-.01.75-.47 1.74-.89.99-.43 2.19-.83 3.34-.69 2.24.28 2.99 1.5 2.81 2.53l-.03.15c-1.07.11-2.34.09-3.69-.08-1.63-.2-3.12-.56-4.17-1.02z" fill="none"/><path d="m203.66 191.81c0-.01.75-.47 1.74-.89.99-.43 2.19-.83 3.34-.69 2.24.28 2.99 1.5 2.81 2.53l-.03.15c-1.07.11-2.34.09-3.69-.08-1.63-.2-3.12-.56-4.17-1.02z" fill="#a6bc72"/><path d="m284.04 242.7s-.34.04-.89.06-1.32.03-2.17-.01c-1.71-.08-3.66-.3-4.95-.86-1.3-.55-2.02-1.21-2.55-1.93-.52-.72-.83-1.63-.8-2.45.03-.73.43-1.53 1.5-2.06 1.04-.53 2.74-.58 4.64.25 1.9.85 3.28 2.57 4.13 4.02.85 1.46 1.24 2.72 1.09 2.98z" fill="#b0cc7e"/><path d="m284.05 242.68-.01.01s-.34.04-.89.06-1.32.03-2.17-.01c-1.71-.08-3.66-.3-4.95-.86-1.3-.55-2.02-1.21-2.56-1.93-.52-.72-.83-1.63-.8-2.45 0-.08.01-.16.03-.25 1.72-.3 3.94.11 5.96 1.15 2.43 1.23 4.18 2.9 5.39 4.28z" fill="none"/><path d="m284.05 242.68-.01.01s-.34.04-.89.06-1.32.03-2.17-.01c-1.71-.08-3.66-.3-4.95-.86-1.3-.55-2.02-1.21-2.56-1.93-.52-.72-.83-1.63-.8-2.45 0-.08.01-.16.03-.25 1.72-.3 3.94.11 5.96 1.15 2.43 1.23 4.18 2.9 5.39 4.28z" fill="#a6bc72"/><path d="m446.08 251.25 1.64-.57c-4.31-14.58-16.18-54.79-20-67.69 2.17 15.98 18.36 68.26 18.36 68.26z" fill="#b0cc7e"/><path d="m427.71 182.98v.01c3.81 12.9 15.69 53.11 20 67.69l2.75-.95c-6.6-28.18-22.75-66.75-22.75-66.75z" fill="#a6bc72"/><path d="m446.84 247.22 1.71-.38c-2.61-15.17-9.82-56.99-12.14-70.42.31 16.33 10.43 70.8 10.43 70.8z" fill="#b0cc7e"/><path d="m436.42 176.41v.01c2.31 13.42 9.52 55.25 12.14 70.42l2.88-.63c-3.33-29.11-15.02-69.8-15.02-69.8z" fill="#a6bc72"/><path d="m439.86 245.36 1.23-.5c-3.93-10.96-14.77-41.2-18.24-50.91 2.36 12.13 17.01 51.41 17.01 51.41z" fill="#b0cc7e"/><path d="m422.85 193.94c3.48 9.71 14.32 39.95 18.25 50.92l2.07-.85c-6.29-21.27-20.32-50.07-20.32-50.07z" fill="#a6bc72"/><path d="m446.92 247.95 1.83-.2c-1.02-16.14-3.82-60.66-4.72-74.95-1.52 17.1 2.89 75.15 2.89 75.15z" fill="#b0cc7e"/><path d="m444.04 172.8v.01c.9 14.29 3.7 58.8 4.72 74.95l3.08-.34c-.18-30.79-7.8-74.62-7.8-74.62z" fill="#a6bc72"/><path d="m451.18 243.01 1.63-.07c.08-14.35.29-53.92.36-66.62-2.38 15.04-1.99 66.69-1.99 66.69z" fill="#b0cc7e"/><path d="m453.18 176.31v.01c-.07 12.7-.28 52.27-.36 66.62l2.75-.11c1.7-27.26-2.39-66.52-2.39-66.52z" fill="#a6bc72"/><path d="m455.07 244.92 1.45-.04c.26-12.71.99-47.76 1.22-59.01-2.31 13.28-2.67 59.05-2.67 59.05z" fill="#b0cc7e"/><path d="m457.75 185.86c-.23 11.26-.96 46.31-1.22 59.02l2.44-.06c1.87-24.13-1.22-58.96-1.22-58.96z" fill="#a6bc72"/><path d="m458.25 244.45 1.46.1c1.42-12.71 5.36-47.76 6.62-59.01-3.54 13.09-8.08 58.91-8.08 58.91z" fill="#b0cc7e"/><path d="m466.33 185.53c-1.26 11.26-5.2 46.31-6.62 59.02l2.45.16c4.08-24.01 4.17-59.18 4.17-59.18z" fill="#a6bc72"/><path d="m459.61 244.16 1.12.27c2.83-9.74 10.62-36.62 13.13-45.24-4.53 9.76-14.25 44.97-14.25 44.97z" fill="#b0cc7e"/><path d="m473.86 199.18c-2.51 8.63-10.3 35.5-13.13 45.25l1.89.46c6.43-18.22 11.24-45.71 11.24-45.71z" fill="#a6bc72"/><path d="m440.4 245.51.82-.6c-4.9-7.44-18.42-27.95-22.76-34.53 3.95 8.59 21.94 35.13 21.94 35.13z" fill="#b0cc7e"/><path d="m418.46 210.38c4.34 6.59 17.86 27.1 22.76 34.54l1.38-1c-8.51-14.68-24.14-33.54-24.14-33.54z" fill="#a6bc72"/><path d="m453.81 281.61c-.75.4-1.36 1.14-1.87 1.81-.44.57-.95 1.04-1.42 1.56-1.02.13-2.11.33-3.09.65-1.41.45-2.94.92-4.43.93-.49.01-.92-.17-1.39-.34-.61-.22-1.24-.31-1.86-.49-1.2-.35-2.06-1.09-2.88-2.02-.38-.43-.66-.84-.8-1.4-.17-.74.17-.91.86-1.07 1.72-.4 3.28.34 4.9.78 1.96.54 4.13.74 6.09.07 1.09-.36 2.32-.72 3.46-.94.89-.18 1.76-.13 2.43.46z" fill="url(#c)"/><path d="m471.96 282.95-32.55 1.96-6.93-43.73 41.12-2.47z" fill="#43342b"/><path d="m475.45 253.28.61-16.31-46.22 2.78 2.55 16.12z" fill="#684f37"/><path d="m438.89 281.61.52 3.3 32.55-1.96.75-20.18c-5.98 11.85-19.82 17.91-33.82 18.84z" fill="#1d1d1c"/><path d="m456.34 284.88c-.21.33-.34.72-.42.95-.29.92-.83 1.82-1.53 2.53-1.26 1.27-3.4 1.8-5 .84-.89-.54-.24-1.69.04-2.5.25-.69.65-1.23 1.1-1.73.46-.52.98-.99 1.42-1.56.51-.66 1.11-1.41 1.87-1.81.44-.25.95-.36 1.52-.28 1.02.16 1.51 2.71 1 3.56z" fill="url(#d)"/><path d="m467.39 283.18c-.64.95-1.47 1.65-2.42 2.09-.9.43-1.91.63-2.96.62-.28 0-.91.11-1.17-.08-.05-.03-.08-.08-.1-.14-.11-.39.85-1.15 1.06-1.52.49-.87.78-1.78 1.1-2.71.21-.61.55-1.05.96-1.49.18-.2.4-.38.58-.62.73-1 1.47-2.44 2.36-3.14.46-.35 1.27-.62 1.62-.43 2.19 1.18.27 5.48-1.03 7.42z" fill="url(#e)"/><path d="m464.05 277.18c.16.97-.12 1.82-.2 2.77-.41.44-.75.88-.96 1.49-.32.93-.61 1.85-1.1 2.71-.21.37-1.17 1.13-1.06 1.52.02.06.05.11.1.14-.42.27-1.15.48-1.5.59-.82.29-1.63.36-2.34-.17-.5-.37-.66-.85-.65-1.37.1-.28.19-.56.15-.78.25-.79.75-1.59 1.06-2.17 1.09-2.03 1.56-4.81 4.02-5.68.95-.32 2.3-.2 2.48.95z" fill="url(#f)"/></svg>